SplineFontDB: 3.0
FontName: HM_XBSols-Bold
FullName: HM_XBSols Bold
FamilyName: HM_XBSols
Weight: Bold
Copyright: Copyright (c) Hossein, 2013. All rights reserved.
Version: 0.11
ItalicAngle: 0
UnderlinePosition: -540
UnderlineWidth: 60
Ascent: 1638
Descent: 410
sfntRevision: 0x00010000
LayerCount: 2
Layer: 0 1 "Back"  1
Layer: 1 1 "Fore"  0
XUID: [1021 383 1316511373 3444681]
FSType: 0
OS2Version: 2
OS2_WeightWidthSlopeOnly: 0
OS2_UseTypoMetrics: 1
CreationTime: 1206386580
ModificationTime: 1360911934
PfmFamily: 17
TTFWeight: 700
TTFWidth: 5
LineGap: 0
VLineGap: 0
Panose: 2 0 8 5 7 0 0 2 0 3
OS2TypoAscent: 2200
OS2TypoAOffset: 0
OS2TypoDescent: -1000
OS2TypoDOffset: 0
OS2TypoLinegap: 0
OS2WinAscent: 2200
OS2WinAOffset: 0
OS2WinDescent: 1000
OS2WinDOffset: 0
HheadAscent: 2200
HheadAOffset: 0
HheadDescent: -1000
HheadDOffset: 0
OS2SubXSize: 1434
OS2SubYSize: 1331
OS2SubXOff: 0
OS2SubYOff: 293
OS2SupXSize: 1434
OS2SupYSize: 1331
OS2SupXOff: 0
OS2SupYOff: 928
OS2StrikeYSize: 102
OS2StrikeYPos: 512
OS2Vendor: 'pars'
OS2CodePages: 20000051.41000000
OS2UnicodeRanges: 00002003.80000000.00000008.00000000
Lookup: 6 0 0 "'ccmp' Glyph Composition/Decomposition in Arabic lookup 0"  {"'ccmp' Glyph Composition/Decomposition in Arabic lookup 0 contextual 0"  "'ccmp' Glyph Composition/Decomposition in Arabic lookup 0 contextual 1"  "'ccmp' Glyph Composition/Decomposition in Arabic lookup 0 contextual 2"  "'ccmp' Glyph Composition/Decomposition in Arabic lookup 0 contextual 3"  "'ccmp' Glyph Composition/Decomposition in Arabic lookup 0 contextual 4"  "'ccmp' Glyph Composition/Decomposition in Arabic lookup 0 contextual 5"  } ['ccmp' ('arab' <'ARA ' 'DRI ' 'FAR ' 'KUR ' 'PAS ' 'URD ' 'UYG ' 'UZB ' 'dflt' > ) ]
Lookup: 4 0 0 "'ccmp' Glyph Composition/Decomposition in Arabic lookup 1"  {"'ccmp' Glyph Composition/Decomposition in Arabic lookup 1 subtable"  } ['ccmp' ('arab' <'ARA ' 'DRI ' 'FAR ' 'KUR ' 'PAS ' 'URD ' 'UYG ' 'UZB ' 'dflt' > ) ]

StartChar: .notdef
Encoding: 65536 -1 0
Width: 1290
GlyphClass: 2
Flags: W
LayerCount: 2
Fore
SplineSet
718 344 m 0,0,1
 718 309 718 309 692.5 283.5 c 128,-1,2
 667 258 667 258 630 258 c 0,3,4
 595 258 595 258 570.5 283.5 c 128,-1,5
 546 309 546 309 546 344 c 0,6,7
 546 380 546 380 571 405 c 128,-1,8
 596 430 596 430 634 430 c 0,9,10
 669 430 669 430 693.5 405 c 128,-1,11
 718 380 718 380 718 344 c 0,0,1
842 897 m 0,12,13
 842 847 842 847 815 816 c 128,-1,14
 788 785 788 785 745 785 c 0,15,16
 709 785 709 785 687 807 c 128,-1,17
 665 829 665 829 665 861 c 0,18,19
 665 885 665 885 676.5 902.5 c 128,-1,20
 688 920 688 920 702 932.5 c 128,-1,21
 716 945 716 945 727.5 953.5 c 128,-1,22
 739 962 739 962 739 969 c 0,23,24
 739 992 739 992 717 1006 c 128,-1,25
 695 1020 695 1020 660 1020 c 0,26,27
 615 1020 615 1020 588 995.5 c 128,-1,28
 561 971 561 971 561 935 c 0,29,30
 561 915 561 915 573 885 c 128,-1,31
 585 855 585 855 600 826 c 128,-1,32
 615 797 615 797 628 774 c 128,-1,33
 641 751 641 751 643 745 c 0,34,35
 655 711 655 711 662.5 671 c 128,-1,36
 670 631 670 631 670 590 c 0,37,38
 670 566 670 566 668.5 541.5 c 128,-1,39
 667 517 667 517 665 488 c 1,40,-1
 620 488 l 1,41,-1
 620 508 l 1,42,-1
 624 543 l 1,43,44
 624 581 624 581 573 626 c 0,45,46
 531 663 531 663 507 685 c 128,-1,47
 483 707 483 707 478 713 c 0,48,49
 427 773 427 773 427 851 c 0,50,51
 427 898 427 898 444 937.5 c 128,-1,52
 461 977 461 977 490.5 1006 c 128,-1,53
 520 1035 520 1035 559.5 1051.5 c 128,-1,54
 599 1068 599 1068 644 1068 c 0,55,56
 685 1068 685 1068 721 1056 c 128,-1,57
 757 1044 757 1044 784 1021.5 c 128,-1,58
 811 999 811 999 826.5 967.5 c 128,-1,59
 842 936 842 936 842 897 c 0,12,13
152 36 m 1,60,-1
 1141 36 l 1,61,-1
 1141 1290 l 1,62,-1
 152 1290 l 1,63,-1
 152 36 l 1,60,-1
115 0 m 1,64,-1
 115 1327 l 1,65,-1
 1175 1327 l 1,66,-1
 1175 0 l 1,67,-1
 115 0 l 1,64,-1
EndSplineSet
EndChar

StartChar: exclam
Encoding: 33 33 4
Width: 796
GlyphClass: 2
Flags: W
LayerCount: 2
Fore
SplineSet
596 218 m 1,0,-1
 454 -1 l 1,1,-1
 199 218 l 1,2,-1
 345 437 l 1,3,-1
 596 218 l 1,0,-1
268 1527 m 2,4,5
 287 1559 287 1559 298 1559 c 256,6,7
 309 1559 309 1559 326 1534 c 128,-1,8
 343 1509 343 1509 363 1461 c 0,9,10
 411 1346 411 1346 437 1215 c 128,-1,11
 463 1084 463 1084 464 953 c 1,12,13
 464 789 464 789 406 633 c 0,14,15
 372 540 372 540 345 540 c 0,16,17
 329 540 329 540 325 565 c 2,18,-1
 316 624 l 2,19,20
 313 644 313 644 304 680 c 128,-1,21
 295 716 295 716 281.5 763 c 128,-1,22
 268 810 268 810 251.5 865 c 128,-1,23
 235 920 235 920 217 978 c 0,24,25
 192 1056 192 1056 164 1127 c 128,-1,26
 136 1198 136 1198 110 1255 c 1,27,-1
 268 1527 l 2,4,5
EndSplineSet
EndChar

StartChar: quotedbl
Encoding: 34 34 5
Width: 666
GlyphClass: 2
Flags: W
LayerCount: 2
Fore
SplineSet
299 1190 m 0,0,1
 299 1189 299 1189 296 1169 c 128,-1,2
 293 1149 293 1149 287.5 1114 c 128,-1,3
 282 1079 282 1079 274 1029.5 c 128,-1,4
 266 980 266 980 256 919 c 1,5,6
 251 902 251 902 247.5 870.5 c 128,-1,7
 244 839 244 839 242 796 c 1,8,-1
 183 796 l 1,9,10
 180 841 180 841 176 875.5 c 128,-1,11
 172 910 172 910 167.5 938 c 128,-1,12
 163 966 163 966 158.5 989.5 c 128,-1,13
 154 1013 154 1013 150 1036 c 0,14,15
 139 1097 139 1097 132 1141 c 128,-1,16
 125 1185 125 1185 125 1190 c 0,17,18
 125 1285 125 1285 213 1285 c 0,19,20
 248 1285 248 1285 273.5 1258.5 c 128,-1,21
 299 1232 299 1232 299 1190 c 0,0,1
537 1190 m 0,22,23
 537 1180 537 1180 526.5 1110 c 128,-1,24
 516 1040 516 1040 496 919 c 1,25,26
 491 901 491 901 482 796 c 1,27,-1
 422 796 l 1,28,29
 418 822 418 822 415.5 852.5 c 128,-1,30
 413 883 413 883 408 919 c 1,31,32
 388 1033 388 1033 376.5 1103.5 c 128,-1,33
 365 1174 365 1174 365 1190 c 0,34,35
 365 1285 365 1285 452 1285 c 0,36,37
 537 1285 537 1285 537 1190 c 0,22,23
EndSplineSet
EndChar

StartChar: numbersign
Encoding: 35 35 6
Width: 1200
GlyphClass: 2
Flags: W
LayerCount: 2
Fore
SplineSet
795 947 m 1,0,-1
 475 947 l 1,1,2
 472 931 472 931 467 902 c 128,-1,3
 462 873 462 873 456 838.5 c 128,-1,4
 450 804 450 804 443.5 766 c 128,-1,5
 437 728 437 728 431 694.5 c 128,-1,6
 425 661 425 661 420.5 634.5 c 128,-1,7
 416 608 416 608 414 595 c 1,8,-1
 735 595 l 1,9,-1
 795 947 l 1,0,-1
1188 405 m 1,10,-1
 879 405 l 1,11,12
 874 374 874 374 866.5 333 c 128,-1,13
 859 292 859 292 851.5 246.5 c 128,-1,14
 844 201 844 201 835.5 154.5 c 128,-1,15
 827 108 827 108 820 67.5 c 128,-1,16
 813 27 813 27 807 -5 c 128,-1,17
 801 -37 801 -37 798 -53 c 1,18,-1
 624 -53 l 1,19,-1
 703 405 l 1,20,-1
 381 405 l 1,21,22
 376 378 376 378 368.5 337 c 128,-1,23
 361 296 361 296 352.5 249.5 c 128,-1,24
 344 203 344 203 335.5 154.5 c 128,-1,25
 327 106 327 106 320 64.5 c 128,-1,26
 313 23 313 23 307.5 -8.5 c 128,-1,27
 302 -40 302 -40 300 -53 c 1,28,-1
 124 -53 l 1,29,-1
 206 405 l 1,30,-1
 21 405 l 1,31,-1
 21 595 l 1,32,-1
 239 595 l 1,33,34
 244 624 244 624 252.5 673.5 c 128,-1,35
 261 723 261 723 270 776 c 128,-1,36
 279 829 279 829 288 876 c 128,-1,37
 297 923 297 923 301 947 c 1,38,-1
 21 947 l 1,39,-1
 21 1136 l 1,40,-1
 336 1136 l 1,41,42
 342 1175 342 1175 352 1234.5 c 128,-1,43
 362 1294 362 1294 373 1358.5 c 128,-1,44
 384 1423 384 1423 395 1486 c 128,-1,45
 406 1549 406 1549 414 1594 c 1,46,-1
 586 1594 l 1,47,-1
 508 1136 l 1,48,-1
 829 1136 l 1,49,50
 835 1165 835 1165 842.5 1207 c 128,-1,51
 850 1249 850 1249 858 1295.5 c 128,-1,52
 866 1342 866 1342 874.5 1389.5 c 128,-1,53
 883 1437 883 1437 890 1478.5 c 128,-1,54
 897 1520 897 1520 902 1550.5 c 128,-1,55
 907 1581 907 1581 909 1594 c 1,56,-1
 1085 1594 l 1,57,-1
 1003 1136 l 1,58,-1
 1188 1136 l 1,59,-1
 1188 947 l 1,60,-1
 970 947 l 1,61,62
 962 900 962 900 955.5 857.5 c 128,-1,63
 949 815 949 815 942 772.5 c 128,-1,64
 935 730 935 730 928 686.5 c 128,-1,65
 921 643 921 643 912 595 c 1,66,-1
 1188 595 l 1,67,-1
 1188 405 l 1,10,-1
EndSplineSet
EndChar

StartChar: dollar
Encoding: 36 36 7
Width: 1145
GlyphClass: 2
Flags: W
LayerCount: 2
Fore
SplineSet
518 1427 m 1,0,1
 426 1405 426 1405 381 1349.5 c 128,-1,2
 336 1294 336 1294 336 1227 c 0,3,4
 336 1193 336 1193 347.5 1158.5 c 128,-1,5
 359 1124 359 1124 382 1092 c 128,-1,6
 405 1060 405 1060 439 1032 c 128,-1,7
 473 1004 473 1004 518 983 c 1,8,-1
 518 1427 l 1,0,1
593 55 m 1,9,10
 647 64 647 64 687.5 88 c 128,-1,11
 728 112 728 112 755.5 146.5 c 128,-1,12
 783 181 783 181 797 223 c 128,-1,13
 811 265 811 265 811 310 c 0,14,15
 811 353 811 353 797.5 396 c 128,-1,16
 784 439 784 439 757 477.5 c 128,-1,17
 730 516 730 516 689 547 c 128,-1,18
 648 578 648 578 593 597 c 1,19,-1
 593 55 l 1,9,10
518 -222 m 1,20,-1
 518 -22 l 1,21,22
 431 -15 431 -15 350 14 c 128,-1,23
 269 43 269 43 206.5 86.5 c 128,-1,24
 144 130 144 130 106 185.5 c 128,-1,25
 68 241 68 241 68 300 c 0,26,27
 68 329 68 329 77 354.5 c 128,-1,28
 86 380 86 380 103 399 c 128,-1,29
 120 418 120 418 144 428.5 c 128,-1,30
 168 439 168 439 198 439 c 0,31,32
 242 439 242 439 270 410.5 c 128,-1,33
 298 382 298 382 318.5 340 c 128,-1,34
 339 298 339 298 355.5 248 c 128,-1,35
 372 198 372 198 393 156 c 128,-1,36
 414 114 414 114 443.5 85.5 c 128,-1,37
 473 57 473 57 518 57 c 1,38,-1
 518 638 l 1,39,40
 421 665 421 665 346.5 715 c 128,-1,41
 272 765 272 765 221.5 829 c 128,-1,42
 171 893 171 893 145 966 c 128,-1,43
 119 1039 119 1039 119 1112 c 0,44,45
 119 1181 119 1181 143 1246.5 c 128,-1,46
 167 1312 167 1312 216 1365 c 128,-1,47
 265 1418 265 1418 340.5 1454.5 c 128,-1,48
 416 1491 416 1491 518 1504 c 1,49,-1
 518 1607 l 1,50,-1
 593 1607 l 1,51,-1
 593 1504 l 1,52,53
 667 1500 667 1500 741 1477 c 128,-1,54
 815 1454 815 1454 874 1416.5 c 128,-1,55
 933 1379 933 1379 970 1329.5 c 128,-1,56
 1007 1280 1007 1280 1007 1224 c 0,57,58
 1007 1199 1007 1199 997.5 1176.5 c 128,-1,59
 988 1154 988 1154 971 1137.5 c 128,-1,60
 954 1121 954 1121 931 1111.5 c 128,-1,61
 908 1102 908 1102 882 1102 c 0,62,63
 846 1102 846 1102 820 1124 c 128,-1,64
 794 1146 794 1146 772.5 1180 c 128,-1,65
 751 1214 751 1214 732.5 1254 c 128,-1,66
 714 1294 714 1294 694 1329 c 128,-1,67
 674 1364 674 1364 650 1389.5 c 128,-1,68
 626 1415 626 1415 593 1420 c 1,69,-1
 593 942 l 1,70,71
 708 915 708 915 794 861.5 c 128,-1,72
 880 808 880 808 937.5 738 c 128,-1,73
 995 668 995 668 1024 587.5 c 128,-1,74
 1053 507 1053 507 1053 426 c 256,75,76
 1053 345 1053 345 1024.5 269 c 128,-1,77
 996 193 996 193 938.5 132 c 128,-1,78
 881 71 881 71 795 30 c 128,-1,79
 709 -11 709 -11 593 -22 c 1,80,-1
 593 -222 l 1,81,-1
 518 -222 l 1,20,-1
EndSplineSet
EndChar

StartChar: percent
Encoding: 37 37 8
Width: 2069
GlyphClass: 2
Flags: W
LayerCount: 2
Fore
SplineSet
316 947 m 2,0,1
 316 776 316 776 415 776 c 0,2,3
 515 776 515 776 515 947 c 2,4,-1
 515 1296 l 2,5,6
 515 1463 515 1463 415 1463 c 0,7,8
 316 1463 316 1463 316 1296 c 2,9,-1
 316 947 l 2,0,1
1552 216 m 2,10,11
 1552 44 1552 44 1651 44 c 0,12,13
 1751 44 1751 44 1751 216 c 2,14,-1
 1751 564 l 2,15,16
 1751 733 1751 733 1651 733 c 0,17,18
 1552 733 1552 733 1552 564 c 2,19,-1
 1552 216 l 2,10,11
417 -66 m 1,20,21
 435 -38 435 -38 473 18.5 c 128,-1,22
 511 75 511 75 563 153 c 128,-1,23
 615 231 615 231 678 325 c 128,-1,24
 741 419 741 419 809.5 521.5 c 128,-1,25
 878 624 878 624 949.5 730.5 c 128,-1,26
 1021 837 1021 837 1089.5 939.5 c 128,-1,27
 1158 1042 1158 1042 1221 1136 c 128,-1,28
 1284 1230 1284 1230 1335.5 1307.5 c 128,-1,29
 1387 1385 1387 1385 1425 1441.5 c 128,-1,30
 1463 1498 1463 1498 1481 1526 c 1,31,-1
 1651 1526 l 1,32,33
 1633 1498 1633 1498 1595 1441.5 c 128,-1,34
 1557 1385 1557 1385 1505 1307.5 c 128,-1,35
 1453 1230 1453 1230 1390 1136 c 128,-1,36
 1327 1042 1327 1042 1259 939.5 c 128,-1,37
 1191 837 1191 837 1119.5 730.5 c 128,-1,38
 1048 624 1048 624 979.5 521.5 c 128,-1,39
 911 419 911 419 848 325 c 128,-1,40
 785 231 785 231 733.5 153 c 128,-1,41
 682 75 682 75 644 18.5 c 128,-1,42
 606 -38 606 -38 587 -66 c 1,43,-1
 417 -66 l 1,20,21
1651 -18 m 0,44,45
 1582 -18 1582 -18 1525.5 14 c 128,-1,46
 1469 46 1469 46 1429 100.5 c 128,-1,47
 1389 155 1389 155 1367 228.5 c 128,-1,48
 1345 302 1345 302 1345 384 c 0,49,50
 1345 472 1345 472 1366 546.5 c 128,-1,51
 1387 621 1387 621 1426.5 675.5 c 128,-1,52
 1466 730 1466 730 1522.5 761 c 128,-1,53
 1579 792 1579 792 1651 792 c 0,54,55
 1718 792 1718 792 1774.5 763.5 c 128,-1,56
 1831 735 1831 735 1872 682 c 128,-1,57
 1913 629 1913 629 1936 553.5 c 128,-1,58
 1959 478 1959 478 1959 384 c 0,59,60
 1959 299 1959 299 1937.5 225.5 c 128,-1,61
 1916 152 1916 152 1876 98 c 128,-1,62
 1836 44 1836 44 1779 13 c 128,-1,63
 1722 -18 1722 -18 1651 -18 c 0,44,45
415 712 m 0,64,65
 346 712 346 712 289.5 744 c 128,-1,66
 233 776 233 776 193.5 830.5 c 128,-1,67
 154 885 154 885 132 958 c 128,-1,68
 110 1031 110 1031 110 1113 c 0,69,70
 110 1202 110 1202 131 1277.5 c 128,-1,71
 152 1353 152 1353 191 1407.5 c 128,-1,72
 230 1462 230 1462 286.5 1493 c 128,-1,73
 343 1524 343 1524 415 1524 c 0,74,75
 481 1524 481 1524 537.5 1495.5 c 128,-1,76
 594 1467 594 1467 635.5 1414 c 128,-1,77
 677 1361 677 1361 700 1284.5 c 128,-1,78
 723 1208 723 1208 723 1113 c 0,79,80
 723 1027 723 1027 700 953.5 c 128,-1,81
 677 880 677 880 636 826.5 c 128,-1,82
 595 773 595 773 538.5 742.5 c 128,-1,83
 482 712 482 712 415 712 c 0,64,65
EndSplineSet
Ligature2: "<17013,16013> Roman in Arabic lookup 112 subtable" zero fraction zero
Ligature2: "<17013,16013> Roman in Arabic lookup 112 subtable" zero slash zero
Ligature2: "Ligature Substitution lookup 48 subtable" zero fraction zero
Ligature2: "Ligature Substitution lookup 48 subtable" zero slash zero
EndChar

StartChar: ampersand
Encoding: 38 38 9
Width: 1793
GlyphClass: 2
Flags: W
LayerCount: 2
Fore
SplineSet
605 1177 m 0,0,1
 605 1133 605 1133 620 1100.5 c 128,-1,2
 635 1068 635 1068 660 1040 c 128,-1,3
 685 1012 685 1012 718 986 c 128,-1,4
 751 960 751 960 787 928 c 1,5,6
 812 945 812 945 831 969 c 128,-1,7
 850 993 850 993 863 1020.5 c 128,-1,8
 876 1048 876 1048 882.5 1077.5 c 128,-1,9
 889 1107 889 1107 889 1136 c 0,10,11
 889 1169 889 1169 880 1200 c 128,-1,12
 871 1231 871 1231 852 1254 c 128,-1,13
 833 1277 833 1277 804 1291 c 128,-1,14
 775 1305 775 1305 735 1305 c 0,15,16
 605 1305 605 1305 605 1177 c 0,0,1
431 465 m 0,17,18
 431 392 431 392 456 332 c 128,-1,19
 481 272 481 272 522 229.5 c 128,-1,20
 563 187 563 187 617.5 164 c 128,-1,21
 672 141 672 141 730 141 c 0,22,23
 799 141 799 141 865.5 173.5 c 128,-1,24
 932 206 932 206 988 278 c 1,25,26
 960 328 960 328 919 384 c 128,-1,27
 878 440 878 440 828 499 c 128,-1,28
 778 558 778 558 720 617.5 c 128,-1,29
 662 677 662 677 600 733 c 1,30,31
 565 707 565 707 534 675.5 c 128,-1,32
 503 644 503 644 480 609.5 c 128,-1,33
 457 575 457 575 444 538.5 c 128,-1,34
 431 502 431 502 431 465 c 0,17,18
1706 99 m 1,35,36
 1641 35 1641 35 1554 0.5 c 128,-1,37
 1467 -34 1467 -34 1377 -34 c 0,38,39
 1325 -34 1325 -34 1274.5 -21.5 c 128,-1,40
 1224 -9 1224 -9 1180 18 c 128,-1,41
 1136 45 1136 45 1100 86 c 128,-1,42
 1064 127 1064 127 1041 184 c 1,43,44
 994 138 994 138 936.5 98.5 c 128,-1,45
 879 59 879 59 815 29.5 c 128,-1,46
 751 0 751 0 683.5 -16.5 c 128,-1,47
 616 -33 616 -33 549 -33 c 0,48,49
 469 -33 469 -33 394.5 -7 c 128,-1,50
 320 19 320 19 256 79 c 1,51,52
 196 151 196 151 166 224.5 c 128,-1,53
 136 298 136 298 136 370 c 0,54,55
 136 435 136 435 160.5 496 c 128,-1,56
 185 557 185 557 233 611 c 128,-1,57
 281 665 281 665 353 711.5 c 128,-1,58
 425 758 425 758 520 792 c 1,59,60
 431 863 431 863 389 942 c 128,-1,61
 347 1021 347 1021 347 1096 c 0,62,63
 347 1157 347 1157 373.5 1211.5 c 128,-1,64
 400 1266 400 1266 450.5 1307 c 128,-1,65
 501 1348 501 1348 574.5 1372 c 128,-1,66
 648 1396 648 1396 741 1396 c 0,67,68
 824 1396 824 1396 889 1375 c 128,-1,69
 954 1354 954 1354 998 1318.5 c 128,-1,70
 1042 1283 1042 1283 1065 1237 c 128,-1,71
 1088 1191 1088 1191 1088 1141 c 0,72,73
 1088 1104 1088 1104 1075 1067 c 128,-1,74
 1062 1030 1062 1030 1036 994.5 c 128,-1,75
 1010 959 1010 959 969.5 927.5 c 128,-1,76
 929 896 929 896 873 870 c 1,77,78
 910 843 910 843 951 805.5 c 128,-1,79
 992 768 992 768 1034.5 723.5 c 128,-1,80
 1077 679 1077 679 1119.5 628.5 c 128,-1,81
 1162 578 1162 578 1202 524 c 1,82,83
 1234 571 1234 571 1267 628.5 c 128,-1,84
 1300 686 1300 686 1327 740 c 128,-1,85
 1354 794 1354 794 1371.5 837.5 c 128,-1,86
 1389 881 1389 881 1389 899 c 0,87,88
 1389 919 1389 919 1358 929 c 128,-1,89
 1327 939 1327 939 1250 939 c 1,90,-1
 1250 1031 l 1,91,-1
 1725 1031 l 1,92,-1
 1725 939 l 1,93,94
 1710 944 1710 944 1696.5 946 c 128,-1,95
 1683 948 1683 948 1670 948 c 0,96,97
 1619 948 1619 948 1577.5 918.5 c 128,-1,98
 1536 889 1536 889 1501 842 c 128,-1,99
 1466 795 1466 795 1436.5 737 c 128,-1,100
 1407 679 1407 679 1378.5 622 c 128,-1,101
 1350 565 1350 565 1321.5 514.5 c 128,-1,102
 1293 464 1293 464 1260 433 c 1,103,104
 1273 412 1273 412 1290 380 c 128,-1,105
 1307 348 1307 348 1328 313 c 128,-1,106
 1349 278 1349 278 1373.5 243 c 128,-1,107
 1398 208 1398 208 1425 180.5 c 128,-1,108
 1452 153 1452 153 1482 135.5 c 128,-1,109
 1512 118 1512 118 1544 118 c 0,110,111
 1573 118 1573 118 1601.5 133 c 128,-1,112
 1630 148 1630 148 1661 184 c 1,113,-1
 1706 99 l 1,35,36
EndSplineSet
EndChar

StartChar: quotesingle
Encoding: 39 39 10
Width: 672
GlyphClass: 2
Flags: W
LayerCount: 2
Fore
SplineSet
306 745 m 1,0,1
 302 757 302 757 292 793.5 c 128,-1,2
 282 830 282 830 269 878.5 c 128,-1,3
 256 927 256 927 242 981 c 128,-1,4
 228 1035 228 1035 216 1080.5 c 128,-1,5
 204 1126 204 1126 196 1157 c 128,-1,6
 188 1188 188 1188 187 1191 c 0,7,8
 177 1232 177 1232 171 1274 c 128,-1,9
 165 1316 165 1316 164 1342 c 1,10,11
 164 1381 164 1381 176.5 1414 c 128,-1,12
 189 1447 189 1447 211.5 1471.5 c 128,-1,13
 234 1496 234 1496 266.5 1510 c 128,-1,14
 299 1524 299 1524 338 1524 c 0,15,16
 376 1524 376 1524 407.5 1510 c 128,-1,17
 439 1496 439 1496 461.5 1471.5 c 128,-1,18
 484 1447 484 1447 497 1413.5 c 128,-1,19
 510 1380 510 1380 510 1342 c 0,20,21
 510 1306 510 1306 501 1258 c 128,-1,22
 492 1210 492 1210 479 1157 c 128,-1,23
 466 1104 466 1104 450.5 1051 c 128,-1,24
 435 998 435 998 421 952 c 1,25,26
 407 901 407 901 394 847.5 c 128,-1,27
 381 794 381 794 366 745 c 1,28,-1
 306 745 l 1,0,1
EndSplineSet
EndChar

StartChar: parenleft
Encoding: 40 40 11
Width: 810
GlyphClass: 2
Flags: W
LayerCount: 2
Fore
SplineSet
450 562 m 0,0,1
 450 439 450 439 464 304 c 128,-1,2
 478 169 478 169 505 26 c 0,3,4
 518 -41 518 -41 534.5 -108.5 c 128,-1,5
 551 -176 551 -176 569 -240 c 128,-1,6
 587 -304 587 -304 607 -362.5 c 128,-1,7
 627 -421 627 -421 646 -469 c 0,8,9
 652 -483 652 -483 656 -494.5 c 128,-1,10
 660 -506 660 -506 660 -511 c 0,11,12
 660 -532 660 -532 638 -532 c 0,13,14
 613 -532 613 -532 540 -447 c 0,15,16
 446 -338 446 -338 378.5 -242 c 128,-1,17
 311 -146 311 -146 268 -61 c 0,18,19
 110 250 110 250 110 598 c 0,20,21
 110 1092 110 1092 441 1522 c 0,22,23
 473 1563 473 1563 503 1601.5 c 128,-1,24
 533 1640 533 1640 559.5 1670 c 128,-1,25
 586 1700 586 1700 606 1718.5 c 128,-1,26
 626 1737 626 1737 636 1737 c 0,27,28
 655 1737 655 1737 655 1716 c 0,29,30
 655 1709 655 1709 651.5 1700 c 128,-1,31
 648 1691 648 1691 637.5 1662 c 128,-1,32
 627 1633 627 1633 608.5 1575.5 c 128,-1,33
 590 1518 590 1518 560 1413 c 0,34,35
 543 1350 543 1350 527 1274.5 c 128,-1,36
 511 1199 511 1199 497 1117 c 1,37,38
 475 977 475 977 462.5 836 c 128,-1,39
 450 695 450 695 450 562 c 0,0,1
EndSplineSet
Substitution2: "Single Substitution lookup 37 subtable" zerowidthspace
EndChar

StartChar: parenright
Encoding: 41 41 12
Width: 809
GlyphClass: 2
Flags: W
LayerCount: 2
Fore
SplineSet
319 643 m 0,0,1
 319 768 319 768 305 903.5 c 128,-1,2
 291 1039 291 1039 265 1182 c 0,3,4
 239 1323 239 1323 203 1448.5 c 128,-1,5
 167 1574 167 1574 125 1673 c 1,6,7
 110 1711 110 1711 110 1716 c 0,8,9
 110 1737 110 1737 131 1737 c 0,10,11
 154 1737 154 1737 228 1651 c 0,12,13
 325 1539 325 1539 393 1442.5 c 128,-1,14
 461 1346 461 1346 503 1266 c 0,15,16
 582 1112 582 1112 620.5 948.5 c 128,-1,17
 659 785 659 785 659 607 c 0,18,19
 659 364 659 364 572 129.5 c 128,-1,20
 485 -105 485 -105 327 -317 c 0,21,22
 291 -365 291 -365 249.5 -415.5 c 128,-1,23
 208 -466 208 -466 166 -514 c 1,24,25
 144 -532 144 -532 133 -532 c 0,26,27
 114 -532 114 -532 114 -511 c 1,28,29
 113 -509 113 -509 117.5 -496 c 128,-1,30
 122 -483 122 -483 127 -469 c 2,31,-1
 152 -394 l 2,32,33
 162 -365 162 -365 176.5 -318.5 c 128,-1,34
 191 -272 191 -272 208 -208 c 0,35,36
 225 -145 225 -145 241.5 -70 c 128,-1,37
 258 5 258 5 272 88 c 0,38,39
 295 228 295 228 307 369.5 c 128,-1,40
 319 511 319 511 319 643 c 0,0,1
EndSplineSet
Substitution2: "Single Substitution lookup 37 subtable" zerowidthspace
EndChar

StartChar: asterisk
Encoding: 42 42 13
Width: 795
GlyphClass: 2
Flags: W
LayerCount: 2
Fore
SplineSet
442 1135 m 0,0,1
 442 1178 442 1178 399 1178 c 256,2,3
 356 1178 356 1178 356 1135 c 0,4,5
 356 1096 356 1096 399 1096 c 256,6,7
 442 1096 442 1096 442 1135 c 0,0,1
759 1139 m 0,8,9
 759 1085 759 1085 689 1085 c 0,10,11
 684 1085 684 1085 664 1088.5 c 128,-1,12
 644 1092 644 1092 615 1097.5 c 128,-1,13
 586 1103 586 1103 551.5 1109 c 128,-1,14
 517 1115 517 1115 482 1121 c 1,15,16
 480 1113 480 1113 477 1105 c 128,-1,17
 474 1097 474 1097 471 1089 c 1,18,-1
 547 1036 l 2,19,20
 559 1028 559 1028 579 1015 c 128,-1,21
 599 1002 599 1002 618.5 986 c 128,-1,22
 638 970 638 970 652 951.5 c 128,-1,23
 666 933 666 933 666 915 c 0,24,25
 666 898 666 898 652 882 c 128,-1,26
 638 866 638 866 617 866 c 0,27,28
 593 866 593 866 565 892 c 0,29,30
 561 897 561 897 543.5 922 c 128,-1,31
 526 947 526 947 499 985 c 2,32,-1
 444 1064 l 2,33,34
 443 1064 443 1064 436.5 1059 c 128,-1,35
 430 1054 430 1054 414 1049 c 1,36,37
 420 1011 420 1011 427 976 c 128,-1,38
 434 941 434 941 439 913 c 128,-1,39
 444 885 444 885 447.5 867 c 128,-1,40
 451 849 451 849 451 845 c 0,41,42
 451 777 451 777 395 777 c 0,43,44
 343 777 343 777 343 843 c 0,45,46
 343 860 343 860 348 890 c 128,-1,47
 353 920 353 920 361 957 c 1,48,-1
 385 1049 l 1,49,50
 375 1052 375 1052 366 1055 c 128,-1,51
 357 1058 357 1058 351 1063 c 1,52,53
 337 1044 337 1044 324.5 1025.5 c 128,-1,54
 312 1007 312 1007 297.5 987 c 128,-1,55
 283 967 283 967 266.5 944 c 128,-1,56
 250 921 250 921 229 892 c 1,57,58
 202 865 202 865 175 865 c 0,59,60
 167 865 167 865 158 869 c 128,-1,61
 149 873 149 873 141.5 880 c 128,-1,62
 134 887 134 887 129 896.5 c 128,-1,63
 124 906 124 906 124 916 c 0,64,65
 124 928 124 928 129.5 939.5 c 128,-1,66
 135 951 135 951 148.5 963.5 c 128,-1,67
 162 976 162 976 185 992.5 c 128,-1,68
 208 1009 208 1009 242 1032 c 2,69,-1
 327 1088 l 1,70,71
 322 1095 322 1095 318 1104 c 128,-1,72
 314 1113 314 1113 311 1121 c 1,73,74
 278 1115 278 1115 245 1109 c 128,-1,75
 212 1103 212 1103 184.5 1097.5 c 128,-1,76
 157 1092 157 1092 136.5 1088.5 c 128,-1,77
 116 1085 116 1085 108 1085 c 0,78,79
 41 1085 41 1085 41 1139 c 0,80,81
 41 1189 41 1189 106 1189 c 0,82,83
 119 1189 119 1189 141.5 1186 c 128,-1,84
 164 1183 164 1183 192 1177.5 c 128,-1,85
 220 1172 220 1172 250.5 1165.5 c 128,-1,86
 281 1159 281 1159 311 1153 c 1,87,88
 314 1161 314 1161 318 1169 c 128,-1,89
 322 1177 322 1177 326 1181 c 1,90,91
 280 1208 280 1208 236.5 1242 c 128,-1,92
 193 1276 193 1276 151 1306 c 1,93,94
 140 1317 140 1317 132.5 1330.5 c 128,-1,95
 125 1344 125 1344 125 1355 c 0,96,97
 125 1376 125 1376 142 1391 c 128,-1,98
 159 1406 159 1406 176 1406 c 256,99,100
 193 1406 193 1406 206 1397 c 128,-1,101
 219 1388 219 1388 232.5 1372 c 128,-1,102
 246 1356 246 1356 261 1334 c 128,-1,103
 276 1312 276 1312 295 1286 c 2,104,-1
 350 1210 l 1,105,106
 366 1216 366 1216 385 1221 c 1,107,108
 377 1253 377 1253 369.5 1284 c 128,-1,109
 362 1315 362 1315 356 1343 c 128,-1,110
 350 1371 350 1371 346.5 1393.5 c 128,-1,111
 343 1416 343 1416 343 1430 c 0,112,113
 343 1496 343 1496 395 1496 c 0,114,115
 451 1496 451 1496 451 1423 c 1,116,117
 446 1372 446 1372 435 1319.5 c 128,-1,118
 424 1267 424 1267 414 1218 c 1,119,120
 418 1217 418 1217 422 1215 c 0,121,122
 428 1213 428 1213 444 1209 c 1,123,-1
 464 1239 l 2,124,125
 474 1253 474 1253 484 1267.5 c 128,-1,126
 494 1282 494 1282 505.5 1299 c 128,-1,127
 517 1316 517 1316 531.5 1336 c 128,-1,128
 546 1356 546 1356 565 1381 c 1,129,130
 591 1404 591 1404 615 1404 c 0,131,132
 637 1404 637 1404 651.5 1389 c 128,-1,133
 666 1374 666 1374 666 1353 c 0,134,135
 666 1328 666 1328 639 1301 c 0,136,137
 638 1299 638 1299 622 1287.5 c 128,-1,138
 606 1276 606 1276 582 1259 c 128,-1,139
 558 1242 558 1242 528 1221.5 c 128,-1,140
 498 1201 498 1201 469 1181 c 0,141,142
 468 1181 468 1181 472 1175 c 1,143,-1
 472 1176 l 1,144,145
 474 1174 474 1174 477 1168 c 128,-1,146
 480 1162 480 1162 485 1153 c 1,147,148
 514 1159 514 1159 545 1165.5 c 128,-1,149
 576 1172 576 1172 604.5 1177.5 c 128,-1,150
 633 1183 633 1183 656.5 1186 c 128,-1,151
 680 1189 680 1189 693 1189 c 0,152,153
 759 1189 759 1189 759 1139 c 0,8,9
EndSplineSet
EndChar

StartChar: plus
Encoding: 43 43 14
Width: 1200
GlyphClass: 2
Flags: W
LayerCount: 2
Fore
SplineSet
1053 356 m 1,0,-1
 701 356 l 1,1,-1
 701 0 l 1,2,-1
 516 0 l 1,3,-1
 516 356 l 1,4,-1
 158 356 l 1,5,-1
 158 538 l 1,6,-1
 516 538 l 1,7,-1
 516 900 l 1,8,-1
 701 900 l 1,9,-1
 701 538 l 1,10,-1
 1053 538 l 1,11,-1
 1053 356 l 1,0,-1
EndSplineSet
EndChar

StartChar: comma
Encoding: 44 44 15
Width: 666
GlyphClass: 2
Flags: W
LayerCount: 2
Fore
SplineSet
444 -50 m 0,0,1
 444 -150 444 -150 390 -246 c 128,-1,2
 336 -342 336 -342 228 -430 c 1,3,4
 222 -424 222 -424 215 -418.5 c 128,-1,5
 208 -413 208 -413 200 -406 c 2,6,-1
 184 -394 l 1,7,8
 229 -346 229 -346 258.5 -313.5 c 128,-1,9
 288 -281 288 -281 298 -264 c 0,10,11
 317 -232 317 -232 329 -190 c 128,-1,12
 341 -148 341 -148 343 -108 c 1,13,14
 276 -101 276 -101 238 -70.5 c 128,-1,15
 200 -40 200 -40 200 12 c 0,16,17
 200 36 200 36 209 56 c 128,-1,18
 218 76 218 76 233 90.5 c 128,-1,19
 248 105 248 105 269 113.5 c 128,-1,20
 290 122 290 122 314 122 c 0,21,22
 341 122 341 122 365 108.5 c 128,-1,23
 389 95 389 95 406.5 71.5 c 128,-1,24
 424 48 424 48 434 16.5 c 128,-1,25
 444 -15 444 -15 444 -50 c 0,0,1
EndSplineSet
EndChar

StartChar: hyphen
Encoding: 45 45 16
AltUni2: 0000ad.ffffffff.0 002212.ffffffff.0
Width: 1200
GlyphClass: 2
Flags: W
LayerCount: 2
Fore
SplineSet
1053 356 m 1,0,-1
 158 356 l 1,1,-1
 158 538 l 1,2,-1
 1053 538 l 1,3,-1
 1053 356 l 1,0,-1
EndSplineSet
Substitution2: "<17011,16011>  in Arabic lookup 108 nested-substitutions 0 subtable" hyphenlow
Substitution2: "<17010,16010>  in Arabic lookup 106 nested-substitutions 0 subtable" hyphenlow
Substitution2: "Single Substitution lookup 37 subtable" hyphenlow
EndChar

StartChar: period
Encoding: 46 46 17
Width: 703
GlyphClass: 2
Flags: W
LayerCount: 2
Fore
SplineSet
503 287 m 1,0,-1
 366 74 l 1,1,-1
 110 294 l 1,2,-1
 254 509 l 1,3,-1
 503 287 l 1,0,-1
EndSplineSet
Substitution2: "<17016,16016> Urdu Swash lookup 115 subtable" uni06D4
Substitution2: "<17012,16012> Period to Comma in Arabic lookup 110 nested-substitutions 0 subtable" uni066C
Substitution2: "Single Substitution lookup 37 subtable" uni066C
EndChar

StartChar: slash
Encoding: 47 47 18
Width: 666
GlyphClass: 2
Flags: W
LayerCount: 2
Fore
SplineSet
594 1515 m 1,0,1
 586 1481 586 1481 569.5 1414 c 128,-1,2
 553 1347 553 1347 531.5 1256.5 c 128,-1,3
 510 1166 510 1166 483.5 1056.5 c 128,-1,4
 457 947 457 947 428.5 829 c 128,-1,5
 400 711 400 711 370.5 588.5 c 128,-1,6
 341 466 341 466 312.5 348.5 c 128,-1,7
 284 231 284 231 258 124 c 128,-1,8
 232 17 232 17 211 -70 c 128,-1,9
 190 -157 190 -157 175 -220 c 128,-1,10
 160 -283 160 -283 153 -312 c 1,11,-1
 75 -312 l 1,12,13
 76 -307 76 -307 88.5 -255.5 c 128,-1,14
 101 -204 101 -204 122 -118.5 c 128,-1,15
 143 -33 143 -33 170 80 c 128,-1,16
 197 193 197 193 227.5 319.5 c 128,-1,17
 258 446 258 446 290.5 580.5 c 128,-1,18
 323 715 323 715 354 843.5 c 128,-1,19
 385 972 385 972 413 1088 c 128,-1,20
 441 1204 441 1204 463 1294.5 c 128,-1,21
 485 1385 485 1385 499 1443.5 c 128,-1,22
 513 1502 513 1502 516 1515 c 1,23,-1
 594 1515 l 1,0,1
EndSplineSet
Substitution2: "<17016,16016> Urdu Swash lookup 115 subtable" slash
EndChar

StartChar: zero
Encoding: 48 48 19
Width: 1200
GlyphClass: 2
Flags: W
LayerCount: 2
Fore
SplineSet
415 452 m 2,0,1
 415 344 415 344 426.5 268.5 c 128,-1,2
 438 193 438 193 461.5 145.5 c 128,-1,3
 485 98 485 98 520.5 76.5 c 128,-1,4
 556 55 556 55 604 55 c 0,5,6
 668 55 668 55 711.5 98.5 c 128,-1,7
 755 142 755 142 777 221 c 1,8,9
 785 260 785 260 790 328 c 128,-1,10
 795 396 795 396 795 491 c 2,11,-1
 795 1018 l 2,12,13
 795 1436 795 1436 608 1436 c 0,14,15
 504 1436 504 1436 459.5 1348 c 128,-1,16
 415 1260 415 1260 415 1074 c 2,17,-1
 415 452 l 2,0,1
110 744 m 0,18,19
 110 919 110 919 146.5 1062.5 c 128,-1,20
 183 1206 183 1206 248.5 1308.5 c 128,-1,21
 314 1411 314 1411 405.5 1467.5 c 128,-1,22
 497 1524 497 1524 606 1524 c 0,23,24
 710 1524 710 1524 800.5 1472 c 128,-1,25
 891 1420 891 1420 958 1320.5 c 128,-1,26
 1025 1221 1025 1221 1063 1076 c 128,-1,27
 1101 931 1101 931 1101 744 c 0,28,29
 1101 487 1101 487 1034 311.5 c 128,-1,30
 967 136 967 136 837 45 c 0,31,32
 724 -35 724 -35 606 -35 c 0,33,34
 313 -35 313 -35 178 318 c 0,35,36
 110 496 110 496 110 744 c 0,18,19
EndSplineSet
Substitution2: "<17016,16016> Urdu Swash lookup 115 subtable" zero
EndChar

StartChar: one
Encoding: 49 49 20
Width: 1200
GlyphClass: 2
Flags: W
LayerCount: 2
Fore
SplineSet
789 1524 m 1,0,-1
 789 188 l 2,1,2
 789 80 789 80 876 80 c 2,3,-1
 1029 80 l 1,4,-1
 1029 0 l 1,5,-1
 268 0 l 1,6,-1
 268 80 l 1,7,-1
 413 80 l 2,8,9
 496 80 496 80 496 179 c 2,10,-1
 496 1223 l 1,11,12
 437 1185 437 1185 364.5 1153.5 c 128,-1,13
 292 1122 292 1122 215 1098 c 1,14,-1
 211 1107 l 2,15,16
 204 1121 204 1121 196 1137.5 c 128,-1,17
 188 1154 188 1154 183 1168 c 1,18,19
 318 1235 318 1235 438.5 1326.5 c 128,-1,20
 559 1418 559 1418 653 1524 c 1,21,-1
 789 1524 l 1,0,-1
EndSplineSet
Substitution2: "<17016,16016> Urdu Swash lookup 115 subtable" one
EndChar

StartChar: two
Encoding: 50 50 21
Width: 1200
GlyphClass: 2
Flags: W
LayerCount: 2
Fore
SplineSet
116 0 m 1,0,-1
 116 83 l 1,1,-1
 450 453 l 2,2,3
 551 565 551 565 619 664.5 c 128,-1,4
 687 764 687 764 716 834 c 1,5,6
 730 875 730 875 738.5 921.5 c 128,-1,7
 747 968 747 968 747 1015 c 0,8,9
 747 1084 747 1084 730.5 1141 c 128,-1,10
 714 1198 714 1198 682.5 1239 c 128,-1,11
 651 1280 651 1280 606.5 1303 c 128,-1,12
 562 1326 562 1326 505 1326 c 0,13,14
 456 1326 456 1326 411.5 1305.5 c 128,-1,15
 367 1285 367 1285 331 1249 c 128,-1,16
 295 1213 295 1213 269.5 1164 c 128,-1,17
 244 1115 244 1115 232 1059 c 1,18,-1
 141 1059 l 1,19,20
 154 1157 154 1157 192.5 1242 c 128,-1,21
 231 1327 231 1327 292.5 1389.5 c 128,-1,22
 354 1452 354 1452 435.5 1488 c 128,-1,23
 517 1524 517 1524 616 1524 c 0,24,25
 701 1524 701 1524 777 1494.5 c 128,-1,26
 853 1465 853 1465 910.5 1409.5 c 128,-1,27
 968 1354 968 1354 1002 1275 c 128,-1,28
 1036 1196 1036 1196 1036 1098 c 0,29,30
 1036 1035 1036 1035 1021.5 977.5 c 128,-1,31
 1007 920 1007 920 980 870 c 0,32,33
 959 831 959 831 919.5 782.5 c 128,-1,34
 880 734 880 734 832 685 c 1,35,36
 755 615 755 615 646 506 c 128,-1,37
 537 397 537 397 393 248 c 1,38,-1
 845 248 l 2,39,40
 887 248 887 248 920.5 261.5 c 128,-1,41
 954 275 954 275 974 297 c 1,42,43
 988 317 988 317 999.5 352.5 c 128,-1,44
 1011 388 1011 388 1018 433 c 1,45,-1
 1096 433 l 1,46,47
 1095 421 1095 421 1091 387 c 128,-1,48
 1087 353 1087 353 1082 307.5 c 128,-1,49
 1077 262 1077 262 1071.5 212 c 128,-1,50
 1066 162 1066 162 1061.5 117.5 c 128,-1,51
 1057 73 1057 73 1053 41 c 128,-1,52
 1049 9 1049 9 1048 0 c 1,53,-1
 116 0 l 1,0,-1
EndSplineSet
Substitution2: "<17016,16016> Urdu Swash lookup 115 subtable" two
EndChar

StartChar: three
Encoding: 51 51 22
Width: 1200
GlyphClass: 2
Flags: W
LayerCount: 2
Fore
SplineSet
431 796 m 1,0,1
 551 893 551 893 615 985 c 128,-1,2
 679 1077 679 1077 679 1157 c 0,3,4
 679 1195 679 1195 666.5 1228 c 128,-1,5
 654 1261 654 1261 631.5 1286 c 128,-1,6
 609 1311 609 1311 577.5 1325 c 128,-1,7
 546 1339 546 1339 508 1339 c 0,8,9
 441 1339 441 1339 384.5 1294.5 c 128,-1,10
 328 1250 328 1250 281 1164 c 1,11,12
 266 1171 266 1171 247 1180 c 128,-1,13
 228 1189 228 1189 210 1195 c 1,14,15
 270 1356 270 1356 376 1440 c 128,-1,16
 482 1524 482 1524 636 1524 c 0,17,18
 699 1524 699 1524 757 1506 c 128,-1,19
 815 1488 815 1488 860 1454.5 c 128,-1,20
 905 1421 905 1421 932 1372 c 128,-1,21
 959 1323 959 1323 959 1260 c 0,22,23
 959 1163 959 1163 895.5 1080 c 128,-1,24
 832 997 832 997 707 926 c 1,25,-1
 713 920 l 1,26,27
 750 920 750 920 787.5 912.5 c 128,-1,28
 825 905 825 905 860 890 c 128,-1,29
 895 875 895 875 926 853 c 128,-1,30
 957 831 957 831 981 803 c 1,31,32
 1026 746 1026 746 1050 674.5 c 128,-1,33
 1074 603 1074 603 1074 520 c 0,34,35
 1074 402 1074 402 1028 300 c 128,-1,36
 982 198 982 198 902 123 c 128,-1,37
 822 48 822 48 714 5.5 c 128,-1,38
 606 -37 606 -37 482 -37 c 0,39,40
 414 -37 414 -37 351 -23 c 128,-1,41
 288 -9 288 -9 240 17.5 c 128,-1,42
 192 44 192 44 163.5 81.5 c 128,-1,43
 135 119 135 119 135 165 c 0,44,45
 135 192 135 192 144.5 215 c 128,-1,46
 154 238 154 238 171.5 254.5 c 128,-1,47
 189 271 189 271 212 280 c 128,-1,48
 235 289 235 289 262 289 c 0,49,50
 347 289 347 289 420 183 c 0,51,52
 494 76 494 76 583 76 c 0,53,54
 631 76 631 76 669.5 101 c 128,-1,55
 708 126 708 126 735 169.5 c 128,-1,56
 762 213 762 213 776.5 272.5 c 128,-1,57
 791 332 791 332 791 402 c 0,58,59
 791 475 791 475 774.5 537.5 c 128,-1,60
 758 600 758 600 727 646 c 128,-1,61
 696 692 696 692 651.5 718 c 128,-1,62
 607 744 607 744 550 744 c 0,63,64
 534 744 534 744 514 739.5 c 128,-1,65
 494 735 494 735 472 727 c 1,66,-1
 431 796 l 1,0,1
EndSplineSet
Substitution2: "<17016,16016> Urdu Swash lookup 115 subtable" three
EndChar

StartChar: four
Encoding: 52 52 23
Width: 1200
GlyphClass: 2
Flags: W
LayerCount: 2
Fore
SplineSet
617 530 m 1,0,1
 617 598 617 598 616.5 670 c 128,-1,2
 616 742 616 742 615 815.5 c 128,-1,3
 614 889 614 889 613.5 961 c 128,-1,4
 613 1033 613 1033 613 1100 c 1,5,6
 519 957 519 957 427.5 815.5 c 128,-1,7
 336 674 336 674 242 530 c 1,8,-1
 617 530 l 1,0,1
617 -37 m 1,9,-1
 617 373 l 1,10,-1
 98 373 l 1,11,-1
 98 481 l 1,12,13
 114 505 114 505 149 558.5 c 128,-1,14
 184 612 184 612 231.5 684.5 c 128,-1,15
 279 757 279 757 335.5 842.5 c 128,-1,16
 392 928 392 928 449 1015.5 c 128,-1,17
 506 1103 506 1103 561 1186.5 c 128,-1,18
 616 1270 616 1270 661.5 1339.5 c 128,-1,19
 707 1409 707 1409 739 1458 c 128,-1,20
 771 1507 771 1507 782 1524 c 1,21,-1
 910 1524 l 1,22,-1
 910 530 l 1,23,-1
 1112 530 l 1,24,-1
 1112 373 l 1,25,-1
 910 373 l 1,26,-1
 910 -37 l 1,27,-1
 617 -37 l 1,9,-1
EndSplineSet
Substitution2: "<17016,16016> Urdu Swash lookup 115 subtable" four
EndChar

StartChar: five
Encoding: 53 53 24
Width: 1200
GlyphClass: 2
Flags: W
LayerCount: 2
Fore
SplineSet
241 725 m 1,0,1
 242 742 242 742 243 780 c 128,-1,2
 244 818 244 818 246 869.5 c 128,-1,3
 248 921 248 921 250 982 c 128,-1,4
 252 1043 252 1043 254 1106 c 128,-1,5
 256 1169 256 1169 258 1230 c 128,-1,6
 260 1291 260 1291 262 1342.5 c 128,-1,7
 264 1394 264 1394 265 1432 c 128,-1,8
 266 1470 266 1470 267 1487 c 1,9,-1
 800 1487 l 2,10,11
 834 1487 834 1487 856 1498 c 128,-1,12
 878 1509 878 1509 887 1528 c 1,13,-1
 966 1528 l 1,14,15
 958 1464 958 1464 946.5 1390.5 c 128,-1,16
 935 1317 935 1317 925 1252 c 1,17,-1
 358 1252 l 1,18,19
 354 1182 354 1182 351 1109 c 128,-1,20
 348 1036 348 1036 344 966 c 1,21,22
 395 979 395 979 445 986.5 c 128,-1,23
 495 994 495 994 540 994 c 0,24,25
 651 994 651 994 747 959 c 128,-1,26
 843 924 843 924 913.5 858.5 c 128,-1,27
 984 793 984 793 1024 700.5 c 128,-1,28
 1064 608 1064 608 1064 493 c 0,29,30
 1064 336 1064 336 992 221.5 c 128,-1,31
 920 107 920 107 780 34 c 0,32,33
 715 0 715 0 637.5 -18.5 c 128,-1,34
 560 -37 560 -37 481 -37 c 0,35,36
 415 -37 415 -37 354.5 -23 c 128,-1,37
 294 -9 294 -9 247.5 17 c 128,-1,38
 201 43 201 43 173 79 c 128,-1,39
 145 115 145 115 145 158 c 0,40,41
 145 278 145 278 270 278 c 0,42,43
 354 278 354 278 425 171 c 1,44,45
 493 66 493 66 561 66 c 0,46,47
 607 66 607 66 647.5 89.5 c 128,-1,48
 688 113 688 113 718 155 c 128,-1,49
 748 197 748 197 765.5 255.5 c 128,-1,50
 783 314 783 314 783 384 c 0,51,52
 783 462 783 462 763 526.5 c 128,-1,53
 743 591 743 591 705.5 638 c 128,-1,54
 668 685 668 685 615 711 c 128,-1,55
 562 737 562 737 496 737 c 0,56,57
 450 737 450 737 402.5 724 c 128,-1,58
 355 711 355 711 310 689 c 1,59,-1
 241 725 l 1,0,1
EndSplineSet
Substitution2: "<17016,16016> Urdu Swash lookup 115 subtable" five
EndChar

StartChar: six
Encoding: 54 54 25
Width: 1200
GlyphClass: 2
Flags: W
LayerCount: 2
Fore
SplineSet
795 443 m 0,0,1
 795 545 795 545 785 615 c 128,-1,2
 775 685 775 685 754 728.5 c 128,-1,3
 733 772 733 772 699 791 c 128,-1,4
 665 810 665 810 617 810 c 0,5,6
 532 810 532 810 428 733 c 1,7,-1
 428 734 l 1,8,9
 420 686 420 686 417 628.5 c 128,-1,10
 414 571 414 571 414 503 c 0,11,12
 414 55 414 55 613 55 c 0,13,14
 675 55 675 55 715.5 92 c 128,-1,15
 756 129 756 129 776 197 c 0,16,17
 786 232 786 232 790.5 294 c 128,-1,18
 795 356 795 356 795 443 c 0,0,1
969 1451 m 1,19,20
 748 1376 748 1376 619 1224 c 128,-1,21
 490 1072 490 1072 450 842 c 1,22,23
 513 884 513 884 573 905 c 128,-1,24
 633 926 633 926 694 926 c 0,25,26
 781 926 781 926 855.5 896 c 128,-1,27
 930 866 930 866 984.5 807.5 c 128,-1,28
 1039 749 1039 749 1070 664.5 c 128,-1,29
 1101 580 1101 580 1101 470 c 0,30,31
 1101 167 1101 167 869 32 c 1,32,-1
 870 32 l 1,33,34
 760 -35 760 -35 625 -35 c 0,35,36
 509 -35 509 -35 413.5 12 c 128,-1,37
 318 59 318 59 250.5 143 c 128,-1,38
 183 227 183 227 146 342 c 128,-1,39
 109 457 109 457 109 593 c 0,40,41
 109 766 109 766 166.5 919.5 c 128,-1,42
 224 1073 224 1073 330 1198 c 1,43,44
 439 1318 439 1318 591 1403 c 128,-1,45
 743 1488 743 1488 923 1526 c 1,46,-1
 969 1451 l 1,19,20
EndSplineSet
Substitution2: "<17016,16016> Urdu Swash lookup 115 subtable" six
EndChar

StartChar: seven
Encoding: 55 55 26
Width: 1200
GlyphClass: 2
Flags: W
LayerCount: 2
Fore
SplineSet
318 -37 m 1,0,-1
 857 1219 l 1,1,-1
 377 1219 l 2,2,3
 323 1219 323 1219 287.5 1213 c 128,-1,4
 252 1207 252 1207 238 1196 c 256,5,6
 224 1185 224 1185 211.5 1153 c 128,-1,7
 199 1121 199 1121 189 1074 c 1,8,-1
 105 1074 l 1,9,10
 106 1085 106 1085 108.5 1117 c 128,-1,11
 111 1149 111 1149 114 1191 c 128,-1,12
 117 1233 117 1233 121 1280.5 c 128,-1,13
 125 1328 125 1328 128 1370.5 c 128,-1,14
 131 1413 131 1413 133.5 1444.5 c 128,-1,15
 136 1476 136 1476 136 1487 c 1,16,-1
 1106 1487 l 1,17,-1
 1106 1392 l 1,18,19
 1095 1364 1095 1364 1068.5 1295.5 c 128,-1,20
 1042 1227 1042 1227 1005.5 1132 c 128,-1,21
 969 1037 969 1037 925 922.5 c 128,-1,22
 881 808 881 808 835.5 689.5 c 128,-1,23
 790 571 790 571 745.5 455.5 c 128,-1,24
 701 340 701 340 663 242 c 128,-1,25
 625 144 625 144 597 70.5 c 128,-1,26
 569 -3 569 -3 556 -37 c 1,27,-1
 318 -37 l 1,0,-1
EndSplineSet
Substitution2: "<17016,16016> Urdu Swash lookup 115 subtable" seven
EndChar

StartChar: eight
Encoding: 56 56 27
Width: 1200
GlyphClass: 2
Flags: W
LayerCount: 2
Fore
SplineSet
823 1162 m 0,0,1
 823 1436 823 1436 591 1436 c 0,2,3
 545 1436 545 1436 506 1421 c 128,-1,4
 467 1406 467 1406 438.5 1379 c 128,-1,5
 410 1352 410 1352 393.5 1314 c 128,-1,6
 377 1276 377 1276 377 1229 c 0,7,8
 377 1169 377 1169 415 1108.5 c 128,-1,9
 453 1048 453 1048 515 998 c 1,10,11
 549 973 549 973 598 942.5 c 128,-1,12
 647 912 647 912 703 884 c 1,13,14
 760 934 760 934 791.5 1004 c 128,-1,15
 823 1074 823 1074 823 1162 c 0,0,1
855 292 m 0,16,17
 855 367 855 367 818.5 427.5 c 128,-1,18
 782 488 782 488 713 537 c 0,19,20
 684 557 684 557 629.5 587.5 c 128,-1,21
 575 618 575 618 496 662 c 1,22,23
 435 611 435 611 401 537.5 c 128,-1,24
 367 464 367 464 367 370 c 0,25,26
 367 300 367 300 384 242 c 128,-1,27
 401 184 401 184 432.5 142 c 128,-1,28
 464 100 464 100 509 76.5 c 128,-1,29
 554 53 554 53 611 53 c 0,30,31
 664 53 664 53 708.5 70.5 c 128,-1,32
 753 88 753 88 785.5 120 c 128,-1,33
 818 152 818 152 836.5 196 c 128,-1,34
 855 240 855 240 855 292 c 0,16,17
1057 1164 m 0,35,36
 1057 957 1057 957 774 835 c 1,37,38
 985 724 985 724 1057 573 c 0,39,40
 1074 537 1074 537 1082 495 c 128,-1,41
 1090 453 1090 453 1091 408 c 1,42,43
 1091 325 1091 325 1055 245 c 128,-1,44
 1019 165 1019 165 954 102.5 c 128,-1,45
 889 40 889 40 798.5 1.5 c 128,-1,46
 708 -37 708 -37 598 -37 c 0,47,48
 538 -37 538 -37 479 -24 c 128,-1,49
 420 -11 420 -11 367 13.5 c 128,-1,50
 314 38 314 38 268 73 c 128,-1,51
 222 108 222 108 189 152.5 c 128,-1,52
 156 197 156 197 137 249.5 c 128,-1,53
 118 302 118 302 118 362 c 0,54,55
 118 595 118 595 407 714 c 1,56,57
 322 779 322 779 261.5 845 c 128,-1,58
 201 911 201 911 174 970 c 0,59,60
 143 1037 143 1037 143 1119 c 0,61,62
 143 1200 143 1200 177 1273.5 c 128,-1,63
 211 1347 211 1347 272 1402.5 c 128,-1,64
 333 1458 333 1458 417 1491 c 128,-1,65
 501 1524 501 1524 601 1524 c 0,66,67
 789 1524 789 1524 923 1417 c 256,68,69
 1057 1310 1057 1310 1057 1164 c 0,35,36
EndSplineSet
Substitution2: "<17016,16016> Urdu Swash lookup 115 subtable" eight
EndChar

StartChar: nine
Encoding: 57 57 28
Width: 1200
GlyphClass: 2
Flags: W
LayerCount: 2
Fore
SplineSet
411 1064 m 0,0,1
 411 865 411 865 450 773.5 c 128,-1,2
 489 682 489 682 581 682 c 0,3,4
 672 682 672 682 779 755 c 1,5,-1
 779 754 l 1,6,7
 788 832 788 832 792 895 c 128,-1,8
 796 958 796 958 796 1007 c 0,9,10
 796 1436 796 1436 591 1436 c 0,11,12
 473 1436 473 1436 432 1298 c 0,13,14
 411 1225 411 1225 411 1064 c 0,0,1
232 44 m 1,15,16
 377 90 377 90 486 179.5 c 128,-1,17
 595 269 595 269 666 392 c 1,18,19
 697 448 697 448 720.5 514 c 128,-1,20
 744 580 744 580 760 649 c 1,21,22
 627 569 627 569 515 569 c 0,23,24
 430 569 430 569 355.5 602 c 128,-1,25
 281 635 281 635 225.5 694 c 128,-1,26
 170 753 170 753 138.5 836.5 c 128,-1,27
 107 920 107 920 107 1020 c 0,28,29
 107 1122 107 1122 141.5 1213.5 c 128,-1,30
 176 1305 176 1305 239 1374 c 128,-1,31
 302 1443 302 1443 390.5 1483.5 c 128,-1,32
 479 1524 479 1524 586 1524 c 0,33,34
 707 1524 707 1524 803 1477.5 c 128,-1,35
 899 1431 899 1431 965.5 1346.5 c 128,-1,36
 1032 1262 1032 1262 1067 1144 c 128,-1,37
 1102 1026 1102 1026 1102 884 c 0,38,39
 1102 758 1102 758 1069.5 640.5 c 128,-1,40
 1037 523 1037 523 974 417 c 1,41,42
 913 320 913 320 821.5 234 c 128,-1,43
 730 148 730 148 624 87 c 1,44,45
 551 48 551 48 463.5 15 c 128,-1,46
 376 -18 376 -18 288 -37 c 1,47,-1
 232 44 l 1,15,16
EndSplineSet
Substitution2: "<17016,16016> Urdu Swash lookup 115 subtable" nine
EndChar

StartChar: colon
Encoding: 58 58 29
Width: 703
GlyphClass: 2
Flags: W
LayerCount: 2
Fore
SplineSet
503 300 m 1,0,-1
 366 89 l 1,1,-1
 110 308 l 1,2,-1
 254 522 l 1,3,-1
 503 300 l 1,0,-1
503 795 m 1,4,-1
 366 583 l 1,5,-1
 110 802 l 1,6,-1
 254 1018 l 1,7,-1
 503 795 l 1,4,-1
EndSplineSet
Substitution2: "<17016,16016> Urdu Swash lookup 115 subtable" colon
EndChar

StartChar: semicolon
Encoding: 59 59 30
Width: 748
GlyphClass: 2
Flags: W
LayerCount: 2
Fore
SplineSet
382 1003 m 0,0,1
 421 1003 421 1003 456 991 c 128,-1,2
 491 979 491 979 517.5 957.5 c 128,-1,3
 544 936 544 936 559.5 906.5 c 128,-1,4
 575 877 575 877 575 842 c 0,5,6
 575 806 575 806 560 776 c 128,-1,7
 545 746 545 746 518.5 724.5 c 128,-1,8
 492 703 492 703 457 691 c 128,-1,9
 422 679 422 679 382 679 c 0,10,11
 341 679 341 679 305.5 691 c 128,-1,12
 270 703 270 703 243.5 724.5 c 128,-1,13
 217 746 217 746 202 776 c 128,-1,14
 187 806 187 806 187 842 c 0,15,16
 187 877 187 877 202 906 c 128,-1,17
 217 935 217 935 243.5 957 c 128,-1,18
 270 979 270 979 305.5 991 c 128,-1,19
 341 1003 341 1003 382 1003 c 0,0,1
183 -245 m 1,20,21
 237 -242 237 -242 285 -226 c 128,-1,22
 333 -210 333 -210 369 -184.5 c 128,-1,23
 405 -159 405 -159 426 -124.5 c 128,-1,24
 447 -90 447 -90 447 -50 c 0,25,26
 447 -30 447 -30 437 -22 c 128,-1,27
 427 -14 427 -14 409 -14 c 2,28,-1
 399 -14 l 2,29,30
 387 -14 387 -14 373 -17 c 1,31,-1
 333 -20 l 1,32,33
 153 -20 153 -20 153 136 c 0,34,35
 153 174 153 174 167.5 204 c 128,-1,36
 182 234 182 234 206.5 255 c 128,-1,37
 231 276 231 276 265 287 c 128,-1,38
 299 298 299 298 338 298 c 0,39,40
 400 298 400 298 448 278.5 c 128,-1,41
 496 259 496 259 529 222.5 c 128,-1,42
 562 186 562 186 579 135 c 128,-1,43
 596 84 596 84 596 21 c 0,44,45
 596 -62 596 -62 567 -130.5 c 128,-1,46
 538 -199 538 -199 484 -250 c 1,47,48
 430 -297 430 -297 355.5 -322.5 c 128,-1,49
 281 -348 281 -348 202 -349 c 1,50,-1
 183 -245 l 1,20,21
EndSplineSet
Substitution2: "<17016,16016> Urdu Swash lookup 115 subtable" semicolon
EndChar

StartChar: less
Encoding: 60 60 31
Width: 1200
GlyphClass: 2
Flags: W
LayerCount: 2
Fore
SplineSet
1148 -89 m 1,0,-1
 62 373 l 1,1,-1
 62 525 l 1,2,-1
 1148 986 l 1,3,-1
 1148 770 l 1,4,-1
 364 448 l 1,5,6
 472 403 472 403 564 365.5 c 128,-1,7
 656 328 656 328 746.5 290.5 c 128,-1,8
 837 253 837 253 934 213 c 128,-1,9
 1031 173 1031 173 1148 125 c 1,10,-1
 1148 -89 l 1,0,-1
EndSplineSet
Substitution2: "<17016,16016> Urdu Swash lookup 115 subtable" less
EndChar

StartChar: equal
Encoding: 61 61 32
Width: 1200
GlyphClass: 2
Flags: W
LayerCount: 2
Fore
SplineSet
1053 532 m 1,0,-1
 157 532 l 1,1,-1
 157 722 l 1,2,-1
 1053 722 l 1,3,-1
 1053 532 l 1,0,-1
1052 173 m 1,4,-1
 157 173 l 1,5,-1
 157 356 l 1,6,-1
 1052 356 l 1,7,-1
 1052 173 l 1,4,-1
EndSplineSet
Substitution2: "<17016,16016> Urdu Swash lookup 115 subtable" equal
EndChar

StartChar: greater
Encoding: 62 62 33
Width: 1200
GlyphClass: 2
Flags: W
LayerCount: 2
Fore
SplineSet
62 127 m 1,0,1
 148 162 148 162 216 189.5 c 128,-1,2
 284 217 284 217 342 240.5 c 128,-1,3
 400 264 400 264 453.5 286 c 128,-1,4
 507 308 507 308 565.5 331.5 c 128,-1,5
 624 355 624 355 691 383 c 128,-1,6
 758 411 758 411 844 447 c 1,7,8
 649 526 649 526 452.5 608.5 c 128,-1,9
 256 691 256 691 62 769 c 1,10,-1
 62 986 l 1,11,-1
 1148 525 l 1,12,-1
 1148 373 l 1,13,-1
 62 -89 l 1,14,-1
 62 127 l 1,0,1
EndSplineSet
Substitution2: "<17016,16016> Urdu Swash lookup 115 subtable" greater
EndChar

StartChar: question
Encoding: 63 63 34
Width: 873
GlyphClass: 2
Flags: W
LayerCount: 2
Fore
SplineSet
342 298 m 256,0,1
 381 298 381 298 416.5 286.5 c 128,-1,2
 452 275 452 275 478.5 253.5 c 128,-1,3
 505 232 505 232 521 202 c 128,-1,4
 537 172 537 172 537 136 c 0,5,6
 537 102 537 102 522 72.5 c 128,-1,7
 507 43 507 43 481 21 c 128,-1,8
 455 -1 455 -1 419.5 -13 c 128,-1,9
 384 -25 384 -25 342 -25 c 0,10,11
 301 -25 301 -25 266 -13 c 128,-1,12
 231 -1 231 -1 205.5 20.5 c 128,-1,13
 180 42 180 42 165.5 71.5 c 128,-1,14
 151 101 151 101 151 136 c 0,15,16
 151 172 151 172 166 202 c 128,-1,17
 181 232 181 232 207.5 253 c 128,-1,18
 234 274 234 274 268.5 286 c 128,-1,19
 303 298 303 298 342 298 c 256,0,1
272 442 m 1,20,21
 223 525 223 525 197 594 c 128,-1,22
 171 663 171 663 171 714 c 0,23,24
 171 812 171 812 253 867 c 0,25,26
 267 876 267 876 294 886.5 c 128,-1,27
 321 897 321 897 355 908.5 c 128,-1,28
 389 920 389 920 426 931.5 c 128,-1,29
 463 943 463 943 496 954 c 128,-1,30
 529 965 529 965 554.5 974 c 128,-1,31
 580 983 580 983 590 990 c 0,32,33
 632 1016 632 1016 653 1047.5 c 128,-1,34
 674 1079 674 1079 674 1124 c 0,35,36
 674 1156 674 1156 661.5 1183.5 c 128,-1,37
 649 1211 649 1211 628 1231.5 c 128,-1,38
 607 1252 607 1252 578.5 1263.5 c 128,-1,39
 550 1275 550 1275 518 1275 c 0,40,41
 497 1275 497 1275 460 1268.5 c 128,-1,42
 423 1262 423 1262 383.5 1254.5 c 128,-1,43
 344 1247 344 1247 307.5 1240.5 c 128,-1,44
 271 1234 271 1234 250 1234 c 0,45,46
 105 1234 105 1234 105 1361 c 0,47,48
 105 1405 105 1405 124.5 1435.5 c 128,-1,49
 144 1466 144 1466 176.5 1486 c 128,-1,50
 209 1506 209 1506 251.5 1515 c 128,-1,51
 294 1524 294 1524 340 1524 c 0,52,53
 436 1524 436 1524 518 1489 c 128,-1,54
 600 1454 600 1454 661 1390.5 c 128,-1,55
 722 1327 722 1327 756.5 1237.5 c 128,-1,56
 791 1148 791 1148 791 1038 c 0,57,58
 791 902 791 902 730 812.5 c 128,-1,59
 669 723 669 723 552 678 c 1,60,-1
 523 668 l 2,61,62
 483 655 483 655 446 641.5 c 128,-1,63
 409 628 409 628 380.5 614 c 128,-1,64
 352 600 352 600 334.5 586.5 c 128,-1,65
 317 573 317 573 317 560 c 0,66,67
 317 541 317 541 327 511 c 128,-1,68
 337 481 337 481 358 442 c 1,69,-1
 272 442 l 1,20,21
EndSplineSet
Substitution2: "<17016,16016> Urdu Swash lookup 115 subtable" question
EndChar

StartChar: at
Encoding: 64 64 35
Width: 2217
GlyphClass: 2
Flags: W
LayerCount: 2
Fore
SplineSet
1200 1041 m 0,0,1
 1172 1041 1172 1041 1143 1017 c 128,-1,2
 1114 993 1114 993 1086 954.5 c 128,-1,3
 1058 916 1058 916 1033 868 c 128,-1,4
 1008 820 1008 820 986.5 772 c 128,-1,5
 965 724 965 724 948.5 680.5 c 128,-1,6
 932 637 932 637 923 609 c 0,7,8
 916 587 916 587 906 554 c 128,-1,9
 896 521 896 521 887 483 c 128,-1,10
 878 445 878 445 872 405 c 128,-1,11
 866 365 866 365 866 330 c 0,12,13
 866 281 866 281 881.5 248.5 c 128,-1,14
 897 216 897 216 937 216 c 0,15,16
 970 216 970 216 1008 251.5 c 128,-1,17
 1046 287 1046 287 1084.5 345 c 128,-1,18
 1123 403 1123 403 1159 477 c 128,-1,19
 1195 551 1195 551 1223 628.5 c 128,-1,20
 1251 706 1251 706 1267.5 780 c 128,-1,21
 1284 854 1284 854 1284 912 c 256,22,23
 1284 970 1284 970 1264.5 1005.5 c 128,-1,24
 1245 1041 1245 1041 1200 1041 c 0,0,1
1378 1081 m 1,25,26
 1445 1085 1445 1085 1519.5 1087.5 c 128,-1,27
 1594 1090 1594 1090 1661 1092 c 1,28,29
 1652 1044 1652 1044 1630 970 c 128,-1,30
 1608 896 1608 896 1580.5 809.5 c 128,-1,31
 1553 723 1553 723 1523 631 c 128,-1,32
 1493 539 1493 539 1468.5 453.5 c 128,-1,33
 1444 368 1444 368 1428 296 c 128,-1,34
 1412 224 1412 224 1412 179 c 0,35,36
 1412 160 1412 160 1419.5 143 c 128,-1,37
 1427 126 1427 126 1440.5 113.5 c 128,-1,38
 1454 101 1454 101 1471.5 94 c 128,-1,39
 1489 87 1489 87 1508 87 c 0,40,41
 1582 87 1582 87 1648 122.5 c 128,-1,42
 1714 158 1714 158 1770 216 c 128,-1,43
 1826 274 1826 274 1870.5 349.5 c 128,-1,44
 1915 425 1915 425 1946 505.5 c 128,-1,45
 1977 586 1977 586 1993.5 665 c 128,-1,46
 2010 744 2010 744 2010 810 c 0,47,48
 2010 974 2010 974 1954.5 1109.5 c 128,-1,49
 1899 1245 1899 1245 1799.5 1342.5 c 128,-1,50
 1700 1440 1700 1440 1563 1494 c 128,-1,51
 1426 1548 1426 1548 1263 1548 c 0,52,53
 1113 1548 1113 1548 978 1509 c 128,-1,54
 843 1470 843 1470 728.5 1399 c 128,-1,55
 614 1328 614 1328 521.5 1229 c 128,-1,56
 429 1130 429 1130 364.5 1010 c 128,-1,57
 300 890 300 890 265 752.5 c 128,-1,58
 230 615 230 615 230 468 c 0,59,60
 230 337 230 337 261 218 c 128,-1,61
 292 99 292 99 349.5 -3.5 c 128,-1,62
 407 -106 407 -106 489 -188.5 c 128,-1,63
 571 -271 571 -271 672.5 -329.5 c 128,-1,64
 774 -388 774 -388 892.5 -420 c 128,-1,65
 1011 -452 1011 -452 1143 -452 c 0,66,67
 1296 -452 1296 -452 1446 -407.5 c 128,-1,68
 1596 -363 1596 -363 1724.5 -279.5 c 128,-1,69
 1853 -196 1853 -196 1950.5 -76.5 c 128,-1,70
 2048 43 2048 43 2097 193 c 1,71,-1
 2171 193 l 1,72,73
 2104 25 2104 25 2002 -106.5 c 128,-1,74
 1900 -238 1900 -238 1768.5 -329 c 128,-1,75
 1637 -420 1637 -420 1479 -468 c 128,-1,76
 1321 -516 1321 -516 1141 -516 c 0,77,78
 993 -516 993 -516 858.5 -481.5 c 128,-1,79
 724 -447 724 -447 609.5 -382.5 c 128,-1,80
 495 -318 495 -318 402 -226.5 c 128,-1,81
 309 -135 309 -135 244 -21 c 128,-1,82
 179 93 179 93 143.5 227 c 128,-1,83
 108 361 108 361 108 509 c 0,84,85
 108 669 108 669 147 813 c 128,-1,86
 186 957 186 957 258.5 1080.5 c 128,-1,87
 331 1204 331 1204 432.5 1304 c 128,-1,88
 534 1404 534 1404 659.5 1474.5 c 128,-1,89
 785 1545 785 1545 930.5 1583 c 128,-1,90
 1076 1621 1076 1621 1236 1621 c 0,91,92
 1354 1621 1354 1621 1462.5 1596 c 128,-1,93
 1571 1571 1571 1571 1664 1524 c 128,-1,94
 1757 1477 1757 1477 1833 1408.5 c 128,-1,95
 1909 1340 1909 1340 1963 1252 c 128,-1,96
 2017 1164 2017 1164 2046.5 1059 c 128,-1,97
 2076 954 2076 954 2076 833 c 0,98,99
 2076 733 2076 733 2054.5 632 c 128,-1,100
 2033 531 2033 531 1992 438.5 c 128,-1,101
 1951 346 1951 346 1891 266 c 128,-1,102
 1831 186 1831 186 1753 127 c 128,-1,103
 1675 68 1675 68 1580.5 34 c 128,-1,104
 1486 0 1486 0 1376 0 c 0,105,106
 1265 0 1265 0 1202 55.5 c 128,-1,107
 1139 111 1139 111 1139 209 c 0,108,109
 1139 243 1139 243 1146.5 283 c 128,-1,110
 1154 323 1154 323 1166 363 c 1,111,112
 1166 363 1166 363 1162 369 c 1,113,114
 1116 290 1116 290 1075.5 228 c 128,-1,115
 1035 166 1035 166 1003 130 c 0,116,117
 949 67 949 67 886.5 35.5 c 128,-1,118
 824 4 824 4 765 4 c 0,119,120
 725 4 725 4 689 19.5 c 128,-1,121
 653 35 653 35 626.5 67.5 c 128,-1,122
 600 100 600 100 584.5 149 c 128,-1,123
 569 198 569 198 569 264 c 0,124,125
 569 335 569 335 590.5 426.5 c 128,-1,126
 612 518 612 518 651 613.5 c 128,-1,127
 690 709 690 709 744.5 801 c 128,-1,128
 799 893 799 893 865.5 964.5 c 128,-1,129
 932 1036 932 1036 1008.5 1080 c 128,-1,130
 1085 1124 1085 1124 1168 1124 c 0,131,132
 1303 1124 1303 1124 1341 949 c 1,133,-1
 1378 1081 l 1,25,26
EndSplineSet
Substitution2: "<17016,16016> Urdu Swash lookup 115 subtable" at
EndChar

StartChar: A
Encoding: 65 65 36
Width: 1770
GlyphClass: 2
Flags: W
LayerCount: 2
Fore
SplineSet
1003 685 m 1,0,1
 996 704 996 704 979 748 c 128,-1,2
 962 792 962 792 940 848 c 128,-1,3
 918 904 918 904 893.5 966 c 128,-1,4
 869 1028 869 1028 847 1083.5 c 128,-1,5
 825 1139 825 1139 808 1181 c 128,-1,6
 791 1223 791 1223 784 1239 c 1,7,8
 733 1100 733 1100 684 962.5 c 128,-1,9
 635 825 635 825 584 685 c 1,10,-1
 1003 685 l 1,0,1
1059 551 m 1,11,-1
 537 551 l 1,12,13
 514 485 514 485 488 412.5 c 128,-1,14
 462 340 462 340 438 274 c 0,15,16
 419 222 419 222 419 185 c 0,17,18
 419 161 419 161 429 144.5 c 128,-1,19
 439 128 439 128 463 117.5 c 128,-1,20
 487 107 487 107 526.5 102 c 128,-1,21
 566 97 566 97 625 97 c 2,22,-1
 656 97 l 1,23,-1
 656 0 l 1,24,-1
 20 0 l 1,25,-1
 20 97 l 1,26,-1
 58 97 l 2,27,28
 102 97 102 97 136 108.5 c 128,-1,29
 170 120 170 120 197.5 145.5 c 128,-1,30
 225 171 225 171 247.5 212.5 c 128,-1,31
 270 254 270 254 292 314 c 2,32,-1
 699 1452 l 1,33,34
 694 1468 694 1468 687.5 1488 c 128,-1,35
 681 1508 681 1508 674 1524 c 1,36,-1
 1030 1524 l 1,37,-1
 1506 308 l 1,38,39
 1530 251 1530 251 1554 212.5 c 128,-1,40
 1578 174 1578 174 1606 149 c 128,-1,41
 1634 124 1634 124 1667.5 112 c 128,-1,42
 1701 100 1701 100 1746 97 c 1,43,-1
 1746 0 l 1,44,-1
 967 0 l 1,45,-1
 967 97 l 1,46,-1
 1052 97 l 2,47,48
 1155 97 1155 97 1183 140 c 1,49,-1
 1183 139 l 1,50,51
 1188 148 1188 148 1191 158.5 c 128,-1,52
 1194 169 1194 169 1194 183 c 1,53,54
 1192 200 1192 200 1186.5 226 c 128,-1,55
 1181 252 1181 252 1170 277 c 2,56,-1
 1059 551 l 1,11,-1
EndSplineSet
Substitution2: "<17016,16016> Urdu Swash lookup 115 subtable" A
EndChar

StartChar: B
Encoding: 66 66 37
Width: 1670
GlyphClass: 2
Flags: W
LayerCount: 2
Fore
SplineSet
644 893 m 1,0,1
 692 891 692 891 741.5 890 c 128,-1,2
 791 889 791 889 827 889 c 0,3,4
 1125 889 1125 889 1125 1139 c 0,5,6
 1125 1429 1125 1429 769 1429 c 0,7,8
 737 1429 737 1429 705 1427 c 128,-1,9
 673 1425 673 1425 644 1420 c 1,10,-1
 644 893 l 1,0,1
644 325 m 2,11,12
 644 261 644 261 656.5 219.5 c 128,-1,13
 669 178 669 178 695.5 153.5 c 128,-1,14
 722 129 722 129 763 119.5 c 128,-1,15
 804 110 804 110 860 110 c 0,16,17
 1192 110 1192 110 1192 441 c 0,18,19
 1192 525 1192 525 1166 591 c 128,-1,20
 1140 657 1140 657 1091 702.5 c 128,-1,21
 1042 748 1042 748 973 771.5 c 128,-1,22
 904 795 904 795 817 795 c 0,23,24
 752 795 752 795 644 789 c 1,25,-1
 644 325 l 2,11,12
312 1183 m 2,26,27
 312 1257 312 1257 301.5 1298.5 c 128,-1,28
 291 1340 291 1340 267 1361 c 128,-1,29
 243 1382 243 1382 203.5 1387 c 128,-1,30
 164 1392 164 1392 107 1392 c 2,31,-1
 46 1392 l 1,32,-1
 46 1487 l 1,33,34
 82 1487 82 1487 128.5 1490 c 128,-1,35
 175 1493 175 1493 219.5 1496.5 c 128,-1,36
 264 1500 264 1500 299.5 1503 c 128,-1,37
 335 1506 335 1506 348 1506 c 0,38,39
 412 1509 412 1509 472 1512.5 c 128,-1,40
 532 1516 532 1516 583 1518.5 c 128,-1,41
 634 1521 634 1521 673.5 1522.5 c 128,-1,42
 713 1524 713 1524 735 1524 c 0,43,44
 1106 1524 1106 1524 1294 1424 c 128,-1,45
 1482 1324 1482 1324 1482 1135 c 0,46,47
 1482 925 1482 925 1197 850 c 1,48,49
 1281 832 1281 832 1349 794.5 c 128,-1,50
 1417 757 1417 757 1465 705 c 128,-1,51
 1513 653 1513 653 1539 588 c 128,-1,52
 1565 523 1565 523 1565 450 c 0,53,54
 1565 357 1565 357 1525 275 c 128,-1,55
 1485 193 1485 193 1407 132 c 128,-1,56
 1329 71 1329 71 1214 35.5 c 128,-1,57
 1099 0 1099 0 949 0 c 2,58,-1
 22 0 l 1,59,-1
 22 97 l 1,60,61
 124 99 124 99 194.5 119.5 c 128,-1,62
 265 140 265 140 289 179 c 1,63,-1
 289 178 l 1,64,65
 312 220 312 220 312 295 c 2,66,-1
 312 1183 l 2,26,27
EndSplineSet
Substitution2: "<17016,16016> Urdu Swash lookup 115 subtable" B
EndChar

StartChar: C
Encoding: 67 67 38
AltUni2: 00216d.ffffffff.0
Width: 1770
GlyphClass: 2
Flags: W
LayerCount: 2
Fore
SplineSet
1679 429 m 1,0,1
 1662 327 1662 327 1627 213.5 c 128,-1,2
 1592 100 1592 100 1543 -7 c 1,3,4
 1517 1 1517 1 1481.5 5 c 128,-1,5
 1446 9 1446 9 1403 9 c 0,6,7
 1390 9 1390 9 1361.5 5.5 c 128,-1,8
 1333 2 1333 2 1296 -2.5 c 128,-1,9
 1259 -7 1259 -7 1216.5 -13 c 128,-1,10
 1174 -19 1174 -19 1133 -23.5 c 128,-1,11
 1092 -28 1092 -28 1055 -31.5 c 128,-1,12
 1018 -35 1018 -35 992 -35 c 0,13,14
 879 -35 879 -35 770.5 -10 c 128,-1,15
 662 15 662 15 565 62 c 0,16,17
 465 111 465 111 380.5 185.5 c 128,-1,18
 296 260 296 260 237 348 c 1,19,20
 183 433 183 433 152 534 c 128,-1,21
 121 635 121 635 121 739 c 0,22,23
 121 1069 121 1069 386 1295 c 0,24,25
 520 1410 520 1410 681.5 1467.5 c 128,-1,26
 843 1525 843 1525 1038 1524 c 0,27,28
 1097 1524 1097 1524 1153.5 1516 c 128,-1,29
 1210 1508 1210 1508 1261.5 1496 c 128,-1,30
 1313 1484 1313 1484 1357 1470 c 128,-1,31
 1401 1456 1401 1456 1434 1444 c 0,32,33
 1456 1436 1456 1436 1473 1430.5 c 128,-1,34
 1490 1425 1490 1425 1495 1425 c 0,35,36
 1507 1425 1507 1425 1519.5 1431 c 128,-1,37
 1532 1437 1532 1437 1542 1449 c 1,38,-1
 1604 1449 l 1,39,40
 1605 1438 1605 1438 1606.5 1406 c 128,-1,41
 1608 1374 1608 1374 1610 1331.5 c 128,-1,42
 1612 1289 1612 1289 1615 1241.5 c 128,-1,43
 1618 1194 1618 1194 1620 1151 c 128,-1,44
 1622 1108 1622 1108 1623.5 1075 c 128,-1,45
 1625 1042 1625 1042 1626 1030 c 1,46,-1
 1530 1030 l 1,47,48
 1491 1145 1491 1145 1422 1229 c 128,-1,49
 1353 1313 1353 1313 1265 1355 c 1,50,51
 1167 1398 1167 1398 1056 1398 c 0,52,53
 801 1398 801 1398 641 1222 c 1,54,55
 481 1044 481 1044 481 765 c 0,56,57
 481 585 481 585 554 430 c 0,58,59
 592 351 592 351 650 287.5 c 128,-1,60
 708 224 708 224 779 176 c 1,61,62
 848 131 848 131 925 108.5 c 128,-1,63
 1002 86 1002 86 1084 85 c 0,64,65
 1165 85 1165 85 1241.5 110 c 128,-1,66
 1318 135 1318 135 1384 182 c 0,67,68
 1445 226 1445 226 1495 290 c 128,-1,69
 1545 354 1545 354 1581 429 c 1,70,-1
 1679 429 l 1,0,1
EndSplineSet
Substitution2: "<17016,16016> Urdu Swash lookup 115 subtable" C
EndChar

StartChar: D
Encoding: 68 68 39
AltUni2: 00216e.ffffffff.0
Width: 1968
GlyphClass: 2
Flags: W
LayerCount: 2
Fore
SplineSet
604 279 m 2,0,1
 604 217 604 217 612.5 181.5 c 128,-1,2
 621 146 621 146 643.5 128 c 128,-1,3
 666 110 666 110 706.5 105 c 128,-1,4
 747 100 747 100 810 99 c 1,5,6
 897 99 897 99 975 114 c 128,-1,7
 1053 129 1053 129 1121 157 c 128,-1,8
 1189 185 1189 185 1245.5 224 c 128,-1,9
 1302 263 1302 263 1345 311 c 1,10,11
 1376 354 1376 354 1402 404.5 c 128,-1,12
 1428 455 1428 455 1446.5 511 c 128,-1,13
 1465 567 1465 567 1475 627 c 128,-1,14
 1485 687 1485 687 1485 748 c 0,15,16
 1485 897 1485 897 1443.5 1018 c 128,-1,17
 1402 1139 1402 1139 1316 1225 c 128,-1,18
 1230 1311 1230 1311 1099.5 1357.5 c 128,-1,19
 969 1404 969 1404 790 1404 c 0,20,21
 740 1404 740 1404 693 1400.5 c 128,-1,22
 646 1397 646 1397 604 1392 c 1,23,-1
 604 279 l 2,0,1
51 1487 m 1,24,-1
 62 1487 l 1,25,26
 83 1489 83 1489 138.5 1492 c 128,-1,27
 194 1495 194 1495 266.5 1498.5 c 128,-1,28
 339 1502 339 1502 419.5 1505.5 c 128,-1,29
 500 1509 500 1509 571 1511.5 c 128,-1,30
 642 1514 642 1514 694 1516 c 128,-1,31
 746 1518 746 1518 762 1518 c 0,32,33
 991 1518 991 1518 1162.5 1493 c 128,-1,34
 1334 1468 1334 1468 1440 1421 c 1,35,36
 1558 1364 1558 1364 1650 1269 c 128,-1,37
 1742 1174 1742 1174 1792 1057 c 1,38,39
 1816 994 1816 994 1830 923.5 c 128,-1,40
 1844 853 1844 853 1844 780 c 0,41,42
 1844 466 1844 466 1621 243 c 1,43,44
 1380 0 1380 0 810 0 c 2,45,-1
 51 0 l 1,46,-1
 51 97 l 1,47,48
 105 98 105 98 148.5 104.5 c 128,-1,49
 192 111 192 111 212 122 c 1,50,-1
 211 122 l 1,51,52
 273 160 273 160 273 262 c 2,53,-1
 273 1183 l 2,54,55
 273 1260 273 1260 250.5 1309 c 128,-1,56
 228 1358 228 1358 190 1376 c 1,57,58
 170 1383 170 1383 131.5 1386.5 c 128,-1,59
 93 1390 93 1390 51 1392 c 1,60,-1
 51 1487 l 1,24,-1
EndSplineSet
Substitution2: "<17016,16016> Urdu Swash lookup 115 subtable" D
EndChar

StartChar: E
Encoding: 69 69 40
Width: 1544
GlyphClass: 2
Flags: W
LayerCount: 2
Fore
SplineSet
1296 1140 m 1,0,1
 1288 1194 1288 1194 1278.5 1232.5 c 128,-1,2
 1269 1271 1269 1271 1258 1289 c 1,3,-1
 1258 1288 l 1,4,5
 1220 1353 1220 1353 1132 1353 c 2,6,-1
 611 1353 l 1,7,-1
 611 818 l 1,8,-1
 997 818 l 2,9,10
 1092 818 1092 818 1132.5 859 c 128,-1,11
 1173 900 1173 900 1175 991 c 1,12,-1
 1273 991 l 1,13,-1
 1273 513 l 1,14,-1
 1175 513 l 1,15,16
 1173 567 1173 567 1161.5 600.5 c 128,-1,17
 1150 634 1150 634 1124.5 653 c 128,-1,18
 1099 672 1099 672 1059 678.5 c 128,-1,19
 1019 685 1019 685 960 685 c 2,20,-1
 611 685 l 1,21,-1
 611 256 l 2,22,23
 611 217 611 217 616 193 c 128,-1,24
 621 169 621 169 631.5 155.5 c 128,-1,25
 642 142 642 142 658.5 137.5 c 128,-1,26
 675 133 675 133 697 133 c 2,27,-1
 1098 133 l 2,28,29
 1160 133 1160 133 1204 144.5 c 128,-1,30
 1248 156 1248 156 1279.5 183.5 c 128,-1,31
 1311 211 1311 211 1332.5 258.5 c 128,-1,32
 1354 306 1354 306 1371 378 c 1,33,-1
 1463 378 l 1,34,35
 1463 371 1463 371 1461 342.5 c 128,-1,36
 1459 314 1459 314 1456 274.5 c 128,-1,37
 1453 235 1453 235 1450 190 c 128,-1,38
 1447 145 1447 145 1444 105.5 c 128,-1,39
 1441 66 1441 66 1439 37 c 128,-1,40
 1437 8 1437 8 1436 0 c 1,41,-1
 -4 0 l 1,42,-1
 -4 97 l 1,43,-1
 96 97 l 2,44,45
 281 97 281 97 281 267 c 2,46,-1
 281 1218 l 2,47,48
 281 1263 281 1263 264.5 1301 c 128,-1,49
 248 1339 248 1339 228 1360 c 1,50,51
 205 1373 205 1373 164 1382.5 c 128,-1,52
 123 1392 123 1392 72 1392 c 2,53,-1
 48 1392 l 1,54,-1
 48 1487 l 1,55,-1
 1364 1487 l 1,56,57
 1369 1402 1369 1402 1375 1312.5 c 128,-1,58
 1381 1223 1381 1223 1389 1140 c 1,59,-1
 1296 1140 l 1,0,1
EndSplineSet
Substitution2: "<17016,16016> Urdu Swash lookup 115 subtable" E
EndChar

StartChar: F
Encoding: 70 70 41
Width: 1420
GlyphClass: 2
Flags: W
LayerCount: 2
Fore
SplineSet
601 1353 m 1,0,-1
 601 818 l 1,1,-1
 933 818 l 2,2,3
 998 818 998 818 1037.5 828 c 128,-1,4
 1077 838 1077 838 1099 859.5 c 128,-1,5
 1121 881 1121 881 1129.5 914 c 128,-1,6
 1138 947 1138 947 1139 993 c 1,7,-1
 1236 993 l 1,8,-1
 1236 515 l 1,9,-1
 1139 515 l 1,10,11
 1137 597 1137 597 1096 641 c 128,-1,12
 1055 685 1055 685 976 685 c 2,13,-1
 601 685 l 1,14,-1
 601 301 l 2,15,16
 601 236 601 236 609.5 196 c 128,-1,17
 618 156 618 156 637 134 c 128,-1,18
 656 112 656 112 686.5 104.5 c 128,-1,19
 717 97 717 97 760 97 c 2,20,-1
 806 97 l 1,21,-1
 806 0 l 1,22,-1
 92 0 l 1,23,-1
 92 97 l 1,24,-1
 130 97 l 2,25,26
 208 97 208 97 239.5 127 c 128,-1,27
 271 157 271 157 271 231 c 2,28,-1
 271 1197 l 2,29,30
 271 1258 271 1258 261 1296.5 c 128,-1,31
 251 1335 251 1335 232 1356.5 c 128,-1,32
 213 1378 213 1378 185 1386 c 128,-1,33
 157 1394 157 1394 122 1394 c 2,34,-1
 92 1394 l 1,35,-1
 92 1487 l 1,36,-1
 1298 1487 l 1,37,-1
 1298 1150 l 1,38,-1
 1210 1150 l 1,39,40
 1208 1201 1208 1201 1201 1235.5 c 128,-1,41
 1194 1270 1194 1270 1185 1287 c 0,42,43
 1147 1353 1147 1353 1062 1353 c 2,44,-1
 601 1353 l 1,0,-1
EndSplineSet
Substitution2: "<17016,16016> Urdu Swash lookup 115 subtable" F
EndChar

StartChar: G
Encoding: 71 71 42
Width: 1867
GlyphClass: 2
Flags: W
LayerCount: 2
Fore
SplineSet
1812 715 m 1,0,-1
 1812 624 l 1,1,2
 1767 622 1767 622 1734.5 614.5 c 128,-1,3
 1702 607 1702 607 1681.5 589.5 c 128,-1,4
 1661 572 1661 572 1651.5 544 c 128,-1,5
 1642 516 1642 516 1642 473 c 2,6,-1
 1642 117 l 1,7,8
 1478 42 1478 42 1321.5 3.5 c 128,-1,9
 1165 -35 1165 -35 1018 -35 c 0,10,11
 808 -35 808 -35 641.5 21 c 128,-1,12
 475 77 475 77 359.5 181 c 128,-1,13
 244 285 244 285 182.5 432 c 128,-1,14
 121 579 121 579 121 762 c 0,15,16
 121 1096 121 1096 369 1309 c 0,17,18
 494 1417 494 1417 648 1470.5 c 128,-1,19
 802 1524 802 1524 992 1524 c 0,20,21
 1072 1524 1072 1524 1171.5 1508.5 c 128,-1,22
 1271 1493 1271 1493 1383 1465 c 0,23,24
 1423 1456 1423 1456 1459.5 1448 c 128,-1,25
 1496 1440 1496 1440 1509 1440 c 0,26,27
 1555 1440 1555 1440 1581 1471 c 1,28,-1
 1642 1471 l 1,29,-1
 1642 1032 l 1,30,-1
 1546 1032 l 1,31,32
 1511 1153 1511 1153 1442 1240 c 128,-1,33
 1373 1327 1373 1327 1274 1374 c 0,34,35
 1223 1398 1223 1398 1167.5 1407.5 c 128,-1,36
 1112 1417 1112 1417 1052 1418 c 1,37,38
 928 1418 928 1418 823.5 1370 c 128,-1,39
 719 1322 719 1322 643 1236 c 128,-1,40
 567 1150 567 1150 524 1029.5 c 128,-1,41
 481 909 481 909 481 765 c 0,42,43
 481 474 481 474 644 278 c 1,44,45
 725 179 725 179 828 131 c 128,-1,46
 931 83 931 83 1056 83 c 0,47,48
 1130 83 1130 83 1194.5 100 c 128,-1,49
 1259 117 1259 117 1310 146 c 1,50,-1
 1310 473 l 2,51,52
 1310 529 1310 529 1284 563 c 128,-1,53
 1258 597 1258 597 1208 608 c 0,54,55
 1179 615 1179 615 1129.5 618.5 c 128,-1,56
 1080 622 1080 622 1016 624 c 1,57,-1
 1016 715 l 1,58,-1
 1812 715 l 1,0,-1
EndSplineSet
Substitution2: "<17016,16016> Urdu Swash lookup 115 subtable" G
EndChar

StartChar: H
Encoding: 72 72 43
Width: 1992
GlyphClass: 2
Flags: W
LayerCount: 2
Fore
SplineSet
1176 97 m 1,0,-1
 1210 97 l 2,1,2
 1389 97 1389 97 1389 279 c 2,3,-1
 1389 702 l 1,4,-1
 602 702 l 1,5,-1
 602 274 l 2,6,7
 602 97 602 97 784 97 c 2,8,-1
 821 97 l 1,9,-1
 821 0 l 1,10,-1
 53 0 l 1,11,-1
 53 97 l 1,12,-1
 96 97 l 2,13,14
 271 97 271 97 271 270 c 2,15,-1
 271 1218 l 2,16,17
 271 1392 271 1392 94 1392 c 2,18,-1
 53 1392 l 1,19,-1
 53 1487 l 1,20,-1
 821 1487 l 1,21,-1
 821 1392 l 1,22,-1
 787 1392 l 2,23,24
 602 1392 602 1392 602 1218 c 2,25,-1
 602 845 l 1,26,-1
 1389 845 l 1,27,-1
 1389 1211 l 2,28,29
 1389 1262 1389 1262 1378.5 1296.5 c 128,-1,30
 1368 1331 1368 1331 1344.5 1352 c 128,-1,31
 1321 1373 1321 1373 1285 1382.5 c 128,-1,32
 1249 1392 1249 1392 1198 1392 c 2,33,-1
 1176 1392 l 1,34,-1
 1176 1487 l 1,35,-1
 1942 1487 l 1,36,-1
 1942 1392 l 1,37,-1
 1898 1392 l 2,38,39
 1719 1392 1719 1392 1719 1218 c 2,40,-1
 1719 274 l 2,41,42
 1719 177 1719 177 1762 137 c 128,-1,43
 1805 97 1805 97 1902 97 c 2,44,-1
 1942 97 l 1,45,-1
 1942 0 l 1,46,-1
 1176 0 l 1,47,-1
 1176 97 l 1,0,-1
EndSplineSet
Substitution2: "<17016,16016> Urdu Swash lookup 115 subtable" H
EndChar

StartChar: I
Encoding: 73 73 44
Width: 873
GlyphClass: 2
Flags: W
LayerCount: 2
Fore
SplineSet
54 1392 m 1,0,-1
 54 1487 l 1,1,-1
 816 1487 l 1,2,-1
 816 1392 l 1,3,-1
 776 1392 l 2,4,5
 594 1392 594 1392 594 1213 c 2,6,-1
 594 270 l 2,7,8
 594 221 594 221 605 188 c 128,-1,9
 616 155 616 155 638.5 135 c 128,-1,10
 661 115 661 115 696 106 c 128,-1,11
 731 97 731 97 780 97 c 2,12,-1
 816 97 l 1,13,-1
 816 0 l 1,14,-1
 54 0 l 1,15,-1
 54 97 l 1,16,-1
 90 97 l 2,17,18
 263 97 263 97 263 260 c 2,19,-1
 263 1213 l 2,20,21
 263 1261 263 1261 253 1294.5 c 128,-1,22
 243 1328 243 1328 222 1350 c 128,-1,23
 201 1372 201 1372 167.5 1382 c 128,-1,24
 134 1392 134 1392 87 1392 c 2,25,-1
 54 1392 l 1,0,-1
EndSplineSet
Substitution2: "<17016,16016> Urdu Swash lookup 115 subtable" I
EndChar

StartChar: J
Encoding: 74 74 45
Width: 823
GlyphClass: 2
Flags: W
LayerCount: 2
Fore
SplineSet
14 1392 m 1,0,-1
 14 1487 l 1,1,-1
 776 1487 l 1,2,-1
 776 1392 l 1,3,-1
 738 1392 l 2,4,5
 568 1392 568 1392 568 1213 c 2,6,-1
 568 171 l 2,7,8
 568 26 568 26 530 -103.5 c 128,-1,9
 492 -233 492 -233 416.5 -330 c 128,-1,10
 341 -427 341 -427 229 -484 c 128,-1,11
 117 -541 117 -541 -31 -541 c 0,12,13
 -287 -541 -287 -541 -287 -402 c 0,14,15
 -287 -372 -287 -372 -273 -344.5 c 128,-1,16
 -259 -317 -259 -317 -236 -296.5 c 128,-1,17
 -213 -276 -213 -276 -182.5 -263.5 c 128,-1,18
 -152 -251 -152 -251 -119 -251 c 0,19,20
 -95 -251 -95 -251 -73.5 -258 c 128,-1,21
 -52 -265 -52 -265 -35 -276 c 0,22,23
 -28 -281 -28 -281 -9 -297 c 128,-1,24
 10 -313 10 -313 40 -342 c 0,25,26
 93 -394 93 -394 119 -394 c 0,27,28
 235 -394 235 -394 235 -162 c 2,29,-1
 235 1216 l 2,30,31
 235 1392 235 1392 59 1392 c 2,32,-1
 14 1392 l 1,0,-1
EndSplineSet
Substitution2: "<17016,16016> Urdu Swash lookup 115 subtable" J
EndChar

StartChar: K
Encoding: 75 75 46
AltUni2: 00212a.ffffffff.0
Width: 1770
GlyphClass: 2
Flags: W
LayerCount: 2
Fore
SplineSet
606 270 m 2,0,1
 606 97 606 97 794 97 c 2,2,-1
 828 97 l 1,3,-1
 828 0 l 1,4,-1
 48 0 l 1,5,-1
 48 97 l 1,6,-1
 94 97 l 2,7,8
 276 97 276 97 276 274 c 2,9,-1
 276 1211 l 2,10,11
 276 1260 276 1260 265.5 1294.5 c 128,-1,12
 255 1329 255 1329 232.5 1350.5 c 128,-1,13
 210 1372 210 1372 175 1382 c 128,-1,14
 140 1392 140 1392 91 1392 c 2,15,-1
 48 1392 l 1,16,-1
 48 1487 l 1,17,-1
 828 1487 l 1,18,-1
 828 1392 l 1,19,-1
 787 1392 l 2,20,21
 734 1392 734 1392 699 1382.5 c 128,-1,22
 664 1373 664 1373 643.5 1350.5 c 128,-1,23
 623 1328 623 1328 614.5 1291.5 c 128,-1,24
 606 1255 606 1255 606 1201 c 2,25,-1
 606 774 l 1,26,27
 679 788 679 788 761 834 c 128,-1,28
 843 880 843 880 919 955 c 0,29,30
 958 994 958 994 999.5 1045 c 128,-1,31
 1041 1096 1041 1096 1075 1146.5 c 128,-1,32
 1109 1197 1109 1197 1130.5 1241.5 c 128,-1,33
 1152 1286 1152 1286 1152 1313 c 0,34,35
 1152 1392 1152 1392 1009 1392 c 2,36,-1
 982 1392 l 1,37,-1
 982 1487 l 1,38,-1
 1621 1487 l 1,39,-1
 1621 1392 l 1,40,41
 1577 1389 1577 1389 1538 1385 c 128,-1,42
 1499 1381 1499 1381 1478 1376 c 1,43,44
 1441 1364 1441 1364 1409.5 1342.5 c 128,-1,45
 1378 1321 1378 1321 1344.5 1285 c 128,-1,46
 1311 1249 1311 1249 1271 1194.5 c 128,-1,47
 1231 1140 1231 1140 1176 1062 c 1,48,49
 1128 996 1128 996 1073.5 937 c 128,-1,50
 1019 878 1019 878 968 837 c 1,51,52
 989 826 989 826 1016 803.5 c 128,-1,53
 1043 781 1043 781 1074.5 749.5 c 128,-1,54
 1106 718 1106 718 1140 679 c 128,-1,55
 1174 640 1174 640 1210 596 c 0,56,57
 1211 595 1211 595 1211.5 594 c 128,-1,58
 1212 593 1212 593 1213 592 c 2,59,-1
 1220 582 l 2,60,61
 1226 574 1226 574 1242 553.5 c 128,-1,62
 1258 533 1258 533 1278.5 506.5 c 128,-1,63
 1299 480 1299 480 1322.5 450 c 128,-1,64
 1346 420 1346 420 1367 393.5 c 128,-1,65
 1388 367 1388 367 1404.5 346.5 c 128,-1,66
 1421 326 1421 326 1427 318 c 0,67,68
 1446 295 1446 295 1467 271.5 c 128,-1,69
 1488 248 1488 248 1509 227 c 128,-1,70
 1530 206 1530 206 1549 189 c 128,-1,71
 1568 172 1568 172 1583 161 c 0,72,73
 1627 131 1627 131 1682 115 c 128,-1,74
 1737 99 1737 99 1791 97 c 1,75,-1
 1791 0 l 1,76,-1
 975 0 l 1,77,-1
 975 97 l 1,78,79
 1053 98 1053 98 1097.5 114 c 128,-1,80
 1142 130 1142 130 1142 160 c 0,81,82
 1142 173 1142 173 1113.5 215 c 128,-1,83
 1085 257 1085 257 1035.5 317.5 c 128,-1,84
 986 378 986 378 918 453 c 128,-1,85
 850 528 850 528 772 606 c 0,86,87
 731 648 731 648 687.5 669 c 128,-1,88
 644 690 644 690 606 692 c 1,89,-1
 606 270 l 2,0,1
EndSplineSet
Substitution2: "<17016,16016> Urdu Swash lookup 115 subtable" K
EndChar

StartChar: L
Encoding: 76 76 47
AltUni2: 00216c.ffffffff.0
Width: 1444
GlyphClass: 2
Flags: W
LayerCount: 2
Fore
SplineSet
1487 416 m 1,0,1
 1482 405 1482 405 1468.5 373.5 c 128,-1,2
 1455 342 1455 342 1437.5 300.5 c 128,-1,3
 1420 259 1420 259 1400.5 212 c 128,-1,4
 1381 165 1381 165 1363 122.5 c 128,-1,5
 1345 80 1345 80 1331 47 c 128,-1,6
 1317 14 1317 14 1311 0 c 1,7,-1
 33 0 l 1,8,-1
 33 97 l 1,9,-1
 72 97 l 2,10,11
 129 97 129 97 167 108 c 128,-1,12
 205 119 205 119 228 140 c 128,-1,13
 251 161 251 161 261 193 c 128,-1,14
 271 225 271 225 271 267 c 2,15,-1
 271 1221 l 2,16,17
 271 1392 271 1392 81 1392 c 2,18,-1
 37 1392 l 1,19,-1
 37 1487 l 1,20,-1
 848 1487 l 1,21,-1
 848 1392 l 1,22,-1
 778 1392 l 2,23,24
 601 1392 601 1392 601 1225 c 2,25,-1
 601 242 l 2,26,27
 601 210 601 210 607 189 c 128,-1,28
 613 168 613 168 627 155.5 c 128,-1,29
 641 143 641 143 663.5 138 c 128,-1,30
 686 133 686 133 719 133 c 2,31,-1
 1024 133 l 2,32,33
 1088 133 1088 133 1143.5 160.5 c 128,-1,34
 1199 188 1199 188 1242 234 c 0,35,36
 1264 258 1264 258 1302.5 307 c 128,-1,37
 1341 356 1341 356 1389 416 c 1,38,-1
 1487 416 l 1,0,1
EndSplineSet
Substitution2: "<17016,16016> Urdu Swash lookup 115 subtable" L
EndChar

StartChar: M
Encoding: 77 77 48
AltUni2: 00216f.ffffffff.0
Width: 2217
GlyphClass: 2
Flags: W
LayerCount: 2
Fore
SplineSet
985 0 m 1,0,-1
 438 1173 l 1,1,2
 438 1159 438 1159 435.5 1115.5 c 128,-1,3
 433 1072 433 1072 429 1009.5 c 128,-1,4
 425 947 425 947 420 871.5 c 128,-1,5
 415 796 415 796 410 717 c 128,-1,6
 405 638 405 638 400 562 c 128,-1,7
 395 486 395 486 391.5 423 c 128,-1,8
 388 360 388 360 385.5 315.5 c 128,-1,9
 383 271 383 271 383 255 c 0,10,11
 383 205 383 205 396 174 c 128,-1,12
 409 143 409 143 434 126 c 128,-1,13
 459 109 459 109 496 103 c 128,-1,14
 533 97 533 97 581 97 c 1,15,-1
 581 0 l 1,16,-1
 48 0 l 1,17,-1
 48 97 l 1,18,19
 129 99 129 99 175.5 122 c 128,-1,20
 222 145 222 145 233 187 c 0,21,22
 241 217 241 217 248 271 c 128,-1,23
 255 325 255 325 261.5 394 c 128,-1,24
 268 463 268 463 273.5 543 c 128,-1,25
 279 623 279 623 284 705.5 c 128,-1,26
 289 788 289 788 292.5 869.5 c 128,-1,27
 296 951 296 951 298.5 1022.5 c 128,-1,28
 301 1094 301 1094 302.5 1152 c 128,-1,29
 304 1210 304 1210 304 1246 c 0,30,31
 304 1287 304 1287 297 1313.5 c 128,-1,32
 290 1340 290 1340 272 1356.5 c 128,-1,33
 254 1373 254 1373 223 1381 c 128,-1,34
 192 1389 192 1389 144 1392 c 1,35,-1
 144 1487 l 1,36,-1
 650 1487 l 1,37,-1
 1113 485 l 1,38,39
 1124 509 1124 509 1146.5 559.5 c 128,-1,40
 1169 610 1169 610 1199 678.5 c 128,-1,41
 1229 747 1229 747 1265 827.5 c 128,-1,42
 1301 908 1301 908 1338 990.5 c 128,-1,43
 1375 1073 1375 1073 1410.5 1153 c 128,-1,44
 1446 1233 1446 1233 1476 1300 c 128,-1,45
 1506 1367 1506 1367 1527.5 1416.5 c 128,-1,46
 1549 1466 1549 1466 1559 1487 c 1,47,-1
 2076 1487 l 1,48,-1
 2076 1392 l 1,49,50
 2018 1388 2018 1388 1983.5 1375.5 c 128,-1,51
 1949 1363 1949 1363 1931 1345 c 128,-1,52
 1913 1327 1913 1327 1907.5 1304 c 128,-1,53
 1902 1281 1902 1281 1902 1257 c 0,54,55
 1902 1247 1902 1247 1902 1234 c 128,-1,56
 1902 1221 1902 1221 1903 1211 c 0,57,58
 1904 1202 1904 1202 1906.5 1159.5 c 128,-1,59
 1909 1117 1909 1117 1913 1054.5 c 128,-1,60
 1917 992 1917 992 1922 914.5 c 128,-1,61
 1927 837 1927 837 1932.5 757.5 c 128,-1,62
 1938 678 1938 678 1943 602 c 128,-1,63
 1948 526 1948 526 1951.5 467 c 128,-1,64
 1955 408 1955 408 1957.5 371 c 128,-1,65
 1960 334 1960 334 1960 332 c 0,66,67
 1963 273 1963 273 1968 229 c 128,-1,68
 1973 185 1973 185 1993 156 c 128,-1,69
 2013 127 2013 127 2054 112.5 c 128,-1,70
 2095 98 2095 98 2171 97 c 1,71,-1
 2171 0 l 1,72,-1
 1416 0 l 1,73,-1
 1416 97 l 1,74,75
 1479 97 1479 97 1522 101.5 c 128,-1,76
 1565 106 1565 106 1591.5 122 c 128,-1,77
 1618 138 1618 138 1629 168 c 128,-1,78
 1640 198 1640 198 1640 249 c 0,79,80
 1640 260 1640 260 1637.5 301.5 c 128,-1,81
 1635 343 1635 343 1631.5 404.5 c 128,-1,82
 1628 466 1628 466 1623 541.5 c 128,-1,83
 1618 617 1618 617 1612.5 697.5 c 128,-1,84
 1607 778 1607 778 1601.5 857 c 128,-1,85
 1596 936 1596 936 1591 1004 c 128,-1,86
 1586 1072 1586 1072 1581.5 1123.5 c 128,-1,87
 1577 1175 1577 1175 1575 1200 c 1,88,89
 1563 1172 1563 1172 1535.5 1110.5 c 128,-1,90
 1508 1049 1508 1049 1471.5 966.5 c 128,-1,91
 1435 884 1435 884 1392 786.5 c 128,-1,92
 1349 689 1349 689 1304.5 589 c 128,-1,93
 1260 489 1260 489 1217.5 393 c 128,-1,94
 1175 297 1175 297 1140 217 c 128,-1,95
 1105 137 1105 137 1079.5 79.5 c 128,-1,96
 1054 22 1054 22 1044 0 c 1,97,-1
 985 0 l 1,0,-1
EndSplineSet
Substitution2: "<17016,16016> Urdu Swash lookup 115 subtable" M
EndChar

StartChar: N
Encoding: 78 78 49
Width: 1944
GlyphClass: 2
Flags: W
LayerCount: 2
Fore
SplineSet
402 1186 m 1,0,-1
 402 288 l 2,1,2
 402 227 402 227 416 190 c 128,-1,3
 430 153 430 153 459 132.5 c 128,-1,4
 488 112 488 112 532.5 105 c 128,-1,5
 577 98 577 98 637 97 c 1,6,-1
 637 0 l 1,7,-1
 57 0 l 1,8,-1
 57 97 l 1,9,-1
 72 97 l 2,10,11
 122 97 122 97 156.5 105 c 128,-1,12
 191 113 191 113 212.5 130.5 c 128,-1,13
 234 148 234 148 243.5 176 c 128,-1,14
 253 204 253 204 253 244 c 2,15,-1
 253 1339 l 1,16,17
 217 1361 217 1361 165.5 1375.5 c 128,-1,18
 114 1390 114 1390 62 1392 c 1,19,-1
 62 1487 l 1,20,-1
 558 1487 l 1,21,-1
 1528 471 l 1,22,-1
 1528 1189 l 2,23,24
 1528 1259 1528 1259 1515.5 1299.5 c 128,-1,25
 1503 1340 1503 1340 1476 1360.5 c 128,-1,26
 1449 1381 1449 1381 1406 1386.5 c 128,-1,27
 1363 1392 1363 1392 1302 1392 c 2,28,-1
 1278 1392 l 1,29,-1
 1278 1487 l 1,30,-1
 1895 1487 l 1,31,-1
 1895 1392 l 1,32,-1
 1871 1392 l 2,33,34
 1826 1392 1826 1392 1791.5 1388 c 128,-1,35
 1757 1384 1757 1384 1738 1376 c 0,36,37
 1708 1363 1708 1363 1692 1335.5 c 128,-1,38
 1676 1308 1676 1308 1676 1272 c 2,39,-1
 1676 -7 l 1,40,-1
 1542 -7 l 1,41,-1
 402 1186 l 1,0,-1
EndSplineSet
Substitution2: "<17016,16016> Urdu Swash lookup 115 subtable" N
EndChar

StartChar: O
Encoding: 79 79 50
Width: 2019
GlyphClass: 2
Flags: W
LayerCount: 2
Fore
SplineSet
483 835 m 0,0,1
 483 500 483 500 640 284 c 1,2,3
 798 70 798 70 1049 70 c 0,4,5
 1122 70 1122 70 1187.5 93 c 128,-1,6
 1253 116 1253 116 1308 157 c 128,-1,7
 1363 198 1363 198 1407 254 c 128,-1,8
 1451 310 1451 310 1481 377 c 1,9,10
 1492 410 1492 410 1502 448 c 128,-1,11
 1512 486 1512 486 1519.5 526 c 128,-1,12
 1527 566 1527 566 1531 607 c 128,-1,13
 1535 648 1535 648 1535 686 c 0,14,15
 1535 835 1535 835 1497 968 c 128,-1,16
 1459 1101 1459 1101 1393 1205 c 1,17,18
 1318 1311 1318 1311 1214 1370 c 128,-1,19
 1110 1429 1110 1429 983 1429 c 0,20,21
 872 1429 872 1429 780 1386.5 c 128,-1,22
 688 1344 688 1344 622 1266 c 128,-1,23
 556 1188 556 1188 519.5 1078.5 c 128,-1,24
 483 969 483 969 483 835 c 0,0,1
123 719 m 1,25,26
 123 1076 123 1076 381 1302 c 1,27,28
 638 1532 638 1532 1041 1532 c 0,29,30
 1226 1532 1226 1532 1382.5 1476.5 c 128,-1,31
 1539 1421 1539 1421 1652.5 1320.5 c 128,-1,32
 1766 1220 1766 1220 1829.5 1080.5 c 128,-1,33
 1893 941 1893 941 1893 773 c 0,34,35
 1893 647 1893 647 1856 531 c 128,-1,36
 1819 415 1819 415 1750 317 c 0,37,38
 1717 271 1717 271 1674 229 c 128,-1,39
 1631 187 1631 187 1581 150.5 c 128,-1,40
 1531 114 1531 114 1477 84 c 128,-1,41
 1423 54 1423 54 1368 32 c 0,42,43
 1288 0 1288 0 1191 -17 c 128,-1,44
 1094 -34 1094 -34 994 -35 c 1,45,46
 880 -35 880 -35 767 -11 c 128,-1,47
 654 13 654 13 561 55 c 0,48,49
 454 103 454 103 369.5 177 c 128,-1,50
 285 251 285 251 228 343 c 1,51,52
 177 428 177 428 150.5 523 c 128,-1,53
 124 618 124 618 123 719 c 1,25,26
EndSplineSet
Substitution2: "<17016,16016> Urdu Swash lookup 115 subtable" O
EndChar

StartChar: P
Encoding: 80 80 51
Width: 1544
GlyphClass: 2
Flags: W
LayerCount: 2
Fore
SplineSet
604 726 m 1,0,1
 643 717 643 717 681.5 711 c 128,-1,2
 720 705 720 705 757 705 c 0,3,4
 833 705 833 705 899.5 727.5 c 128,-1,5
 966 750 966 750 1015 795.5 c 128,-1,6
 1064 841 1064 841 1092.5 909.5 c 128,-1,7
 1121 978 1121 978 1121 1071 c 0,8,9
 1121 1160 1121 1160 1092 1226 c 128,-1,10
 1063 1292 1063 1292 1013.5 1335.5 c 128,-1,11
 964 1379 964 1379 897.5 1400 c 128,-1,12
 831 1421 831 1421 755 1421 c 0,13,14
 682 1421 682 1421 604 1401 c 1,15,-1
 604 726 l 1,0,1
604 274 m 2,16,17
 604 224 604 224 615.5 190 c 128,-1,18
 627 156 627 156 657.5 135.5 c 128,-1,19
 688 115 688 115 742.5 106 c 128,-1,20
 797 97 797 97 883 97 c 1,21,-1
 883 0 l 1,22,-1
 68 0 l 1,23,-1
 68 97 l 1,24,25
 133 97 133 97 173.5 103.5 c 128,-1,26
 214 110 214 110 236 125.5 c 128,-1,27
 258 141 258 141 265.5 166.5 c 128,-1,28
 273 192 273 192 273 231 c 2,29,-1
 273 1254 l 2,30,31
 273 1298 273 1298 262.5 1325 c 128,-1,32
 252 1352 252 1352 226.5 1367 c 128,-1,33
 201 1382 201 1382 158.5 1387 c 128,-1,34
 116 1392 116 1392 53 1392 c 1,35,-1
 53 1487 l 1,36,37
 126 1493 126 1493 204 1497.5 c 128,-1,38
 282 1502 282 1502 358.5 1506.5 c 128,-1,39
 435 1511 435 1511 507 1514.5 c 128,-1,40
 579 1518 579 1518 640 1520.5 c 128,-1,41
 701 1523 701 1523 747.5 1524.5 c 128,-1,42
 794 1526 794 1526 820 1526 c 0,43,44
 944 1525 944 1525 1062 1499.5 c 128,-1,45
 1180 1474 1180 1474 1272.5 1418.5 c 128,-1,46
 1365 1363 1365 1363 1421 1274 c 128,-1,47
 1477 1185 1477 1185 1477 1056 c 0,48,49
 1477 981 1477 981 1453.5 918 c 128,-1,50
 1430 855 1430 855 1387.5 804 c 128,-1,51
 1345 753 1345 753 1286 714.5 c 128,-1,52
 1227 676 1227 676 1157 649.5 c 128,-1,53
 1087 623 1087 623 1008 610 c 128,-1,54
 929 597 929 597 847 597 c 0,55,56
 787 597 787 597 725 604.5 c 128,-1,57
 663 612 663 612 604 626 c 1,58,-1
 604 274 l 2,16,17
EndSplineSet
Substitution2: "<17016,16016> Urdu Swash lookup 115 subtable" P
EndChar

StartChar: Q
Encoding: 81 81 52
Width: 2019
GlyphClass: 2
Flags: W
LayerCount: 2
Fore
SplineSet
483 835 m 0,0,1
 483 368 483 368 751 166 c 0,2,3
 881 68 881 68 1047 68 c 0,4,5
 1208 68 1208 68 1318 152 c 128,-1,6
 1428 236 1428 236 1485 388 c 1,7,8
 1496 421 1496 421 1505 458.5 c 128,-1,9
 1514 496 1514 496 1521 535.5 c 128,-1,10
 1528 575 1528 575 1531.5 615 c 128,-1,11
 1535 655 1535 655 1535 693 c 0,12,13
 1535 827 1535 827 1500.5 952.5 c 128,-1,14
 1466 1078 1466 1078 1406 1183 c 1,15,16
 1331 1298 1331 1298 1222 1363.5 c 128,-1,17
 1113 1429 1113 1429 980 1429 c 0,18,19
 872 1429 872 1429 780.5 1388.5 c 128,-1,20
 689 1348 689 1348 623 1271.5 c 128,-1,21
 557 1195 557 1195 520 1084.5 c 128,-1,22
 483 974 483 974 483 835 c 0,0,1
1885 -527 m 1,23,24
 1855 -535 1855 -535 1821 -538 c 128,-1,25
 1787 -541 1787 -541 1749 -541 c 0,26,27
 1604 -541 1604 -541 1457.5 -483 c 128,-1,28
 1311 -425 1311 -425 1164 -314 c 0,29,30
 1157 -308 1157 -308 1137.5 -292.5 c 128,-1,31
 1118 -277 1118 -277 1092.5 -257 c 128,-1,32
 1067 -237 1067 -237 1039 -215 c 128,-1,33
 1011 -193 1011 -193 985.5 -173 c 128,-1,34
 960 -153 960 -153 940.5 -138 c 128,-1,35
 921 -123 921 -123 913 -117 c 0,36,37
 847 -67 847 -67 794.5 -35.5 c 128,-1,38
 742 -4 742 -4 703 7 c 0,39,40
 613 31 613 31 536 71.5 c 128,-1,41
 459 112 459 112 398 157 c 1,42,43
 270 264 270 264 196.5 409.5 c 128,-1,44
 123 555 123 555 123 727 c 0,45,46
 123 1080 123 1080 383 1305 c 0,47,48
 514 1419 514 1419 677 1475.5 c 128,-1,49
 840 1532 840 1532 1041 1532 c 0,50,51
 1154 1532 1154 1532 1261 1509.5 c 128,-1,52
 1368 1487 1368 1487 1461 1445 c 0,53,54
 1567 1397 1567 1397 1648 1327 c 128,-1,55
 1729 1257 1729 1257 1785 1168 c 0,56,57
 1840 1082 1840 1082 1866 984.5 c 128,-1,58
 1892 887 1892 887 1893 776 c 1,59,60
 1893 628 1893 628 1844.5 500 c 128,-1,61
 1796 372 1796 372 1702 266 c 0,62,63
 1613 166 1613 166 1499 99 c 128,-1,64
 1385 32 1385 32 1251 1 c 1,65,66
 1296 -27 1296 -27 1352 -72 c 128,-1,67
 1408 -117 1408 -117 1476 -183 c 1,68,69
 1549 -252 1549 -252 1606 -299.5 c 128,-1,70
 1663 -347 1663 -347 1702 -373 c 0,71,72
 1746 -401 1746 -401 1804 -415.5 c 128,-1,73
 1862 -430 1862 -430 1925 -432 c 1,74,-1
 1885 -527 l 1,23,24
EndSplineSet
Substitution2: "<17016,16016> Urdu Swash lookup 115 subtable" Q
EndChar

StartChar: R
Encoding: 82 82 53
Width: 1844
GlyphClass: 2
Flags: W
LayerCount: 2
Fore
SplineSet
601 1418 m 1,0,-1
 601 734 l 1,1,-1
 693 734 l 2,2,3
 796 734 796 734 877.5 751.5 c 128,-1,4
 959 769 959 769 1012 799 c 1,5,6
 1072 841 1072 841 1111 912.5 c 128,-1,7
 1150 984 1150 984 1150 1076 c 0,8,9
 1150 1418 1150 1418 725 1418 c 2,10,-1
 601 1418 l 1,0,-1
601 630 m 1,11,-1
 601 270 l 2,12,13
 601 97 601 97 790 97 c 2,14,-1
 861 97 l 1,15,-1
 861 0 l 1,16,-1
 22 0 l 1,17,-1
 22 97 l 1,18,-1
 63 97 l 2,19,20
 122 97 122 97 161.5 106 c 128,-1,21
 201 115 201 115 225.5 135.5 c 128,-1,22
 250 156 250 156 260.5 189 c 128,-1,23
 271 222 271 222 271 270 c 2,24,-1
 271 1211 l 2,25,26
 271 1263 271 1263 260.5 1297.5 c 128,-1,27
 250 1332 250 1332 227 1353 c 128,-1,28
 204 1374 204 1374 167.5 1383 c 128,-1,29
 131 1392 131 1392 79 1392 c 2,30,-1
 31 1392 l 1,31,-1
 31 1487 l 1,32,-1
 339 1506 l 2,33,34
 455 1514 455 1514 556.5 1519 c 128,-1,35
 658 1524 658 1524 730 1524 c 0,36,37
 862 1524 862 1524 967 1514 c 128,-1,38
 1072 1504 1072 1504 1148 1486 c 0,39,40
 1234 1465 1234 1465 1300.5 1426.5 c 128,-1,41
 1367 1388 1367 1388 1412.5 1335.5 c 128,-1,42
 1458 1283 1458 1283 1482 1219.5 c 128,-1,43
 1506 1156 1506 1156 1506 1086 c 0,44,45
 1506 941 1506 941 1420 845 c 128,-1,46
 1334 749 1334 749 1156 700 c 1,47,48
 1198 666 1198 666 1246 609 c 128,-1,49
 1294 552 1294 552 1345 483 c 0,50,51
 1379 437 1379 437 1436 366 c 128,-1,52
 1493 295 1493 295 1563 213 c 1,53,54
 1599 178 1599 178 1631 154 c 128,-1,55
 1663 130 1663 130 1699 113.5 c 128,-1,56
 1735 97 1735 97 1778.5 87 c 128,-1,57
 1822 77 1822 77 1880 70 c 1,58,-1
 1880 -22 l 1,59,60
 1828 -25 1828 -25 1730 -25 c 0,61,62
 1449 -25 1449 -25 1327 39 c 0,63,64
 1292 57 1292 57 1259.5 78.5 c 128,-1,65
 1227 100 1227 100 1199 129 c 0,66,67
 1167 161 1167 161 1129 206.5 c 128,-1,68
 1091 252 1091 252 1051 309 c 1,69,-1
 913 499 l 1,70,71
 889 530 889 530 855 565.5 c 128,-1,72
 821 601 821 601 789 630 c 1,73,-1
 601 630 l 1,11,-1
EndSplineSet
Substitution2: "<17016,16016> Urdu Swash lookup 115 subtable" R
EndChar

StartChar: S
Encoding: 83 83 54
Width: 1346
GlyphClass: 2
Flags: W
LayerCount: 2
Fore
SplineSet
198 4 m 1,0,1
 197 16 197 16 192.5 48.5 c 128,-1,2
 188 81 188 81 182 125 c 128,-1,3
 176 169 176 169 169 218 c 128,-1,4
 162 267 162 267 155.5 312 c 128,-1,5
 149 357 149 357 144.5 392 c 128,-1,6
 140 427 140 427 138 442 c 1,7,-1
 234 442 l 1,8,9
 292 265 292 265 394.5 174 c 128,-1,10
 497 83 497 83 640 83 c 0,11,12
 696 83 696 83 746.5 99.5 c 128,-1,13
 797 116 797 116 834.5 146.5 c 128,-1,14
 872 177 872 177 894 220 c 128,-1,15
 916 263 916 263 916 317 c 0,16,17
 916 375 916 375 880 432 c 128,-1,18
 844 489 844 489 783 538 c 1,19,20
 757 556 757 556 692.5 594 c 128,-1,21
 628 632 628 632 542 677 c 0,22,23
 448 725 448 725 379.5 770 c 128,-1,24
 311 815 311 815 275 850 c 0,25,26
 152 970 152 970 152 1133 c 0,27,28
 152 1219 152 1219 186.5 1291 c 128,-1,29
 221 1363 221 1363 284.5 1414.5 c 128,-1,30
 348 1466 348 1466 437.5 1495 c 128,-1,31
 527 1524 527 1524 636 1524 c 0,32,33
 696 1524 696 1524 754.5 1518.5 c 128,-1,34
 813 1513 813 1513 858 1497 c 1,35,-1
 868 1494 l 1,36,37
 925 1479 925 1479 959.5 1470 c 128,-1,38
 994 1461 994 1461 999 1461 c 0,39,40
 1010 1461 1010 1461 1024.5 1468.5 c 128,-1,41
 1039 1476 1039 1476 1051 1487 c 1,42,-1
 1102 1487 l 1,43,44
 1103 1479 1103 1479 1106.5 1449.5 c 128,-1,45
 1110 1420 1110 1420 1114.5 1380 c 128,-1,46
 1119 1340 1119 1340 1124.5 1295 c 128,-1,47
 1130 1250 1130 1250 1134.5 1209.5 c 128,-1,48
 1139 1169 1139 1169 1142.5 1138.5 c 128,-1,49
 1146 1108 1146 1108 1147 1099 c 1,50,-1
 1051 1099 l 1,51,52
 1031 1170 1031 1170 993.5 1228.5 c 128,-1,53
 956 1287 956 1287 905 1329 c 128,-1,54
 854 1371 854 1371 792.5 1394.5 c 128,-1,55
 731 1418 731 1418 662 1418 c 0,56,57
 613 1418 613 1418 570 1405 c 128,-1,58
 527 1392 527 1392 496 1370 c 128,-1,59
 465 1348 465 1348 447 1318 c 128,-1,60
 429 1288 429 1288 429 1254 c 0,61,62
 429 1155 429 1155 554 1070 c 1,63,-1
 553 1070 l 1,64,65
 559 1067 559 1067 576.5 1058 c 128,-1,66
 594 1049 594 1049 616.5 1037 c 128,-1,67
 639 1025 639 1025 664.5 1011 c 128,-1,68
 690 997 690 997 712.5 985 c 128,-1,69
 735 973 735 973 752.5 963.5 c 128,-1,70
 770 954 770 954 777 950 c 0,71,72
 880 894 880 894 961 836.5 c 128,-1,73
 1042 779 1042 779 1092 728 c 0,74,75
 1229 592 1229 592 1229 410 c 0,76,77
 1229 323 1229 323 1191 242.5 c 128,-1,78
 1153 162 1153 162 1085 100.5 c 128,-1,79
 1017 39 1017 39 923.5 2 c 128,-1,80
 830 -35 830 -35 719 -35 c 0,81,82
 634 -35 634 -35 487 4 c 1,83,84
 342 44 342 44 310 44 c 0,85,86
 279 44 279 44 263 4 c 1,87,-1
 198 4 l 1,0,1
EndSplineSet
Substitution2: "<17016,16016> Urdu Swash lookup 115 subtable" S
EndChar

StartChar: T
Encoding: 84 84 55
Width: 1742
GlyphClass: 2
Flags: W
LayerCount: 2
Fore
SplineSet
1036 1360 m 1,0,-1
 1036 274 l 2,1,2
 1036 224 1036 224 1047 190 c 128,-1,3
 1058 156 1058 156 1087.5 135.5 c 128,-1,4
 1117 115 1117 115 1168.5 106 c 128,-1,5
 1220 97 1220 97 1300 97 c 1,6,-1
 1300 0 l 1,7,-1
 441 0 l 1,8,-1
 441 97 l 1,9,10
 516 97 516 97 566.5 108 c 128,-1,11
 617 119 617 119 647.5 141 c 128,-1,12
 678 163 678 163 691 196.5 c 128,-1,13
 704 230 704 230 704 274 c 2,14,-1
 704 1360 l 1,15,16
 529 1360 529 1360 423 1357 c 128,-1,17
 317 1354 317 1354 300 1349 c 0,18,19
 272 1340 272 1340 252 1321.5 c 128,-1,20
 232 1303 232 1303 217 1271.5 c 128,-1,21
 202 1240 202 1240 190.5 1193 c 128,-1,22
 179 1146 179 1146 167 1080 c 1,23,-1
 66 1080 l 1,24,25
 67 1093 67 1093 70.5 1127.5 c 128,-1,26
 74 1162 74 1162 78.5 1207.5 c 128,-1,27
 83 1253 83 1253 88 1303.5 c 128,-1,28
 93 1354 93 1354 97.5 1399.5 c 128,-1,29
 102 1445 102 1445 105.5 1480 c 128,-1,30
 109 1515 109 1515 110 1528 c 1,31,-1
 188 1528 l 1,32,33
 204 1515 204 1515 215.5 1506.5 c 128,-1,34
 227 1498 227 1498 236 1494 c 128,-1,35
 245 1490 245 1490 253.5 1488.5 c 128,-1,36
 262 1487 262 1487 272 1487 c 2,37,-1
 1439 1487 l 2,38,39
 1472 1487 1472 1487 1500.5 1497.5 c 128,-1,40
 1529 1508 1529 1508 1552 1528 c 1,41,-1
 1631 1528 l 1,42,43
 1633 1514 1633 1514 1636 1479.5 c 128,-1,44
 1639 1445 1639 1445 1643.5 1399.5 c 128,-1,45
 1648 1354 1648 1354 1653 1303.5 c 128,-1,46
 1658 1253 1658 1253 1662.5 1208 c 128,-1,47
 1667 1163 1667 1163 1670 1128.5 c 128,-1,48
 1673 1094 1673 1094 1674 1080 c 1,49,-1
 1574 1080 l 1,50,51
 1563 1145 1563 1145 1552 1191 c 128,-1,52
 1541 1237 1541 1237 1527.5 1268 c 128,-1,53
 1514 1299 1514 1299 1496 1317 c 128,-1,54
 1478 1335 1478 1335 1453 1344.5 c 128,-1,55
 1428 1354 1428 1354 1394.5 1357 c 128,-1,56
 1361 1360 1361 1360 1316 1360 c 2,57,-1
 1036 1360 l 1,0,-1
EndSplineSet
Substitution2: "<17016,16016> Urdu Swash lookup 115 subtable" T
EndChar

StartChar: U
Encoding: 85 85 56
Width: 1844
GlyphClass: 2
Flags: W
LayerCount: 2
Fore
SplineSet
1211 1392 m 1,0,-1
 1211 1487 l 1,1,-1
 1832 1487 l 1,2,-1
 1832 1392 l 1,3,-1
 1813 1392 l 2,4,5
 1753 1392 1753 1392 1711.5 1381.5 c 128,-1,6
 1670 1371 1670 1371 1644 1347 c 128,-1,7
 1618 1323 1618 1323 1606 1285.5 c 128,-1,8
 1594 1248 1594 1248 1594 1194 c 2,9,-1
 1594 600 l 2,10,11
 1594 444 1594 444 1550.5 325.5 c 128,-1,12
 1507 207 1507 207 1422 127 c 128,-1,13
 1337 47 1337 47 1212 6 c 128,-1,14
 1087 -35 1087 -35 923 -35 c 0,15,16
 761 -35 761 -35 631 1.5 c 128,-1,17
 501 38 501 38 409.5 108.5 c 128,-1,18
 318 179 318 179 269 282 c 128,-1,19
 220 385 220 385 220 518 c 2,20,-1
 220 1231 l 2,21,22
 220 1278 220 1278 212 1309 c 128,-1,23
 204 1340 204 1340 184.5 1358.5 c 128,-1,24
 165 1377 165 1377 133 1384.5 c 128,-1,25
 101 1392 101 1392 54 1392 c 2,26,-1
 11 1392 l 1,27,-1
 11 1487 l 1,28,-1
 761 1487 l 1,29,-1
 761 1392 l 1,30,-1
 719 1392 l 2,31,32
 551 1392 551 1392 551 1231 c 2,33,-1
 551 518 l 2,34,35
 551 424 551 424 582 351.5 c 128,-1,36
 613 279 613 279 669.5 229.5 c 128,-1,37
 726 180 726 180 805.5 154.5 c 128,-1,38
 885 129 885 129 983 129 c 0,39,40
 1093 129 1093 129 1179.5 158 c 128,-1,41
 1266 187 1266 187 1326 243 c 128,-1,42
 1386 299 1386 299 1417.5 380.5 c 128,-1,43
 1449 462 1449 462 1449 567 c 2,44,-1
 1449 1147 l 2,45,46
 1449 1231 1449 1231 1429 1285.5 c 128,-1,47
 1409 1340 1409 1340 1371 1365 c 1,48,-1
 1372 1365 l 1,49,50
 1350 1377 1350 1377 1321 1384.5 c 128,-1,51
 1292 1392 1292 1392 1255 1392 c 2,52,-1
 1211 1392 l 1,0,-1
EndSplineSet
Substitution2: "<17016,16016> Urdu Swash lookup 115 subtable" U
EndChar

StartChar: V
Encoding: 86 86 57
Width: 1793
GlyphClass: 2
Flags: W
LayerCount: 2
Fore
SplineSet
840 -35 m 1,0,1
 837 -28 837 -28 819.5 9.5 c 128,-1,2
 802 47 802 47 775.5 105.5 c 128,-1,3
 749 164 749 164 714 240.5 c 128,-1,4
 679 317 679 317 640 402 c 128,-1,5
 601 487 601 487 560 576 c 128,-1,6
 519 665 519 665 480 750.5 c 128,-1,7
 441 836 441 836 406 912.5 c 128,-1,8
 371 989 371 989 344 1048 c 128,-1,9
 317 1107 317 1107 299.5 1145 c 128,-1,10
 282 1183 282 1183 278 1191 c 0,11,12
 248 1256 248 1256 223 1295.5 c 128,-1,13
 198 1335 198 1335 170.5 1356.5 c 128,-1,14
 143 1378 143 1378 110 1385 c 128,-1,15
 77 1392 77 1392 32 1392 c 2,16,-1
 11 1392 l 1,17,-1
 11 1487 l 1,18,-1
 843 1487 l 1,19,-1
 843 1392 l 1,20,-1
 801 1392 l 2,21,22
 701 1392 701 1392 653.5 1368 c 128,-1,23
 606 1344 606 1344 606 1296 c 0,24,25
 606 1276 606 1276 614 1246.5 c 128,-1,26
 622 1217 622 1217 637 1185 c 0,27,28
 645 1167 645 1167 663.5 1127.5 c 128,-1,29
 682 1088 682 1088 707.5 1034.5 c 128,-1,30
 733 981 733 981 763 917 c 128,-1,31
 793 853 793 853 824 787.5 c 128,-1,32
 855 722 855 722 885 658.5 c 128,-1,33
 915 595 915 595 940.5 541.5 c 128,-1,34
 966 488 966 488 984.5 448.5 c 128,-1,35
 1003 409 1003 409 1011 392 c 1,36,37
 1014 400 1014 400 1031 439.5 c 128,-1,38
 1048 479 1048 479 1073.5 539 c 128,-1,39
 1099 599 1099 599 1130.5 673.5 c 128,-1,40
 1162 748 1162 748 1194.5 825 c 128,-1,41
 1227 902 1227 902 1258.5 976.5 c 128,-1,42
 1290 1051 1290 1051 1315 1110.5 c 128,-1,43
 1340 1170 1340 1170 1356.5 1209.5 c 128,-1,44
 1373 1249 1373 1249 1376 1256 c 0,45,46
 1386 1280 1386 1280 1386 1301 c 0,47,48
 1386 1323 1386 1323 1373 1340 c 128,-1,49
 1360 1357 1360 1357 1337 1368.5 c 128,-1,50
 1314 1380 1314 1380 1284 1386 c 128,-1,51
 1254 1392 1254 1392 1219 1392 c 2,52,-1
 1170 1392 l 1,53,-1
 1170 1487 l 1,54,-1
 1779 1487 l 1,55,-1
 1779 1392 l 1,56,-1
 1760 1392 l 2,57,58
 1710 1392 1710 1392 1671.5 1376 c 128,-1,59
 1633 1360 1633 1360 1601.5 1328.5 c 128,-1,60
 1570 1297 1570 1297 1543.5 1250 c 128,-1,61
 1517 1203 1517 1203 1491 1141 c 0,62,63
 1487 1132 1487 1132 1471 1094.5 c 128,-1,64
 1455 1057 1455 1057 1431 1000 c 128,-1,65
 1407 943 1407 943 1376.5 870.5 c 128,-1,66
 1346 798 1346 798 1312 717 c 128,-1,67
 1278 636 1278 636 1242 551.5 c 128,-1,68
 1206 467 1206 467 1172 386.5 c 128,-1,69
 1138 306 1138 306 1107.5 233.5 c 128,-1,70
 1077 161 1077 161 1053 104.5 c 128,-1,71
 1029 48 1029 48 1013 11 c 128,-1,72
 997 -26 997 -26 993 -35 c 1,73,-1
 840 -35 l 1,0,1
EndSplineSet
Substitution2: "<17016,16016> Urdu Swash lookup 115 subtable" V
EndChar

StartChar: W
Encoding: 87 87 58
Width: 2391
GlyphClass: 2
Flags: W
LayerCount: 2
Fore
SplineSet
1355 1015 m 1,0,1
 1360 1024 1360 1024 1371 1045 c 128,-1,2
 1382 1066 1382 1066 1395.5 1093.5 c 128,-1,3
 1409 1121 1409 1121 1424.5 1151 c 128,-1,4
 1440 1181 1440 1181 1453.5 1208 c 128,-1,5
 1467 1235 1467 1235 1477.5 1255 c 128,-1,6
 1488 1275 1488 1275 1492 1283 c 0,7,8
 1514 1327 1514 1327 1514 1349 c 0,9,10
 1514 1392 1514 1392 1417 1392 c 2,11,-1
 1289 1392 l 2,12,13
 1202 1392 1202 1392 1202 1346 c 0,14,15
 1202 1335 1202 1335 1207 1319.5 c 128,-1,16
 1212 1304 1212 1304 1220 1288 c 2,17,-1
 1355 1015 l 1,0,1
840 -35 m 1,18,19
 838 -31 838 -31 821.5 4.5 c 128,-1,20
 805 40 805 40 777.5 98 c 128,-1,21
 750 156 750 156 713.5 232 c 128,-1,22
 677 308 677 308 636.5 394 c 128,-1,23
 596 480 596 480 553 570.5 c 128,-1,24
 510 661 510 661 469.5 747 c 128,-1,25
 429 833 429 833 392 910.5 c 128,-1,26
 355 988 355 988 326.5 1048 c 128,-1,27
 298 1108 298 1108 280 1146 c 128,-1,28
 262 1184 262 1184 259 1191 c 0,29,30
 237 1237 237 1237 223 1265 c 128,-1,31
 209 1293 209 1293 206 1299 c 1,32,-1
 206 1298 l 1,33,34
 187 1328 187 1328 169 1346 c 128,-1,35
 151 1364 151 1364 131 1374.5 c 128,-1,36
 111 1385 111 1385 88 1388.5 c 128,-1,37
 65 1392 65 1392 36 1392 c 2,38,-1
 13 1392 l 1,39,-1
 13 1487 l 1,40,-1
 650 1487 l 1,41,-1
 650 1392 l 1,42,43
 604 1387 604 1387 583.5 1372 c 128,-1,44
 563 1357 563 1357 563 1333 c 0,45,46
 563 1317 563 1317 569.5 1293 c 128,-1,47
 576 1269 576 1269 587 1246 c 0,48,49
 638 1141 638 1141 694.5 1024 c 128,-1,50
 751 907 751 907 809 787.5 c 128,-1,51
 867 668 867 668 923.5 551.5 c 128,-1,52
 980 435 980 435 1029 331 c 1,53,54
 1064 407 1064 407 1103 483.5 c 128,-1,55
 1142 560 1142 560 1180 638 c 1,56,57
 1177 645 1177 645 1164 673 c 128,-1,58
 1151 701 1151 701 1131.5 742.5 c 128,-1,59
 1112 784 1112 784 1087.5 835 c 128,-1,60
 1063 886 1063 886 1038 938.5 c 128,-1,61
 1013 991 1013 991 988.5 1042 c 128,-1,62
 964 1093 964 1093 945 1133.5 c 128,-1,63
 926 1174 926 1174 913 1200.5 c 128,-1,64
 900 1227 900 1227 898 1231 c 0,65,66
 876 1278 876 1278 857.5 1308 c 128,-1,67
 839 1338 839 1338 820.5 1356.5 c 128,-1,68
 802 1375 802 1375 782.5 1383 c 128,-1,69
 763 1391 763 1391 737 1392 c 1,70,-1
 737 1487 l 1,71,-1
 1784 1487 l 1,72,-1
 1784 1392 l 1,73,74
 1745 1385 1745 1385 1719 1372 c 128,-1,75
 1693 1359 1693 1359 1673.5 1338.5 c 128,-1,76
 1654 1318 1654 1318 1638 1288.5 c 128,-1,77
 1622 1259 1622 1259 1602 1218 c 2,78,-1
 1428 865 l 1,79,80
 1434 853 1434 853 1453 814.5 c 128,-1,81
 1472 776 1472 776 1497.5 724.5 c 128,-1,82
 1523 673 1523 673 1551.5 614.5 c 128,-1,83
 1580 556 1580 556 1606 504 c 128,-1,84
 1632 452 1632 452 1651.5 412.5 c 128,-1,85
 1671 373 1671 373 1678 359 c 1,86,87
 1680 365 1680 365 1695 403 c 128,-1,88
 1710 441 1710 441 1732.5 498.5 c 128,-1,89
 1755 556 1755 556 1783.5 628 c 128,-1,90
 1812 700 1812 700 1841.5 775 c 128,-1,91
 1871 850 1871 850 1899.5 922 c 128,-1,92
 1928 994 1928 994 1950.5 1051.5 c 128,-1,93
 1973 1109 1973 1109 1988 1147 c 128,-1,94
 2003 1185 2003 1185 2005 1191 c 0,95,96
 2017 1221 2017 1221 2024 1248.5 c 128,-1,97
 2031 1276 2031 1276 2031 1297 c 0,98,99
 2031 1342 2031 1342 1997.5 1365.5 c 128,-1,100
 1964 1389 1964 1389 1891 1392 c 1,101,-1
 1891 1487 l 1,102,-1
 2378 1487 l 1,103,-1
 2378 1392 l 1,104,105
 2334 1390 2334 1390 2300.5 1378 c 128,-1,106
 2267 1366 2267 1366 2239.5 1341 c 128,-1,107
 2212 1316 2212 1316 2189.5 1276 c 128,-1,108
 2167 1236 2167 1236 2144 1179 c 0,109,110
 2133 1152 2133 1152 2109 1091.5 c 128,-1,111
 2085 1031 2085 1031 2052.5 949 c 128,-1,112
 2020 867 2020 867 1981 770 c 128,-1,113
 1942 673 1942 673 1902.5 572.5 c 128,-1,114
 1863 472 1863 472 1824 374.5 c 128,-1,115
 1785 277 1785 277 1752.5 195 c 128,-1,116
 1720 113 1720 113 1696 52.5 c 128,-1,117
 1672 -8 1672 -8 1661 -35 c 1,118,-1
 1505 -35 l 1,119,-1
 1250 491 l 1,120,121
 1242 474 1242 474 1222.5 432.5 c 128,-1,122
 1203 391 1203 391 1177.5 336.5 c 128,-1,123
 1152 282 1152 282 1123.5 222 c 128,-1,124
 1095 162 1095 162 1070.5 109.5 c 128,-1,125
 1046 57 1046 57 1027.5 17.5 c 128,-1,126
 1009 -22 1009 -22 1003 -35 c 1,127,-1
 840 -35 l 1,18,19
EndSplineSet
Substitution2: "<17016,16016> Urdu Swash lookup 115 subtable" W
EndChar

StartChar: X
Encoding: 88 88 59
Width: 1917
GlyphClass: 2
Flags: W
LayerCount: 2
Fore
SplineSet
884 597 m 1,0,1
 882 595 882 595 865.5 578 c 128,-1,2
 849 561 849 561 823.5 534.5 c 128,-1,3
 798 508 798 508 766 475 c 128,-1,4
 734 442 734 442 700.5 408 c 128,-1,5
 667 374 667 374 635 341.5 c 128,-1,6
 603 309 603 309 577.5 283 c 128,-1,7
 552 257 552 257 536 240.5 c 128,-1,8
 520 224 520 224 518 222 c 0,9,10
 501 205 501 205 491 186.5 c 128,-1,11
 481 168 481 168 481 157 c 0,12,13
 481 97 481 97 625 97 c 2,14,-1
 679 97 l 1,15,-1
 679 0 l 1,16,-1
 20 0 l 1,17,-1
 20 97 l 1,18,19
 82 104 82 104 139.5 123 c 128,-1,20
 197 142 197 142 243 169 c 1,21,22
 278 191 278 191 325 233.5 c 128,-1,23
 372 276 372 276 419 322 c 0,24,25
 433 336 433 336 462.5 366 c 128,-1,26
 492 396 492 396 530 435 c 128,-1,27
 568 474 568 474 609.5 517 c 128,-1,28
 651 560 651 560 688 598 c 128,-1,29
 725 636 725 636 753.5 665.5 c 128,-1,30
 782 695 782 695 794 707 c 1,31,32
 790 712 790 712 763.5 746 c 128,-1,33
 737 780 737 780 698.5 828.5 c 128,-1,34
 660 877 660 877 616.5 932 c 128,-1,35
 573 987 573 987 534.5 1035.5 c 128,-1,36
 496 1084 496 1084 469.5 1117.5 c 128,-1,37
 443 1151 443 1151 439 1156 c 0,38,39
 372 1240 372 1240 311.5 1294.5 c 128,-1,40
 251 1349 251 1349 207 1371 c 1,41,42
 182 1382 182 1382 154 1387 c 128,-1,43
 126 1392 126 1392 96 1392 c 2,44,-1
 37 1392 l 1,45,-1
 37 1487 l 1,46,-1
 943 1487 l 1,47,-1
 943 1392 l 1,48,-1
 856 1392 l 2,49,50
 800 1392 800 1392 769.5 1376.5 c 128,-1,51
 739 1361 739 1361 739 1341 c 0,52,53
 739 1305 739 1305 783 1250 c 1,54,55
 844 1176 844 1176 905 1100 c 128,-1,56
 966 1024 966 1024 1026 949 c 1,57,58
 1029 952 1029 952 1047 971 c 128,-1,59
 1065 990 1065 990 1091.5 1017.5 c 128,-1,60
 1118 1045 1118 1045 1148 1076 c 128,-1,61
 1178 1107 1178 1107 1203.5 1134.5 c 128,-1,62
 1229 1162 1229 1162 1247 1180 c 128,-1,63
 1265 1198 1265 1198 1266 1200 c 0,64,65
 1308 1244 1308 1244 1329.5 1279.5 c 128,-1,66
 1351 1315 1351 1315 1351 1338 c 0,67,68
 1351 1392 1351 1392 1239 1392 c 2,69,-1
 1176 1392 l 1,70,-1
 1176 1487 l 1,71,-1
 1822 1487 l 1,72,-1
 1822 1392 l 1,73,74
 1767 1390 1767 1390 1715.5 1376.5 c 128,-1,75
 1664 1363 1664 1363 1619 1337 c 0,76,77
 1586 1317 1586 1317 1544.5 1281.5 c 128,-1,78
 1503 1246 1503 1246 1458 1198 c 0,79,80
 1449 1188 1449 1188 1422 1160 c 128,-1,81
 1395 1132 1395 1132 1360 1094.5 c 128,-1,82
 1325 1057 1325 1057 1286 1015.5 c 128,-1,83
 1247 974 1247 974 1212.5 937 c 128,-1,84
 1178 900 1178 900 1152.5 872.5 c 128,-1,85
 1127 845 1127 845 1119 837 c 1,86,87
 1132 822 1132 822 1164.5 781.5 c 128,-1,88
 1197 741 1197 741 1239.5 688 c 128,-1,89
 1282 635 1282 635 1329.5 575 c 128,-1,90
 1377 515 1377 515 1420 461 c 128,-1,91
 1463 407 1463 407 1496.5 365 c 128,-1,92
 1530 323 1530 323 1544 305 c 0,93,94
 1601 233 1601 233 1661 185.5 c 128,-1,95
 1721 138 1721 138 1767 119 c 0,96,97
 1793 109 1793 109 1825.5 104 c 128,-1,98
 1858 99 1858 99 1895 97 c 1,99,-1
 1895 0 l 1,100,-1
 1058 0 l 1,101,-1
 1058 97 l 1,102,-1
 1107 97 l 2,103,104
 1167 97 1167 97 1195 114 c 128,-1,105
 1223 131 1223 131 1223 166 c 0,106,107
 1223 184 1223 184 1210.5 207 c 128,-1,108
 1198 230 1198 230 1176 255 c 2,109,-1
 884 597 l 1,0,1
EndSplineSet
Substitution2: "<17016,16016> Urdu Swash lookup 115 subtable" X
EndChar

StartChar: Y
Encoding: 89 89 60
Width: 1793
GlyphClass: 2
Flags: W
LayerCount: 2
Fore
SplineSet
1099 596 m 1,0,-1
 1099 272 l 2,1,2
 1099 174 1099 174 1148.5 135.5 c 128,-1,3
 1198 97 1198 97 1304 97 c 2,4,-1
 1341 97 l 1,5,-1
 1341 0 l 1,6,-1
 525 0 l 1,7,-1
 525 97 l 1,8,-1
 585 97 l 2,9,10
 766 97 766 97 766 267 c 2,11,-1
 766 596 l 1,12,13
 754 613 754 613 728 648 c 128,-1,14
 702 683 702 683 667 730 c 128,-1,15
 632 777 632 777 591 832 c 128,-1,16
 550 887 550 887 507.5 943 c 128,-1,17
 465 999 465 999 424 1053 c 128,-1,18
 383 1107 383 1107 349 1152.5 c 128,-1,19
 315 1198 315 1198 289.5 1231.5 c 128,-1,20
 264 1265 264 1265 253 1279 c 0,21,22
 225 1316 225 1316 202 1338.5 c 128,-1,23
 179 1361 179 1361 155.5 1373 c 128,-1,24
 132 1385 132 1385 104.5 1388.5 c 128,-1,25
 77 1392 77 1392 39 1392 c 2,26,-1
 18 1392 l 1,27,-1
 18 1487 l 1,28,-1
 800 1487 l 1,29,-1
 800 1392 l 1,30,-1
 769 1392 l 2,31,32
 702 1392 702 1392 670.5 1375.5 c 128,-1,33
 639 1359 639 1359 639 1330 c 0,34,35
 639 1319 639 1319 645.5 1304 c 128,-1,36
 652 1289 652 1289 663 1273 c 1,37,38
 757 1152 757 1152 854.5 1022.5 c 128,-1,39
 952 893 952 893 1045 770 c 1,40,41
 1053 784 1053 784 1074.5 818.5 c 128,-1,42
 1096 853 1096 853 1124 897 c 128,-1,43
 1152 941 1152 941 1183.5 990 c 128,-1,44
 1215 1039 1215 1039 1243 1082 c 128,-1,45
 1271 1125 1271 1125 1292 1157.5 c 128,-1,46
 1313 1190 1313 1190 1321 1202 c 0,47,48
 1343 1235 1343 1235 1353.5 1265.5 c 128,-1,49
 1364 1296 1364 1296 1364 1316 c 0,50,51
 1364 1392 1364 1392 1236 1392 c 2,52,-1
 1207 1392 l 1,53,-1
 1207 1487 l 1,54,-1
 1772 1487 l 1,55,-1
 1772 1392 l 1,56,57
 1723 1389 1723 1389 1687 1379 c 128,-1,58
 1651 1369 1651 1369 1621 1350 c 128,-1,59
 1591 1331 1591 1331 1563.5 1300 c 128,-1,60
 1536 1269 1536 1269 1506 1224 c 2,61,-1
 1099 596 l 1,0,-1
EndSplineSet
Substitution2: "<17016,16016> Urdu Swash lookup 115 subtable" Y
EndChar

StartChar: Z
Encoding: 90 90 61
Width: 1793
GlyphClass: 2
Flags: W
LayerCount: 2
Fore
SplineSet
1681 480 m 1,0,1
 1680 462 1680 462 1678 424.5 c 128,-1,2
 1676 387 1676 387 1673 339.5 c 128,-1,3
 1670 292 1670 292 1666.5 240 c 128,-1,4
 1663 188 1663 188 1660 141 c 128,-1,5
 1657 94 1657 94 1654.5 56 c 128,-1,6
 1652 18 1652 18 1651 0 c 1,7,-1
 138 0 l 1,8,-1
 138 133 l 1,9,-1
 1197 1353 l 1,10,-1
 558 1353 l 2,11,12
 503 1353 503 1353 463 1338 c 128,-1,13
 423 1323 423 1323 395.5 1291 c 128,-1,14
 368 1259 368 1259 352.5 1208 c 128,-1,15
 337 1157 337 1157 331 1085 c 1,16,-1
 237 1085 l 1,17,18
 237 1094 237 1094 238.5 1124.5 c 128,-1,19
 240 1155 240 1155 241.5 1196.5 c 128,-1,20
 243 1238 243 1238 244.5 1285 c 128,-1,21
 246 1332 246 1332 248 1374 c 128,-1,22
 250 1416 250 1416 251 1447 c 128,-1,23
 252 1478 252 1478 253 1487 c 1,24,-1
 1636 1487 l 1,25,-1
 1636 1349 l 1,26,-1
 578 133 l 1,27,-1
 1304 133 l 2,28,29
 1370 133 1370 133 1425 163 c 128,-1,30
 1480 193 1480 193 1511 243 c 0,31,32
 1530 272 1530 272 1548.5 335.5 c 128,-1,33
 1567 399 1567 399 1587 480 c 1,34,-1
 1681 480 l 1,0,1
EndSplineSet
Substitution2: "<17016,16016> Urdu Swash lookup 115 subtable" Z
EndChar

StartChar: bracketleft
Encoding: 91 91 62
Width: 730
GlyphClass: 2
Flags: W
LayerCount: 2
Fore
SplineSet
630 1751 m 1,0,-1
 630 1380 l 1,1,-1
 373 1380 l 1,2,-1
 373 -137 l 1,3,-1
 630 -137 l 1,4,-1
 630 -510 l 1,5,-1
 110 -510 l 1,6,-1
 110 1751 l 1,7,-1
 630 1751 l 1,0,-1
EndSplineSet
Substitution2: "<17016,16016> Urdu Swash lookup 115 subtable" bracketleft
EndChar

StartChar: backslash
Encoding: 92 92 63
Width: 1269
GlyphClass: 2
Flags: W
LayerCount: 2
Fore
SplineSet
303 1532 m 1,0,1
 318 1505 318 1505 348.5 1448.5 c 128,-1,2
 379 1392 379 1392 420.5 1315.5 c 128,-1,3
 462 1239 462 1239 513 1146 c 128,-1,4
 564 1053 564 1053 619 951.5 c 128,-1,5
 674 850 674 850 731 744.5 c 128,-1,6
 788 639 788 639 843 538 c 128,-1,7
 898 437 898 437 948.5 343.5 c 128,-1,8
 999 250 999 250 1040.5 173.5 c 128,-1,9
 1082 97 1082 97 1112.5 40.5 c 128,-1,10
 1143 -16 1143 -16 1158 -44 c 1,11,-1
 964 -44 l 1,12,13
 962 -41 962 -41 938 3.5 c 128,-1,14
 914 48 914 48 873.5 122.5 c 128,-1,15
 833 197 833 197 780 295.5 c 128,-1,16
 727 394 727 394 667 504 c 128,-1,17
 607 614 607 614 543.5 731 c 128,-1,18
 480 848 480 848 419.5 959.5 c 128,-1,19
 359 1071 359 1071 304.5 1171.5 c 128,-1,20
 250 1272 250 1272 208 1349 c 128,-1,21
 166 1426 166 1426 139.5 1475 c 128,-1,22
 113 1524 113 1524 109 1532 c 1,23,-1
 303 1532 l 1,0,1
EndSplineSet
Substitution2: "<17016,16016> Urdu Swash lookup 115 subtable" backslash
EndChar

StartChar: bracketright
Encoding: 93 93 64
Width: 780
GlyphClass: 2
Flags: W
LayerCount: 2
Fore
SplineSet
110 1751 m 1,0,-1
 630 1751 l 1,1,-1
 630 -510 l 1,2,-1
 110 -510 l 1,3,-1
 110 -137 l 1,4,-1
 369 -137 l 1,5,-1
 369 1380 l 1,6,-1
 110 1380 l 1,7,-1
 110 1751 l 1,0,-1
EndSplineSet
Substitution2: "<17016,16016> Urdu Swash lookup 115 subtable" bracketright
EndChar

StartChar: asciicircum
Encoding: 94 94 65
Width: 1394
GlyphClass: 2
Flags: W
LayerCount: 2
Fore
SplineSet
171 759 m 1,0,1
 181 777 181 777 205 819 c 128,-1,2
 229 861 229 861 261 918 c 128,-1,3
 293 975 293 975 331.5 1042.5 c 128,-1,4
 370 1110 370 1110 409.5 1179.5 c 128,-1,5
 449 1249 449 1249 487.5 1316.5 c 128,-1,6
 526 1384 526 1384 558 1441 c 128,-1,7
 590 1498 590 1498 614 1539.5 c 128,-1,8
 638 1581 638 1581 648 1599 c 1,9,-1
 745 1599 l 1,10,11
 750 1590 750 1590 771 1553 c 128,-1,12
 792 1516 792 1516 823 1461 c 128,-1,13
 854 1406 854 1406 892.5 1338 c 128,-1,14
 931 1270 931 1270 972 1198 c 128,-1,15
 1013 1126 1013 1126 1052.5 1055.5 c 128,-1,16
 1092 985 1092 985 1126 925.5 c 128,-1,17
 1160 866 1160 866 1185 822 c 128,-1,18
 1210 778 1210 778 1220 759 c 1,19,-1
 1020 759 l 1,20,-1
 695 1333 l 1,21,22
 692 1328 692 1328 678 1303 c 128,-1,23
 664 1278 664 1278 642.5 1240 c 128,-1,24
 621 1202 621 1202 594 1154.5 c 128,-1,25
 567 1107 567 1107 539 1057 c 128,-1,26
 511 1007 511 1007 483 958 c 128,-1,27
 455 909 455 909 432 868.5 c 128,-1,28
 409 828 409 828 392.5 799 c 128,-1,29
 376 770 376 770 370 759 c 1,30,-1
 171 759 l 1,0,1
EndSplineSet
Substitution2: "<17016,16016> Urdu Swash lookup 115 subtable" asciicircum
EndChar

StartChar: underscore
Encoding: 95 95 66
Width: 1195
GlyphClass: 2
Flags: W
LayerCount: 2
Fore
SplineSet
1214 -298 m 1,0,-1
 -18 -298 l 1,1,-1
 -18 -177 l 1,2,-1
 1214 -177 l 1,3,-1
 1214 -298 l 1,0,-1
EndSplineSet
Substitution2: "<17016,16016> Urdu Swash lookup 115 subtable" underscore
EndChar

StartChar: grave
Encoding: 96 96 67
Width: 796
GlyphClass: 2
Flags: W
LayerCount: 2
Fore
SplineSet
580 1140 m 1,0,-1
 440 1140 l 1,1,2
 431 1150 431 1150 399 1183 c 128,-1,3
 367 1216 367 1216 324 1262 c 128,-1,4
 281 1308 281 1308 231.5 1360 c 128,-1,5
 182 1412 182 1412 137.5 1459 c 128,-1,6
 93 1506 93 1506 59 1542.5 c 128,-1,7
 25 1579 25 1579 12 1592 c 1,8,-1
 403 1592 l 1,9,-1
 580 1140 l 1,0,-1
EndSplineSet
Substitution2: "<17016,16016> Urdu Swash lookup 115 subtable" grave
EndChar

StartChar: a
Encoding: 97 97 68
Width: 1145
GlyphClass: 2
Flags: W
LayerCount: 2
Fore
SplineSet
656 547 m 1,0,1
 638 531 638 531 607 512.5 c 128,-1,2
 576 494 576 494 545 478 c 128,-1,3
 514 462 514 462 490 451 c 128,-1,4
 466 440 466 440 463 439 c 0,5,6
 380 388 380 388 380 274 c 0,7,8
 380 240 380 240 388 210 c 128,-1,9
 396 180 396 180 411 157.5 c 128,-1,10
 426 135 426 135 448 122.5 c 128,-1,11
 470 110 470 110 498 110 c 0,12,13
 523 110 523 110 565 138 c 128,-1,14
 607 166 607 166 656 211 c 1,15,-1
 656 547 l 1,0,1
1103 120 m 1,16,17
 1074 91 1074 91 1039.5 65 c 128,-1,18
 1005 39 1005 39 969 19.5 c 128,-1,19
 933 0 933 0 897.5 -11 c 128,-1,20
 862 -22 862 -22 831 -22 c 0,21,22
 762 -22 762 -22 718.5 12 c 128,-1,23
 675 46 675 46 661 120 c 1,24,25
 578 43 578 43 531 14 c 0,26,27
 498 -6 498 -6 456.5 -15 c 128,-1,28
 415 -24 415 -24 367 -25 c 1,29,30
 305 -25 305 -25 254 -7.5 c 128,-1,31
 203 10 203 10 167 43 c 128,-1,32
 131 76 131 76 111.5 122.5 c 128,-1,33
 92 169 92 169 92 227 c 0,34,35
 92 346 92 346 165 416 c 0,36,37
 194 444 194 444 249.5 471.5 c 128,-1,38
 305 499 305 499 389 525 c 0,39,40
 470 551 470 551 539 586 c 128,-1,41
 608 621 608 621 656 658 c 1,42,-1
 656 746 l 2,43,44
 656 779 656 779 645 808 c 128,-1,45
 634 837 634 837 614 858.5 c 128,-1,46
 594 880 594 880 567 892.5 c 128,-1,47
 540 905 540 905 507 905 c 0,48,49
 382 905 382 905 382 769 c 0,50,51
 382 744 382 744 385 721 c 1,52,53
 324 699 324 699 252 674.5 c 128,-1,54
 180 650 180 650 114 628 c 1,55,56
 105 673 105 673 105 712 c 0,57,58
 105 794 105 794 169.5 856.5 c 128,-1,59
 234 919 234 919 349 961 c 0,60,61
 407 983 407 983 460 992.5 c 128,-1,62
 513 1002 513 1002 560 1003 c 1,63,64
 629 1003 629 1003 698.5 984.5 c 128,-1,65
 768 966 768 966 824 929 c 128,-1,66
 880 892 880 892 915 837 c 128,-1,67
 950 782 950 782 950 710 c 2,68,-1
 950 260 l 2,69,70
 950 152 950 152 1001 152 c 0,71,72
 1024 152 1024 152 1065 180 c 1,73,-1
 1103 120 l 1,16,17
EndSplineSet
Substitution2: "<17016,16016> Urdu Swash lookup 115 subtable" a
EndChar

StartChar: b
Encoding: 98 98 69
Width: 1370
GlyphClass: 2
Flags: W
LayerCount: 2
Fore
SplineSet
480 402 m 2,0,1
 480 78 480 78 693 78 c 0,2,3
 758 78 758 78 808 103.5 c 128,-1,4
 858 129 858 129 892.5 176.5 c 128,-1,5
 927 224 927 224 945 290.5 c 128,-1,6
 963 357 963 357 963 439 c 0,7,8
 963 518 963 518 944 586 c 128,-1,9
 925 654 925 654 889 704 c 128,-1,10
 853 754 853 754 802.5 782.5 c 128,-1,11
 752 811 752 811 689 811 c 0,12,13
 633 811 633 811 579 778.5 c 128,-1,14
 525 746 525 746 480 688 c 1,15,-1
 480 402 l 2,0,1
186 1249 m 2,16,17
 186 1294 186 1294 182.5 1320 c 128,-1,18
 179 1346 179 1346 164 1362.5 c 128,-1,19
 149 1379 149 1379 120 1391 c 128,-1,20
 91 1403 91 1403 40 1422 c 1,21,-1
 40 1482 l 1,22,23
 47 1484 47 1484 74.5 1493 c 128,-1,24
 102 1502 102 1502 140 1514.5 c 128,-1,25
 178 1527 178 1527 221 1541 c 128,-1,26
 264 1555 264 1555 301.5 1567 c 128,-1,27
 339 1579 339 1579 367 1588 c 128,-1,28
 395 1597 395 1597 402 1599 c 1,29,-1
 480 1599 l 1,30,-1
 480 804 l 1,31,32
 588 904 588 904 685.5 953.5 c 128,-1,33
 783 1003 783 1003 878 1003 c 0,34,35
 1099 1003 1099 1003 1211 773 c 0,36,37
 1263 664 1263 664 1263 542 c 0,38,39
 1263 297 1263 297 1090 136 c 0,40,41
 1003 55 1003 55 897.5 15 c 128,-1,42
 792 -25 792 -25 662 -25 c 0,43,44
 571 -25 571 -25 449 -5.5 c 128,-1,45
 327 14 327 14 186 51 c 1,46,-1
 186 1249 l 2,16,17
EndSplineSet
Substitution2: "<17016,16016> Urdu Swash lookup 115 subtable" b
EndChar

StartChar: c
Encoding: 99 99 70
AltUni2: 00217d.ffffffff.0
Width: 1172
GlyphClass: 2
Flags: W
LayerCount: 2
Fore
SplineSet
1097 231 m 1,0,1
 1012 107 1012 107 888.5 41 c 128,-1,2
 765 -25 765 -25 607 -25 c 0,3,4
 304 -25 304 -25 171 204 c 0,5,6
 139 258 139 258 122.5 318.5 c 128,-1,7
 106 379 106 379 106 448 c 0,8,9
 106 605 106 605 188 733 c 0,10,11
 228 794 228 794 284.5 843 c 128,-1,12
 341 892 341 892 413 930 c 0,13,14
 555 1003 555 1003 725 1003 c 0,15,16
 799 1003 799 1003 864.5 989 c 128,-1,17
 930 975 930 975 979 948.5 c 128,-1,18
 1028 922 1028 922 1057 884 c 128,-1,19
 1086 846 1086 846 1086 799 c 0,20,21
 1086 679 1086 679 964 679 c 0,22,23
 877 679 877 679 782 784 c 1,24,25
 688 891 688 891 622 891 c 0,26,27
 576 891 576 891 538.5 862 c 128,-1,28
 501 833 501 833 475 783.5 c 128,-1,29
 449 734 449 734 434.5 668.5 c 128,-1,30
 420 603 420 603 420 530 c 0,31,32
 420 440 420 440 441 361.5 c 128,-1,33
 462 283 462 283 501 225 c 128,-1,34
 540 167 540 167 595.5 134 c 128,-1,35
 651 101 651 101 719 101 c 0,36,37
 798 101 798 101 876 145.5 c 128,-1,38
 954 190 954 190 1024 271 c 1,39,-1
 1097 231 l 1,0,1
EndSplineSet
Substitution2: "<17016,16016> Urdu Swash lookup 115 subtable" c
EndChar

StartChar: d
Encoding: 100 100 71
AltUni2: 00217e.ffffffff.0
Width: 1370
GlyphClass: 2
Flags: W
LayerCount: 2
Fore
SplineSet
875 802 m 1,0,1
 818 852 818 852 759 878.5 c 128,-1,2
 700 905 700 905 646 905 c 0,3,4
 585 905 585 905 537.5 880 c 128,-1,5
 490 855 490 855 458.5 808.5 c 128,-1,6
 427 762 427 762 410.5 697 c 128,-1,7
 394 632 394 632 394 552 c 0,8,9
 394 469 394 469 412.5 397 c 128,-1,10
 431 325 431 325 465.5 271.5 c 128,-1,11
 500 218 500 218 549 187 c 128,-1,12
 598 156 598 156 660 156 c 0,13,14
 713 156 713 156 769 188.5 c 128,-1,15
 825 221 825 221 875 275 c 1,16,-1
 875 802 l 1,0,1
875 -25 m 1,17,-1
 875 163 l 1,18,19
 659 -25 659 -25 491 -25 c 0,20,21
 405 -25 405 -25 333.5 10.5 c 128,-1,22
 262 46 262 46 211 107 c 128,-1,23
 160 168 160 168 131.5 250.5 c 128,-1,24
 103 333 103 333 103 426 c 0,25,26
 103 511 103 511 123 590 c 128,-1,27
 143 669 143 669 180 738 c 1,28,29
 222 808 222 808 281 863.5 c 128,-1,30
 340 919 340 919 410 954 c 1,31,32
 462 976 462 976 526.5 989.5 c 128,-1,33
 591 1003 591 1003 660 1003 c 0,34,35
 715 1003 715 1003 770 994 c 128,-1,36
 825 985 825 985 875 971 c 1,37,-1
 875 1276 l 2,38,39
 875 1306 875 1306 867 1329.5 c 128,-1,40
 859 1353 859 1353 840 1370 c 128,-1,41
 821 1387 821 1387 790 1399 c 128,-1,42
 759 1411 759 1411 713 1420 c 1,43,-1
 713 1480 l 1,44,45
 721 1483 721 1483 749.5 1492 c 128,-1,46
 778 1501 778 1501 817 1513.5 c 128,-1,47
 856 1526 856 1526 899.5 1540 c 128,-1,48
 943 1554 943 1554 982 1566.5 c 128,-1,49
 1021 1579 1021 1579 1049.5 1588 c 128,-1,50
 1078 1597 1078 1597 1086 1599 c 1,51,-1
 1166 1599 l 1,52,-1
 1166 317 l 2,53,54
 1166 227 1166 227 1176 198 c 0,55,56
 1194 140 1194 140 1262 140 c 0,57,58
 1294 140 1294 140 1334 154 c 1,59,-1
 1334 76 l 1,60,61
 1326 74 1326 74 1295.5 66.5 c 128,-1,62
 1265 59 1265 59 1224.5 48.5 c 128,-1,63
 1184 38 1184 38 1137.5 26 c 128,-1,64
 1091 14 1091 14 1049.5 3.5 c 128,-1,65
 1008 -7 1008 -7 977.5 -15 c 128,-1,66
 947 -23 947 -23 937 -25 c 1,67,-1
 875 -25 l 1,17,-1
EndSplineSet
Substitution2: "<17016,16016> Urdu Swash lookup 115 subtable" d
EndChar

StartChar: e
Encoding: 101 101 72
Width: 1145
GlyphClass: 2
Flags: W
LayerCount: 2
Fore
SplineSet
740 594 m 1,0,1
 736 736 736 736 694 812.5 c 128,-1,2
 652 889 652 889 571 889 c 0,3,4
 539 889 539 889 508 871.5 c 128,-1,5
 477 854 477 854 453 821.5 c 128,-1,6
 429 789 429 789 414.5 742 c 128,-1,7
 400 695 400 695 400 635 c 0,8,9
 400 627 400 627 401 615 c 128,-1,10
 402 603 402 603 403 594 c 1,11,-1
 740 594 l 1,0,1
1051 279 m 1,12,13
 1005 216 1005 216 948.5 161 c 128,-1,14
 892 106 892 106 829 64 c 1,15,16
 758 22 758 22 684.5 -1.5 c 128,-1,17
 611 -25 611 -25 538 -25 c 0,18,19
 445 -25 445 -25 365 9 c 128,-1,20
 285 43 285 43 226.5 106.5 c 128,-1,21
 168 170 168 170 134.5 260.5 c 128,-1,22
 101 351 101 351 101 463 c 0,23,24
 101 577 101 577 137 675.5 c 128,-1,25
 173 774 173 774 240 847 c 128,-1,26
 307 920 307 920 401 961.5 c 128,-1,27
 495 1003 495 1003 612 1003 c 0,28,29
 692 1003 692 1003 759.5 978 c 128,-1,30
 827 953 827 953 879.5 908 c 128,-1,31
 932 863 932 863 968 801.5 c 128,-1,32
 1004 740 1004 740 1020 666 c 0,33,34
 1028 628 1028 628 1040 605 c 128,-1,35
 1052 582 1052 582 1071 570 c 1,36,-1
 1071 499 l 1,37,-1
 409 499 l 1,38,39
 420 436 420 436 447.5 374 c 128,-1,40
 475 312 475 312 514 263 c 128,-1,41
 553 214 553 214 601 184 c 128,-1,42
 649 154 649 154 703 154 c 0,43,44
 828 154 828 154 993 327 c 1,45,-1
 1051 279 l 1,12,13
EndSplineSet
Substitution2: "<17016,16016> Urdu Swash lookup 115 subtable" e
EndChar

StartChar: f
Encoding: 102 102 73
Width: 773
GlyphClass: 2
Flags: W
LayerCount: 2
Fore
SplineSet
492 850 m 1,0,-1
 492 267 l 2,1,2
 492 211 492 211 505.5 174.5 c 128,-1,3
 519 138 519 138 545.5 116.5 c 128,-1,4
 572 95 572 95 609.5 86.5 c 128,-1,5
 647 78 647 78 695 78 c 2,6,-1
 747 78 l 1,7,-1
 747 0 l 1,8,-1
 20 0 l 1,9,-1
 20 78 l 1,10,-1
 65 78 l 2,11,12
 139 78 139 78 168 118.5 c 128,-1,13
 197 159 197 159 197 244 c 2,14,-1
 197 850 l 1,15,-1
 20 850 l 1,16,-1
 20 900 l 1,17,-1
 200 977 l 1,18,19
 204 1119 204 1119 258.5 1239.5 c 128,-1,20
 313 1360 313 1360 416 1449 c 1,21,22
 510 1524 510 1524 612.5 1565.5 c 128,-1,23
 715 1607 715 1607 820 1607 c 0,24,25
 871 1607 871 1607 926 1595 c 128,-1,26
 981 1583 981 1583 1026.5 1562.5 c 128,-1,27
 1072 1542 1072 1542 1101.5 1514.5 c 128,-1,28
 1131 1487 1131 1487 1131 1456 c 0,29,30
 1131 1447 1131 1447 1120 1430.5 c 128,-1,31
 1109 1414 1109 1414 1094 1394.5 c 128,-1,32
 1079 1375 1079 1375 1063.5 1356 c 128,-1,33
 1048 1337 1048 1337 1038 1323 c 256,34,35
 1028 1309 1028 1309 1013 1300 c 128,-1,36
 998 1291 998 1291 987 1291 c 0,37,38
 979 1291 979 1291 957.5 1304 c 128,-1,39
 936 1317 936 1317 907.5 1338 c 128,-1,40
 879 1359 879 1359 845.5 1386 c 128,-1,41
 812 1413 812 1413 779 1441 c 1,42,43
 759 1454 759 1454 732.5 1461.5 c 128,-1,44
 706 1469 706 1469 680 1469 c 0,45,46
 492 1469 492 1469 492 1211 c 2,47,-1
 492 977 l 1,48,-1
 728 977 l 1,49,50
 725 947 725 947 720.5 914.5 c 128,-1,51
 716 882 716 882 713 850 c 1,52,-1
 492 850 l 1,0,-1
EndSplineSet
Substitution2: "<17016,16016> Urdu Swash lookup 115 subtable" f
EndChar

StartChar: g
Encoding: 103 103 74
Width: 1320
GlyphClass: 2
Flags: W
LayerCount: 2
Fore
SplineSet
435 672 m 0,0,1
 435 409 435 409 631 409 c 0,2,3
 798 409 798 409 798 619 c 0,4,5
 798 751 798 751 750 824.5 c 128,-1,6
 702 898 702 898 609 898 c 0,7,8
 435 898 435 898 435 672 c 0,0,1
657 -129 m 2,9,10
 598 -129 598 -129 545 -123.5 c 128,-1,11
 492 -118 492 -118 447 -110 c 1,12,13
 408 -140 408 -140 380 -176 c 128,-1,14
 352 -212 352 -212 352 -242 c 0,15,16
 352 -281 352 -281 379 -317.5 c 128,-1,17
 406 -354 406 -354 453.5 -383 c 128,-1,18
 501 -412 501 -412 565.5 -429.5 c 128,-1,19
 630 -447 630 -447 705 -447 c 0,20,21
 775 -447 775 -447 837 -433 c 128,-1,22
 899 -419 899 -419 945.5 -392.5 c 128,-1,23
 992 -366 992 -366 1019 -329 c 128,-1,24
 1046 -292 1046 -292 1046 -246 c 0,25,26
 1046 -129 1046 -129 849 -129 c 2,27,-1
 657 -129 l 2,9,10
1286 993 m 1,28,-1
 1286 745 l 1,29,-1
 1051 800 l 1,30,31
 1096 734 1096 734 1096 648 c 0,32,33
 1096 560 1096 560 1051 493.5 c 128,-1,34
 1006 427 1006 427 921 384 c 0,35,36
 890 369 890 369 849.5 356.5 c 128,-1,37
 809 344 809 344 765 335.5 c 128,-1,38
 721 327 721 327 676 322 c 128,-1,39
 631 317 631 317 591 316 c 1,40,41
 546 300 546 300 510 285 c 128,-1,42
 474 270 474 270 448 255.5 c 128,-1,43
 422 241 422 241 408 228.5 c 128,-1,44
 394 216 394 216 394 205 c 0,45,46
 394 125 394 125 689 125 c 2,47,-1
 899 125 l 2,48,49
 977 125 977 125 1043.5 106.5 c 128,-1,50
 1110 88 1110 88 1159 52.5 c 128,-1,51
 1208 17 1208 17 1235.5 -35 c 128,-1,52
 1263 -87 1263 -87 1263 -153 c 0,53,54
 1263 -234 1263 -234 1217 -306.5 c 128,-1,55
 1171 -379 1171 -379 1084 -433 c 128,-1,56
 997 -487 997 -487 871.5 -519 c 128,-1,57
 746 -551 746 -551 587 -551 c 0,58,59
 485 -551 485 -551 396 -534 c 128,-1,60
 307 -517 307 -517 241 -485.5 c 128,-1,61
 175 -454 175 -454 137 -409.5 c 128,-1,62
 99 -365 99 -365 99 -311 c 0,63,64
 99 -268 99 -268 123.5 -234 c 128,-1,65
 148 -200 148 -200 191 -178 c 1,66,67
 231 -161 231 -161 254.5 -149.5 c 128,-1,68
 278 -138 278 -138 292 -128 c 128,-1,69
 306 -118 306 -118 314 -108.5 c 128,-1,70
 322 -99 322 -99 331 -86 c 1,71,72
 127 -10 127 -10 127 139 c 0,73,74
 127 184 127 184 160 219 c 128,-1,75
 193 254 193 254 254 283 c 0,76,77
 277 293 277 293 326 308.5 c 128,-1,78
 375 324 375 324 438 344 c 1,79,80
 354 349 354 349 291.5 388 c 128,-1,81
 229 427 229 427 182 499 c 0,82,83
 162 531 162 531 150.5 566.5 c 128,-1,84
 139 602 139 602 138 636 c 1,85,86
 138 710 138 710 173 776.5 c 128,-1,87
 208 843 208 843 272 893.5 c 128,-1,88
 336 944 336 944 426.5 973.5 c 128,-1,89
 517 1003 517 1003 627 1003 c 0,90,91
 717 1003 717 1003 802 975.5 c 128,-1,92
 887 948 887 948 950 908 c 1,93,-1
 1286 993 l 1,28,-1
EndSplineSet
Substitution2: "<17016,16016> Urdu Swash lookup 115 subtable" g
EndChar

StartChar: h
Encoding: 104 104 75
Width: 1346
GlyphClass: 2
Flags: W
LayerCount: 2
Fore
SplineSet
480 242 m 2,0,1
 480 188 480 188 487.5 156 c 128,-1,2
 495 124 495 124 510 106.5 c 128,-1,3
 525 89 525 89 548.5 83.5 c 128,-1,4
 572 78 572 78 603 78 c 2,5,-1
 628 78 l 1,6,-1
 628 0 l 1,7,-1
 20 0 l 1,8,-1
 20 78 l 1,9,-1
 56 78 l 2,10,11
 100 78 100 78 126 87.5 c 128,-1,12
 152 97 152 97 165.5 117.5 c 128,-1,13
 179 138 179 138 182.5 171 c 128,-1,14
 186 204 186 204 186 251 c 2,15,-1
 186 1295 l 2,16,17
 186 1329 186 1329 180.5 1348 c 128,-1,18
 175 1367 175 1367 159.5 1379.5 c 128,-1,19
 144 1392 144 1392 116 1401.5 c 128,-1,20
 88 1411 88 1411 42 1425 c 1,21,-1
 42 1482 l 1,22,23
 50 1485 50 1485 79 1494 c 128,-1,24
 108 1503 108 1503 147 1515.5 c 128,-1,25
 186 1528 186 1528 230 1541.5 c 128,-1,26
 274 1555 274 1555 313.5 1567.5 c 128,-1,27
 353 1580 353 1580 382 1588.5 c 128,-1,28
 411 1597 411 1597 419 1599 c 1,29,-1
 480 1599 l 1,30,-1
 480 822 l 1,31,32
 736 1003 736 1003 909 1003 c 0,33,34
 994 1003 994 1003 1052.5 953 c 128,-1,35
 1111 903 1111 903 1141 814 c 1,36,37
 1168 720 1168 720 1168 579 c 2,38,-1
 1168 265 l 2,39,40
 1168 220 1168 220 1171.5 187 c 128,-1,41
 1175 154 1175 154 1180 136 c 1,42,43
 1191 109 1191 109 1216.5 93.5 c 128,-1,44
 1242 78 1242 78 1276 78 c 2,45,-1
 1300 78 l 1,46,-1
 1300 0 l 1,47,-1
 736 0 l 1,48,-1
 736 78 l 1,49,-1
 755 78 l 2,50,51
 790 78 790 78 813.5 85.5 c 128,-1,52
 837 93 837 93 851 112 c 128,-1,53
 865 131 865 131 871 165 c 128,-1,54
 877 199 877 199 877 251 c 2,55,-1
 877 612 l 2,56,57
 877 822 877 822 722 822 c 0,58,59
 673 822 673 822 608.5 798 c 128,-1,60
 544 774 544 774 480 732 c 1,61,-1
 480 242 l 2,0,1
EndSplineSet
Substitution2: "<17016,16016> Urdu Swash lookup 115 subtable" h
EndChar

StartChar: i
Encoding: 105 105 76
Width: 697
GlyphClass: 2
Flags: W
LayerCount: 2
Fore
SplineSet
333 1571 m 0,0,1
 371 1571 371 1571 405.5 1559 c 128,-1,2
 440 1547 440 1547 465.5 1525.5 c 128,-1,3
 491 1504 491 1504 506 1473.5 c 128,-1,4
 521 1443 521 1443 521 1407 c 256,5,6
 521 1371 521 1371 505.5 1341 c 128,-1,7
 490 1311 490 1311 464 1289 c 128,-1,8
 438 1267 438 1267 404 1255 c 128,-1,9
 370 1243 370 1243 333 1243 c 0,10,11
 293 1243 293 1243 258 1255.5 c 128,-1,12
 223 1268 223 1268 197 1289.5 c 128,-1,13
 171 1311 171 1311 155.5 1341 c 128,-1,14
 140 1371 140 1371 140 1407 c 0,15,16
 140 1440 140 1440 156.5 1470 c 128,-1,17
 173 1500 173 1500 200 1522.5 c 128,-1,18
 227 1545 227 1545 261.5 1558 c 128,-1,19
 296 1571 296 1571 333 1571 c 0,0,1
635 0 m 1,20,-1
 36 0 l 1,21,-1
 36 78 l 1,22,-1
 62 78 l 2,23,24
 133 78 133 78 163.5 115.5 c 128,-1,25
 194 153 194 153 194 244 c 2,26,-1
 194 703 l 2,27,28
 194 731 194 731 187.5 748.5 c 128,-1,29
 181 766 181 766 163.5 779.5 c 128,-1,30
 146 793 146 793 115 805 c 128,-1,31
 84 817 84 817 36 834 c 1,32,-1
 36 893 l 1,33,34
 134 925 134 925 241 961 c 128,-1,35
 348 997 348 997 446 1030 c 1,36,-1
 490 1030 l 1,37,-1
 490 229 l 2,38,39
 490 155 490 155 527 117.5 c 128,-1,40
 564 80 564 80 635 78 c 1,41,-1
 635 0 l 1,20,-1
EndSplineSet
Substitution2: "<17016,16016> Urdu Swash lookup 115 subtable" i
EndChar

StartChar: j
Encoding: 106 106 77
Width: 672
GlyphClass: 2
Flags: W
LayerCount: 2
Fore
SplineSet
338 1571 m 0,0,1
 379 1571 379 1571 413 1559.5 c 128,-1,2
 447 1548 447 1548 472.5 1526.5 c 128,-1,3
 498 1505 498 1505 512 1474.5 c 128,-1,4
 526 1444 526 1444 526 1407 c 0,5,6
 526 1371 526 1371 510.5 1341 c 128,-1,7
 495 1311 495 1311 469 1289 c 128,-1,8
 443 1267 443 1267 409 1255 c 128,-1,9
 375 1243 375 1243 338 1243 c 0,10,11
 299 1243 299 1243 264 1255.5 c 128,-1,12
 229 1268 229 1268 202.5 1289.5 c 128,-1,13
 176 1311 176 1311 161 1341 c 128,-1,14
 146 1371 146 1371 146 1407 c 0,15,16
 146 1440 146 1440 162 1470 c 128,-1,17
 178 1500 178 1500 205 1522.5 c 128,-1,18
 232 1545 232 1545 266.5 1558 c 128,-1,19
 301 1571 301 1571 338 1571 c 0,0,1
492 1030 m 1,20,-1
 492 12 l 2,21,22
 492 -105 492 -105 458 -207 c 128,-1,23
 424 -309 424 -309 357 -384.5 c 128,-1,24
 290 -460 290 -460 192.5 -503.5 c 128,-1,25
 95 -547 95 -547 -33 -547 c 0,26,27
 -278 -547 -278 -547 -278 -404 c 0,28,29
 -278 -376 -278 -376 -265 -350 c 128,-1,30
 -252 -324 -252 -324 -230.5 -304.5 c 128,-1,31
 -209 -285 -209 -285 -182 -273.5 c 128,-1,32
 -155 -262 -155 -262 -127 -262 c 0,33,34
 -94 -262 -94 -262 -58.5 -283.5 c 128,-1,35
 -23 -305 -23 -305 11 -345 c 0,36,37
 40 -380 40 -380 64.5 -399.5 c 128,-1,38
 89 -419 89 -419 103 -419 c 0,39,40
 197 -419 197 -419 197 -208 c 2,41,-1
 197 697 l 2,42,43
 197 732 197 732 191 750 c 128,-1,44
 185 768 185 768 171 778.5 c 128,-1,45
 157 789 157 789 134.5 797 c 128,-1,46
 112 805 112 805 80 820 c 0,47,48
 70 825 70 825 59 827.5 c 128,-1,49
 48 830 48 830 39 835 c 1,50,-1
 39 893 l 1,51,52
 49 897 49 897 80 907.5 c 128,-1,53
 111 918 111 918 152.5 932 c 128,-1,54
 194 946 194 946 241 962 c 128,-1,55
 288 978 288 978 329.5 992 c 128,-1,56
 371 1006 371 1006 402 1016 c 128,-1,57
 433 1026 433 1026 443 1030 c 1,58,-1
 492 1030 l 1,20,-1
EndSplineSet
Substitution2: "<17016,16016> Urdu Swash lookup 115 subtable" j
EndChar

StartChar: k
Encoding: 107 107 78
Width: 1296
GlyphClass: 2
Flags: W
LayerCount: 2
Fore
SplineSet
744 640 m 1,0,1
 747 637 747 637 762.5 617.5 c 128,-1,2
 778 598 778 598 802 568.5 c 128,-1,3
 826 539 826 539 855.5 502 c 128,-1,4
 885 465 885 465 916 426.5 c 128,-1,5
 947 388 947 388 976.5 351 c 128,-1,6
 1006 314 1006 314 1030 284 c 128,-1,7
 1054 254 1054 254 1069.5 234.5 c 128,-1,8
 1085 215 1085 215 1088 211 c 0,9,10
 1137 151 1137 151 1185.5 114.5 c 128,-1,11
 1234 78 1234 78 1272 78 c 2,12,-1
 1294 78 l 1,13,-1
 1294 0 l 1,14,-1
 740 0 l 1,15,-1
 740 78 l 1,16,17
 766 79 766 79 781 86 c 128,-1,18
 796 93 796 93 796 107 c 0,19,20
 796 115 796 115 790.5 127.5 c 128,-1,21
 785 140 785 140 774 154 c 0,22,23
 767 164 767 164 744 193.5 c 128,-1,24
 721 223 721 223 690 262.5 c 128,-1,25
 659 302 659 302 624 346 c 128,-1,26
 589 390 589 390 558 429 c 128,-1,27
 527 468 527 468 504 497 c 128,-1,28
 481 526 481 526 474 535 c 1,29,-1
 474 238 l 2,30,31
 474 160 474 160 510.5 120 c 128,-1,32
 547 80 547 80 616 78 c 1,33,-1
 616 0 l 1,34,-1
 37 0 l 1,35,-1
 37 78 l 1,36,37
 80 79 80 79 108 89 c 128,-1,38
 136 99 136 99 152.5 119.5 c 128,-1,39
 169 140 169 140 175.5 171 c 128,-1,40
 182 202 182 202 182 244 c 2,41,-1
 182 1295 l 2,42,43
 182 1329 182 1329 175.5 1348.5 c 128,-1,44
 169 1368 169 1368 153 1380.5 c 128,-1,45
 137 1393 137 1393 109 1402.5 c 128,-1,46
 81 1412 81 1412 37 1425 c 1,47,-1
 37 1482 l 1,48,49
 45 1485 45 1485 74 1494 c 128,-1,50
 103 1503 103 1503 142 1515.5 c 128,-1,51
 181 1528 181 1528 225.5 1541.5 c 128,-1,52
 270 1555 270 1555 309 1567.5 c 128,-1,53
 348 1580 348 1580 377 1588.5 c 128,-1,54
 406 1597 406 1597 415 1599 c 1,55,-1
 474 1599 l 1,56,-1
 474 562 l 1,57,58
 485 572 485 572 511.5 593.5 c 128,-1,59
 538 615 538 615 572 643.5 c 128,-1,60
 606 672 606 672 643.5 703 c 128,-1,61
 681 734 681 734 714.5 761.5 c 128,-1,62
 748 789 748 789 772.5 810.5 c 128,-1,63
 797 832 797 832 806 840 c 0,64,65
 814 848 814 848 820 855.5 c 128,-1,66
 826 863 826 863 825 871 c 1,67,68
 825 898 825 898 767 898 c 2,69,-1
 708 898 l 1,70,-1
 708 977 l 1,71,-1
 1205 977 l 1,72,-1
 1205 898 l 1,73,74
 1131 896 1131 896 1049.5 862.5 c 128,-1,75
 968 829 968 829 893 766 c 2,76,-1
 744 640 l 1,0,1
EndSplineSet
Substitution2: "<17016,16016> Urdu Swash lookup 115 subtable" k
EndChar

StartChar: l
Encoding: 108 108 79
AltUni2: 00217c.ffffffff.0
Width: 648
GlyphClass: 2
Flags: W
LayerCount: 2
Fore
SplineSet
466 1599 m 1,0,-1
 466 244 l 2,1,2
 466 164 466 164 503.5 122 c 128,-1,3
 541 80 541 80 611 78 c 1,4,-1
 611 0 l 1,5,-1
 14 0 l 1,6,-1
 14 78 l 1,7,-1
 42 78 l 2,8,9
 77 78 77 78 102 87 c 128,-1,10
 127 96 127 96 143 115.5 c 128,-1,11
 159 135 159 135 166.5 166.5 c 128,-1,12
 174 198 174 198 174 244 c 2,13,-1
 174 1228 l 2,14,15
 174 1296 174 1296 168 1315 c 0,16,17
 163 1334 163 1334 148 1347.5 c 128,-1,18
 133 1361 133 1361 111.5 1372 c 128,-1,19
 90 1383 90 1383 63.5 1391.5 c 128,-1,20
 37 1400 37 1400 8 1408 c 1,21,-1
 8 1480 l 1,22,23
 20 1484 20 1484 52 1493 c 128,-1,24
 84 1502 84 1502 126 1514 c 128,-1,25
 168 1526 168 1526 215 1539.5 c 128,-1,26
 262 1553 262 1553 304 1565.5 c 128,-1,27
 346 1578 346 1578 378 1587 c 128,-1,28
 410 1596 410 1596 422 1599 c 1,29,-1
 466 1599 l 1,0,-1
EndSplineSet
Substitution2: "<17016,16016> Urdu Swash lookup 115 subtable" l
EndChar

StartChar: m
Encoding: 109 109 80
AltUni2: 00217f.ffffffff.0
Width: 2217
GlyphClass: 2
Flags: W
LayerCount: 2
Fore
SplineSet
1264 238 m 2,0,1
 1264 160 1264 160 1298 120 c 128,-1,2
 1332 80 1332 80 1397 78 c 1,3,-1
 1397 0 l 1,4,-1
 834 0 l 1,5,-1
 834 78 l 1,6,7
 872 79 872 79 898 88 c 128,-1,8
 924 97 924 97 940 117 c 128,-1,9
 956 137 956 137 962.5 168 c 128,-1,10
 969 199 969 199 969 244 c 2,11,-1
 969 585 l 2,12,13
 969 818 969 818 825 818 c 0,14,15
 766 818 766 818 680.5 779 c 128,-1,16
 595 740 595 740 491 668 c 1,17,-1
 491 231 l 2,18,19
 491 78 491 78 630 78 c 2,20,-1
 650 78 l 1,21,-1
 650 0 l 1,22,-1
 46 0 l 1,23,-1
 46 78 l 1,24,-1
 61 78 l 2,25,26
 135 78 135 78 165 116 c 128,-1,27
 195 154 195 154 195 244 c 2,28,-1
 195 710 l 2,29,30
 195 741 195 741 169.5 767.5 c 128,-1,31
 144 794 144 794 94 812 c 0,32,33
 92 813 92 813 91.5 812.5 c 128,-1,34
 91 812 91 812 90 813 c 1,35,-1
 91 813 l 1,36,37
 79 818 79 818 65.5 822.5 c 128,-1,38
 52 827 52 827 42 832 c 1,39,-1
 42 891 l 1,40,41
 53 895 53 895 84 905.5 c 128,-1,42
 115 916 115 916 156.5 930 c 128,-1,43
 198 944 198 944 244.5 960 c 128,-1,44
 291 976 291 976 332.5 990 c 128,-1,45
 374 1004 374 1004 405 1015 c 128,-1,46
 436 1026 436 1026 447 1030 c 1,47,-1
 491 1030 l 1,48,-1
 491 755 l 1,49,50
 836 1003 836 1003 1004 1003 c 0,51,52
 1225 1003 1225 1003 1253 755 c 1,53,54
 1347 825 1347 825 1440.5 878.5 c 128,-1,55
 1534 932 1534 932 1624 968 c 0,56,57
 1669 985 1669 985 1710 994 c 128,-1,58
 1751 1003 1751 1003 1785 1003 c 0,59,60
 1920 1003 1920 1003 1978.5 902 c 128,-1,61
 2037 801 2037 801 2037 591 c 2,62,-1
 2037 219 l 2,63,64
 2037 180 2037 180 2044 153 c 128,-1,65
 2051 126 2051 126 2067 109.5 c 128,-1,66
 2083 93 2083 93 2108.5 85.5 c 128,-1,67
 2134 78 2134 78 2171 78 c 1,68,-1
 2171 0 l 1,69,-1
 1607 0 l 1,70,-1
 1607 78 l 1,71,72
 1644 82 1644 82 1670 97.5 c 128,-1,73
 1696 113 1696 113 1712.5 145 c 128,-1,74
 1729 177 1729 177 1736.5 226.5 c 128,-1,75
 1744 276 1744 276 1744 348 c 2,76,-1
 1744 556 l 2,77,78
 1744 818 1744 818 1595 818 c 0,79,80
 1540 818 1540 818 1455.5 779 c 128,-1,81
 1371 740 1371 740 1264 668 c 1,82,-1
 1264 238 l 2,0,1
EndSplineSet
Substitution2: "<17016,16016> Urdu Swash lookup 115 subtable" m
EndChar

StartChar: n
Encoding: 110 110 81
Width: 1370
GlyphClass: 2
Flags: W
LayerCount: 2
Fore
SplineSet
1184 219 m 2,0,1
 1184 180 1184 180 1191.5 153.5 c 128,-1,2
 1199 127 1199 127 1215 110.5 c 128,-1,3
 1231 94 1231 94 1257 86.5 c 128,-1,4
 1283 79 1283 79 1320 78 c 1,5,-1
 1320 0 l 1,6,-1
 754 0 l 1,7,-1
 754 78 l 1,8,9
 791 81 791 81 817 97 c 128,-1,10
 843 113 843 113 859.5 145 c 128,-1,11
 876 177 876 177 883.5 226.5 c 128,-1,12
 891 276 891 276 891 348 c 2,13,-1
 891 556 l 2,14,15
 891 818 891 818 744 818 c 0,16,17
 694 818 694 818 629.5 791 c 128,-1,18
 565 764 565 764 492 713 c 1,19,-1
 492 231 l 2,20,21
 492 78 492 78 631 78 c 2,22,-1
 653 78 l 1,23,-1
 653 0 l 1,24,-1
 48 0 l 1,25,-1
 48 78 l 1,26,-1
 63 78 l 2,27,28
 137 78 137 78 167.5 117 c 128,-1,29
 198 156 198 156 198 244 c 2,30,-1
 198 710 l 2,31,32
 198 745 198 745 169 772 c 128,-1,33
 140 799 140 799 88 816 c 0,34,35
 85 818 85 818 79 820 c 128,-1,36
 73 822 73 822 72 821 c 1,37,38
 65 823 65 823 57 825.5 c 128,-1,39
 49 828 49 828 37 832 c 1,40,-1
 37 891 l 1,41,42
 48 895 48 895 79.5 905.5 c 128,-1,43
 111 916 111 916 153 930 c 128,-1,44
 195 944 195 944 242 960 c 128,-1,45
 289 976 289 976 331 990.5 c 128,-1,46
 373 1005 373 1005 404.5 1015.5 c 128,-1,47
 436 1026 436 1026 446 1030 c 1,48,-1
 492 1030 l 1,49,-1
 492 817 l 1,50,51
 632 911 632 911 741 957 c 128,-1,52
 850 1003 850 1003 933 1003 c 0,53,54
 1067 1003 1067 1003 1125.5 902.5 c 128,-1,55
 1184 802 1184 802 1184 591 c 2,56,-1
 1184 219 l 2,0,1
EndSplineSet
Substitution2: "<17016,16016> Urdu Swash lookup 115 subtable" n
EndChar

StartChar: o
Encoding: 111 111 82
Width: 1370
GlyphClass: 2
Flags: W
LayerCount: 2
Fore
SplineSet
418 615 m 0,0,1
 418 510 418 510 441.5 412.5 c 128,-1,2
 465 315 465 315 507 241 c 128,-1,3
 549 167 549 167 607.5 122.5 c 128,-1,4
 666 78 666 78 735 78 c 0,5,6
 950 78 950 78 950 374 c 0,7,8
 950 488 950 488 927.5 584 c 128,-1,9
 905 680 905 680 864.5 749.5 c 128,-1,10
 824 819 824 819 766.5 858.5 c 128,-1,11
 709 898 709 898 640 898 c 0,12,13
 418 898 418 898 418 615 c 0,0,1
103 473 m 0,14,15
 103 582 103 582 147.5 678.5 c 128,-1,16
 192 775 192 775 271.5 847 c 128,-1,17
 351 919 351 919 461 961 c 128,-1,18
 571 1003 571 1003 703 1003 c 0,19,20
 825 1003 825 1003 928.5 966.5 c 128,-1,21
 1032 930 1032 930 1107 864 c 128,-1,22
 1182 798 1182 798 1224.5 706.5 c 128,-1,23
 1267 615 1267 615 1267 505 c 0,24,25
 1267 432 1267 432 1247 364.5 c 128,-1,26
 1227 297 1227 297 1189.5 238 c 128,-1,27
 1152 179 1152 179 1099 130.5 c 128,-1,28
 1046 82 1046 82 979 47.5 c 128,-1,29
 912 13 912 13 833.5 -6 c 128,-1,30
 755 -25 755 -25 667 -25 c 0,31,32
 549 -25 549 -25 446.5 9.5 c 128,-1,33
 344 44 344 44 267.5 108.5 c 128,-1,34
 191 173 191 173 147 265.5 c 128,-1,35
 103 358 103 358 103 473 c 0,14,15
EndSplineSet
Substitution2: "<17016,16016> Urdu Swash lookup 115 subtable" o
EndChar

StartChar: p
Encoding: 112 112 83
Width: 1370
GlyphClass: 2
Flags: W
LayerCount: 2
Fore
SplineSet
482 182 m 1,0,1
 536 129 536 129 600.5 96.5 c 128,-1,2
 665 64 665 64 727 64 c 0,3,4
 784 64 784 64 829.5 91.5 c 128,-1,5
 875 119 875 119 907.5 166 c 128,-1,6
 940 213 940 213 957.5 276.5 c 128,-1,7
 975 340 975 340 975 413 c 0,8,9
 975 500 975 500 957 575 c 128,-1,10
 939 650 939 650 905.5 704.5 c 128,-1,11
 872 759 872 759 823.5 790.5 c 128,-1,12
 775 822 775 822 714 822 c 0,13,14
 668 822 668 822 608 789.5 c 128,-1,15
 548 757 548 757 482 699 c 1,16,-1
 482 182 l 1,0,1
482 -249 m 2,17,18
 482 -313 482 -313 495 -353 c 128,-1,19
 508 -393 508 -393 536.5 -416.5 c 128,-1,20
 565 -440 565 -440 609.5 -450.5 c 128,-1,21
 654 -461 654 -461 718 -464 c 1,22,-1
 718 -541 l 1,23,-1
 33 -541 l 1,24,-1
 33 -464 l 1,25,-1
 61 -464 l 2,26,27
 188 -464 188 -464 188 -309 c 2,28,-1
 188 693 l 2,29,30
 188 729 188 729 178 752 c 128,-1,31
 168 775 168 775 149 790.5 c 128,-1,32
 130 806 130 806 101.5 816.5 c 128,-1,33
 73 827 73 827 37 838 c 1,34,-1
 37 900 l 1,35,36
 47 903 47 903 76 913 c 128,-1,37
 105 923 105 923 144 936.5 c 128,-1,38
 183 950 183 950 227 965 c 128,-1,39
 271 980 271 980 310.5 993.5 c 128,-1,40
 350 1007 350 1007 379 1017 c 128,-1,41
 408 1027 408 1027 417 1030 c 1,42,-1
 482 1030 l 1,43,-1
 482 800 l 1,44,45
 530 836 530 836 560.5 861.5 c 128,-1,46
 591 887 591 887 605 898 c 1,47,48
 674 946 674 946 742 974.5 c 128,-1,49
 810 1003 810 1003 880 1003 c 0,50,51
 959 1003 959 1003 1029.5 970 c 128,-1,52
 1100 937 1100 937 1153.5 877 c 128,-1,53
 1207 817 1207 817 1238 733.5 c 128,-1,54
 1269 650 1269 650 1269 550 c 0,55,56
 1269 475 1269 475 1252.5 403 c 128,-1,57
 1236 331 1236 331 1203.5 267.5 c 128,-1,58
 1171 204 1171 204 1124.5 150 c 128,-1,59
 1078 96 1078 96 1017.5 57.5 c 128,-1,60
 957 19 957 19 883.5 -3 c 128,-1,61
 810 -25 810 -25 725 -25 c 0,62,63
 676 -25 676 -25 613.5 -17.5 c 128,-1,64
 551 -10 551 -10 482 4 c 1,65,-1
 482 -249 l 2,17,18
EndSplineSet
Substitution2: "<17016,16016> Urdu Swash lookup 115 subtable" p
EndChar

StartChar: q
Encoding: 113 113 84
Width: 1370
GlyphClass: 2
Flags: W
LayerCount: 2
Fore
SplineSet
887 617 m 2,0,1
 887 898 887 898 680 898 c 0,2,3
 615 898 615 898 564 871.5 c 128,-1,4
 513 845 513 845 477.5 797 c 128,-1,5
 442 749 442 749 423.5 681 c 128,-1,6
 405 613 405 613 405 530 c 0,7,8
 405 454 405 454 423.5 387.5 c 128,-1,9
 442 321 442 321 477 271.5 c 128,-1,10
 512 222 512 222 562 193.5 c 128,-1,11
 612 165 612 165 675 165 c 0,12,13
 698 165 698 165 724.5 175 c 128,-1,14
 751 185 751 185 779 201.5 c 128,-1,15
 807 218 807 218 834.5 239.5 c 128,-1,16
 862 261 862 261 887 285 c 1,17,-1
 887 617 l 2,0,1
887 175 m 1,18,19
 674 -25 674 -25 498 -25 c 0,20,21
 270 -25 270 -25 158 198 c 1,22,23
 106 304 106 304 106 428 c 0,24,25
 106 505 106 505 125.5 578 c 128,-1,26
 145 651 145 651 180 716 c 1,27,28
 218 784 218 784 272.5 837 c 128,-1,29
 327 890 327 890 391 926 c 1,30,-1
 389 926 l 1,31,32
 522 1003 522 1003 689 1003 c 0,33,34
 783 1003 783 1003 872.5 978.5 c 128,-1,35
 962 954 962 954 1041 909 c 1,36,37
 1067 933 1067 933 1092 957 c 128,-1,38
 1117 981 1117 981 1141 1003 c 1,39,-1
 1200 1003 l 1,40,41
 1191 930 1191 930 1185 853 c 128,-1,42
 1179 776 1179 776 1179 710 c 2,43,-1
 1179 -304 l 2,44,45
 1179 -346 1179 -346 1186.5 -375 c 128,-1,46
 1194 -404 1194 -404 1211 -422.5 c 128,-1,47
 1228 -441 1228 -441 1255.5 -451 c 128,-1,48
 1283 -461 1283 -461 1323 -464 c 1,49,-1
 1323 -541 l 1,50,-1
 645 -541 l 1,51,-1
 645 -464 l 1,52,-1
 739 -464 l 2,53,54
 780 -464 780 -464 808.5 -455.5 c 128,-1,55
 837 -447 837 -447 854.5 -427.5 c 128,-1,56
 872 -408 872 -408 879.5 -376 c 128,-1,57
 887 -344 887 -344 887 -297 c 2,58,-1
 887 175 l 1,18,19
EndSplineSet
Substitution2: "<17016,16016> Urdu Swash lookup 115 subtable" q
EndChar

StartChar: r
Encoding: 114 114 85
Width: 947
GlyphClass: 2
Flags: W
LayerCount: 2
Fore
SplineSet
718 78 m 1,0,-1
 718 0 l 1,1,-1
 53 0 l 1,2,-1
 53 78 l 1,3,-1
 69 78 l 2,4,5
 143 78 143 78 172.5 118.5 c 128,-1,6
 202 159 202 159 202 244 c 2,7,-1
 202 634 l 2,8,9
 202 685 202 685 196.5 712.5 c 128,-1,10
 191 740 191 740 174.5 756 c 128,-1,11
 158 772 158 772 129 784.5 c 128,-1,12
 100 797 100 797 53 818 c 1,13,-1
 53 881 l 1,14,15
 64 885 64 885 94.5 897 c 128,-1,16
 125 909 125 909 166 924.5 c 128,-1,17
 207 940 207 940 252.5 957.5 c 128,-1,18
 298 975 298 975 338 990 c 128,-1,19
 378 1005 378 1005 407.5 1016 c 128,-1,20
 437 1027 437 1027 446 1030 c 1,21,-1
 496 1030 l 1,22,-1
 504 769 l 1,23,24
 507 775 507 775 516 792 c 128,-1,25
 525 809 525 809 535 827 c 128,-1,26
 545 845 545 845 552.5 860 c 128,-1,27
 560 875 560 875 561 877 c 0,28,29
 583 914 583 914 600.5 938 c 128,-1,30
 618 962 618 962 635 976.5 c 128,-1,31
 652 991 652 991 669 997 c 128,-1,32
 686 1003 686 1003 707 1003 c 0,33,34
 725 1003 725 1003 746 998.5 c 128,-1,35
 767 994 767 994 787.5 987 c 128,-1,36
 808 980 808 980 828 972 c 128,-1,37
 848 964 848 964 864 957 c 0,38,39
 884 949 884 949 905 942 c 128,-1,40
 926 935 926 935 945 927 c 1,41,42
 922 849 922 849 892.5 783 c 128,-1,43
 863 717 863 717 832 671 c 1,44,45
 755 701 755 701 706 716.5 c 128,-1,46
 657 732 657 732 636 732 c 0,47,48
 605 732 605 732 569.5 703.5 c 128,-1,49
 534 675 534 675 496 624 c 1,50,-1
 496 238 l 2,51,52
 496 195 496 195 504.5 164.5 c 128,-1,53
 513 134 513 134 531.5 115 c 128,-1,54
 550 96 550 96 580.5 87 c 128,-1,55
 611 78 611 78 655 78 c 2,56,-1
 718 78 l 1,0,-1
EndSplineSet
Substitution2: "<17016,16016> Urdu Swash lookup 115 subtable" r
EndChar

StartChar: s
Encoding: 115 115 86
Width: 897
GlyphClass: 2
Flags: W
LayerCount: 2
Fore
SplineSet
125 -20 m 1,0,1
 123 22 123 22 119 74.5 c 128,-1,2
 115 127 115 127 110 174 c 0,3,4
 105 229 105 229 100 285 c 1,5,-1
 178 285 l 1,6,7
 193 241 193 241 218.5 203 c 128,-1,8
 244 165 244 165 277 137.5 c 128,-1,9
 310 110 310 110 348 94 c 128,-1,10
 386 78 386 78 426 78 c 0,11,12
 455 78 455 78 477 87.5 c 128,-1,13
 499 97 499 97 515 112.5 c 128,-1,14
 531 128 531 128 539 148.5 c 128,-1,15
 547 169 547 169 547 190 c 0,16,17
 547 222 547 222 527.5 254 c 128,-1,18
 508 286 508 286 466 307 c 1,19,20
 439 323 439 323 401 346 c 128,-1,21
 363 369 363 369 322.5 397.5 c 128,-1,22
 282 426 282 426 242 460 c 128,-1,23
 202 494 202 494 170.5 532.5 c 128,-1,24
 139 571 139 571 119.5 612.5 c 128,-1,25
 100 654 100 654 100 697 c 0,26,27
 100 768 100 768 128.5 824.5 c 128,-1,28
 157 881 157 881 207.5 921 c 128,-1,29
 258 961 258 961 326.5 982 c 128,-1,30
 395 1003 395 1003 475 1003 c 0,31,32
 540 1003 540 1003 612 988 c 128,-1,33
 684 973 684 973 745 953 c 1,34,35
 746 928 746 928 746.5 895 c 128,-1,36
 747 862 747 862 747.5 826.5 c 128,-1,37
 748 791 748 791 748.5 756 c 128,-1,38
 749 721 749 721 749 694 c 1,39,-1
 671 694 l 1,40,41
 637 788 637 788 580 843 c 128,-1,42
 523 898 523 898 448 898 c 0,43,44
 391 898 391 898 365 871 c 128,-1,45
 339 844 339 844 339 807 c 0,46,47
 339 777 339 777 357 744.5 c 128,-1,48
 375 712 375 712 408 689 c 1,49,-1
 407 689 l 1,50,51
 455 663 455 663 503.5 635 c 128,-1,52
 552 607 552 607 595.5 579.5 c 128,-1,53
 639 552 639 552 675 525 c 128,-1,54
 711 498 711 498 733 475 c 1,55,56
 771 428 771 428 789 376.5 c 128,-1,57
 807 325 807 325 807 273 c 0,58,59
 807 215 807 215 785.5 161.5 c 128,-1,60
 764 108 764 108 724.5 67.5 c 128,-1,61
 685 27 685 27 627.5 2.5 c 128,-1,62
 570 -22 570 -22 498 -22 c 0,63,64
 465 -22 465 -22 432.5 -17 c 128,-1,65
 400 -12 400 -12 368 -6.5 c 128,-1,66
 336 -1 336 -1 305 4 c 128,-1,67
 274 9 274 9 243 9 c 0,68,69
 235 9 235 9 221.5 0.5 c 128,-1,70
 208 -8 208 -8 196 -20 c 1,71,-1
 125 -20 l 1,0,1
EndSplineSet
Substitution2: "<17016,16016> Urdu Swash lookup 115 subtable" s
EndChar

StartChar: t
Encoding: 116 116 87
Width: 823
GlyphClass: 2
Flags: W
LayerCount: 2
Fore
SplineSet
476 843 m 1,0,-1
 476 267 l 2,1,2
 476 200 476 200 506.5 170 c 128,-1,3
 537 140 537 140 580 140 c 0,4,5
 603 140 603 140 629 148.5 c 128,-1,6
 655 157 655 157 680 172.5 c 128,-1,7
 705 188 705 188 727.5 211 c 128,-1,8
 750 234 750 234 767 262 c 1,9,10
 778 241 778 241 786.5 223.5 c 128,-1,11
 795 206 795 206 802 189 c 1,12,13
 773 140 773 140 731.5 100.5 c 128,-1,14
 690 61 690 61 642.5 34 c 128,-1,15
 595 7 595 7 544 -7.5 c 128,-1,16
 493 -22 493 -22 443 -22 c 0,17,18
 391 -22 391 -22 344 -5 c 128,-1,19
 297 12 297 12 261 48 c 128,-1,20
 225 84 225 84 204 139.5 c 128,-1,21
 183 195 183 195 183 272 c 2,22,-1
 183 843 l 1,23,-1
 56 843 l 1,24,-1
 56 908 l 1,25,26
 108 931 108 931 162.5 972.5 c 128,-1,27
 217 1014 217 1014 265 1064 c 128,-1,28
 313 1114 313 1114 350 1169 c 128,-1,29
 387 1224 387 1224 405 1275 c 1,30,-1
 476 1275 l 1,31,-1
 476 977 l 1,32,-1
 791 977 l 1,33,34
 783 943 783 943 773 906 c 128,-1,35
 763 869 763 869 754 843 c 1,36,-1
 476 843 l 1,0,-1
EndSplineSet
Substitution2: "<17016,16016> Urdu Swash lookup 115 subtable" t
EndChar

StartChar: u
Encoding: 117 117 88
Width: 1370
GlyphClass: 2
Flags: W
LayerCount: 2
Fore
SplineSet
866 -25 m 1,0,-1
 866 164 l 1,1,2
 716 70 716 70 611 22.5 c 128,-1,3
 506 -25 506 -25 441 -25 c 0,4,5
 384 -25 384 -25 336 -2.5 c 128,-1,6
 288 20 288 20 253 62 c 128,-1,7
 218 104 218 104 198.5 164.5 c 128,-1,8
 179 225 179 225 179 301 c 2,9,-1
 179 700 l 2,10,11
 179 742 179 742 172.5 767.5 c 128,-1,12
 166 793 166 793 153.5 809.5 c 128,-1,13
 141 826 141 826 122 836 c 128,-1,14
 103 846 103 846 78 857 c 1,15,-1
 78 914 l 1,16,17
 160 935 160 935 246.5 957 c 128,-1,18
 333 979 333 979 422 1003 c 1,19,-1
 471 1003 l 1,20,-1
 471 394 l 2,21,22
 471 158 471 158 627 158 c 0,23,24
 669 158 669 158 731.5 184.5 c 128,-1,25
 794 211 794 211 866 255 c 1,26,-1
 866 686 l 2,27,28
 866 736 866 736 855 763 c 128,-1,29
 844 790 844 790 820.5 805.5 c 128,-1,30
 797 821 797 821 760 831.5 c 128,-1,31
 723 842 723 842 671 857 c 1,32,-1
 671 914 l 1,33,34
 680 916 680 916 713.5 923 c 128,-1,35
 747 930 747 930 793 939.5 c 128,-1,36
 839 949 839 949 891 959.5 c 128,-1,37
 943 970 943 970 988.5 979 c 128,-1,38
 1034 988 1034 988 1067.5 994.5 c 128,-1,39
 1101 1001 1101 1001 1110 1003 c 1,40,-1
 1159 1003 l 1,41,-1
 1159 272 l 2,42,43
 1159 240 1159 240 1160.5 215.5 c 128,-1,44
 1162 191 1162 191 1165 178 c 0,45,46
 1171 156 1171 156 1188 142.5 c 128,-1,47
 1205 129 1205 129 1228 129 c 0,48,49
 1266 129 1266 129 1300 143 c 1,50,-1
 1300 66 l 1,51,52
 1291 64 1291 64 1261.5 57 c 128,-1,53
 1232 50 1232 50 1192 40.5 c 128,-1,54
 1152 31 1152 31 1107 20 c 128,-1,55
 1062 9 1062 9 1021.5 -0.5 c 128,-1,56
 981 -10 981 -10 951.5 -17 c 128,-1,57
 922 -24 922 -24 913 -25 c 1,58,-1
 866 -25 l 1,0,-1
EndSplineSet
Substitution2: "<17016,16016> Urdu Swash lookup 115 subtable" u
EndChar

StartChar: v
Encoding: 118 118 89
Width: 1245
GlyphClass: 2
Flags: W
LayerCount: 2
Fore
SplineSet
9 977 m 1,0,-1
 618 977 l 1,1,-1
 618 898 l 1,2,-1
 534 898 l 2,3,4
 511 898 511 898 496.5 883 c 128,-1,5
 482 868 482 868 482 844 c 0,6,7
 482 829 482 829 488.5 807.5 c 128,-1,8
 495 786 495 786 504 765 c 0,9,10
 555 649 555 649 609 528.5 c 128,-1,11
 663 408 663 408 714 293 c 1,12,13
 721 309 721 309 735.5 342 c 128,-1,14
 750 375 750 375 769 417 c 128,-1,15
 788 459 788 459 808.5 505 c 128,-1,16
 829 551 829 551 847.5 592 c 128,-1,17
 866 633 866 633 880 665 c 128,-1,18
 894 697 894 697 900 710 c 0,19,20
 911 737 911 737 917.5 761.5 c 128,-1,21
 924 786 924 786 924 804 c 0,22,23
 924 846 924 846 885.5 868 c 128,-1,24
 847 890 847 890 759 898 c 1,25,-1
 759 977 l 1,26,-1
 1236 977 l 1,27,-1
 1236 898 l 1,28,29
 1193 894 1193 894 1163 886 c 128,-1,30
 1133 878 1133 878 1110.5 862 c 128,-1,31
 1088 846 1088 846 1070.5 820 c 128,-1,32
 1053 794 1053 794 1035 755 c 0,33,34
 1028 738 1028 738 1011 699.5 c 128,-1,35
 994 661 994 661 971 609 c 128,-1,36
 948 557 948 557 921 495 c 128,-1,37
 894 433 894 433 865.5 369.5 c 128,-1,38
 837 306 837 306 810 244 c 128,-1,39
 783 182 783 182 759.5 130.5 c 128,-1,40
 736 79 736 79 719 40.5 c 128,-1,41
 702 2 702 2 694 -15 c 1,42,-1
 549 -15 l 1,43,44
 546 -9 546 -9 530 26.5 c 128,-1,45
 514 62 514 62 489 115.5 c 128,-1,46
 464 169 464 169 432.5 236 c 128,-1,47
 401 303 401 303 368.5 372.5 c 128,-1,48
 336 442 336 442 305.5 508.5 c 128,-1,49
 275 575 275 575 250.5 627.5 c 128,-1,50
 226 680 226 680 210.5 713.5 c 128,-1,51
 195 747 195 747 193 750 c 0,52,53
 175 789 175 789 158 815 c 128,-1,54
 141 841 141 841 120.5 858.5 c 128,-1,55
 100 876 100 876 73.5 885 c 128,-1,56
 47 894 47 894 9 898 c 1,57,-1
 9 977 l 1,0,-1
EndSplineSet
Substitution2: "<17016,16016> Urdu Swash lookup 115 subtable" v
EndChar

StartChar: w
Encoding: 119 119 90
Width: 1867
GlyphClass: 2
Flags: W
LayerCount: 2
Fore
SplineSet
526 -15 m 1,0,1
 523 -8 523 -8 508 27 c 128,-1,2
 493 62 493 62 470 115 c 128,-1,3
 447 168 447 168 418.5 234 c 128,-1,4
 390 300 390 300 360.5 368.5 c 128,-1,5
 331 437 331 437 302.5 503 c 128,-1,6
 274 569 274 569 251 622 c 128,-1,7
 228 675 228 675 213 710 c 128,-1,8
 198 745 198 745 195 752 c 0,9,10
 164 824 164 824 116.5 860 c 128,-1,11
 69 896 69 896 9 898 c 1,12,-1
 9 977 l 1,13,-1
 582 977 l 1,14,-1
 582 898 l 1,15,16
 537 895 537 895 514 875 c 128,-1,17
 491 855 491 855 491 823 c 0,18,19
 491 800 491 800 503 773 c 2,20,-1
 691 320 l 1,21,22
 697 334 697 334 711.5 367 c 128,-1,23
 726 400 726 400 745 442.5 c 128,-1,24
 764 485 764 485 785 532 c 128,-1,25
 806 579 806 579 825 622 c 128,-1,26
 844 665 844 665 859 699.5 c 128,-1,27
 874 734 874 734 881 750 c 1,28,29
 855 819 855 819 816.5 857.5 c 128,-1,30
 778 896 778 896 732 898 c 1,31,-1
 732 977 l 1,32,-1
 1276 977 l 1,33,-1
 1276 898 l 1,34,35
 1226 896 1226 896 1198 878 c 128,-1,36
 1170 860 1170 860 1170 825 c 0,37,38
 1170 804 1170 804 1179.5 774 c 128,-1,39
 1189 744 1189 744 1203 710 c 128,-1,40
 1217 676 1217 676 1233 641 c 128,-1,41
 1249 606 1249 606 1261 576 c 0,42,43
 1287 513 1287 513 1313 448.5 c 128,-1,44
 1339 384 1339 384 1365 321 c 1,45,46
 1370 333 1370 333 1383 364 c 128,-1,47
 1396 395 1396 395 1413 436 c 128,-1,48
 1430 477 1430 477 1449 523 c 128,-1,49
 1468 569 1468 569 1485 610 c 128,-1,50
 1502 651 1502 651 1515 682 c 128,-1,51
 1528 713 1528 713 1532 725 c 0,52,53
 1540 745 1540 745 1545 764 c 128,-1,54
 1550 783 1550 783 1550 800 c 0,55,56
 1550 843 1550 843 1516 868 c 128,-1,57
 1482 893 1482 893 1412 898 c 1,58,-1
 1412 977 l 1,59,-1
 1855 977 l 1,60,-1
 1855 898 l 1,61,62
 1812 894 1812 894 1780 878.5 c 128,-1,63
 1748 863 1748 863 1723 837.5 c 128,-1,64
 1698 812 1698 812 1678.5 776 c 128,-1,65
 1659 740 1659 740 1640 695 c 0,66,67
 1632 676 1632 676 1614 633 c 128,-1,68
 1596 590 1596 590 1571.5 533 c 128,-1,69
 1547 476 1547 476 1519 410 c 128,-1,70
 1491 344 1491 344 1463 279 c 128,-1,71
 1435 214 1435 214 1410 155 c 128,-1,72
 1385 96 1385 96 1367 54 c 0,73,74
 1358 32 1358 32 1350.5 12.5 c 128,-1,75
 1343 -7 1343 -7 1339 -15 c 1,76,-1
 1207 -15 l 1,77,-1
 939 605 l 1,78,79
 931 586 931 586 908.5 538 c 128,-1,80
 886 490 886 490 857.5 426.5 c 128,-1,81
 829 363 829 363 796.5 293 c 128,-1,82
 764 223 764 223 735.5 160.5 c 128,-1,83
 707 98 707 98 685 50 c 128,-1,84
 663 2 663 2 655 -15 c 1,85,-1
 526 -15 l 1,0,1
EndSplineSet
Substitution2: "<17016,16016> Urdu Swash lookup 115 subtable" w
EndChar

StartChar: x
Encoding: 120 120 91
Width: 1269
GlyphClass: 2
Flags: W
LayerCount: 2
Fore
SplineSet
556 359 m 1,0,-1
 521 325 l 2,1,2
 494 298 494 298 467.5 270 c 128,-1,3
 441 242 441 242 419.5 215.5 c 128,-1,4
 398 189 398 189 384.5 166.5 c 128,-1,5
 371 144 371 144 371 128 c 0,6,7
 371 105 371 105 396 92 c 128,-1,8
 421 79 421 79 464 78 c 1,9,-1
 464 0 l 1,10,-1
 42 0 l 1,11,-1
 42 78 l 1,12,13
 80 80 80 80 119 100 c 128,-1,14
 158 120 158 120 197 151.5 c 128,-1,15
 236 183 236 183 275.5 222.5 c 128,-1,16
 315 262 315 262 354 304 c 0,17,18
 386 338 386 338 421.5 373.5 c 128,-1,19
 457 409 457 409 488 441 c 1,20,21
 459 477 459 477 424.5 519 c 128,-1,22
 390 561 390 561 354 604.5 c 128,-1,23
 318 648 318 648 283 690 c 128,-1,24
 248 732 248 732 216.5 767.5 c 128,-1,25
 185 803 185 803 160 829 c 128,-1,26
 135 855 135 855 120 866 c 1,27,28
 100 877 100 877 72.5 886 c 128,-1,29
 45 895 45 895 20 898 c 1,30,-1
 20 977 l 1,31,-1
 608 977 l 1,32,-1
 608 898 l 1,33,34
 570 897 570 897 548.5 888.5 c 128,-1,35
 527 880 527 880 527 861 c 0,36,37
 527 853 527 853 532.5 842.5 c 128,-1,38
 538 832 538 832 547 821 c 0,39,40
 582 776 582 776 619 731.5 c 128,-1,41
 656 687 656 687 691 642 c 1,42,43
 714 668 714 668 742 697 c 128,-1,44
 770 726 770 726 795 753 c 128,-1,45
 820 780 820 780 837 803.5 c 128,-1,46
 854 827 854 827 854 843 c 0,47,48
 854 869 854 869 826 883 c 128,-1,49
 798 897 798 897 749 898 c 1,50,-1
 749 977 l 1,51,-1
 1198 977 l 1,52,-1
 1198 898 l 1,53,54
 1167 892 1167 892 1131 877 c 128,-1,55
 1095 862 1095 862 1058 840 c 128,-1,56
 1021 818 1021 818 984 789.5 c 128,-1,57
 947 761 947 761 914 729 c 1,58,59
 874 687 874 687 832.5 644.5 c 128,-1,60
 791 602 791 602 752 560 c 1,61,62
 759 553 759 553 783 523 c 128,-1,63
 807 493 807 493 839.5 452.5 c 128,-1,64
 872 412 872 412 909 367 c 128,-1,65
 946 322 946 322 977.5 282.5 c 128,-1,66
 1009 243 1009 243 1031 216 c 128,-1,67
 1053 189 1053 189 1056 186 c 0,68,69
 1099 135 1099 135 1144.5 106.5 c 128,-1,70
 1190 78 1190 78 1235 78 c 2,71,-1
 1250 78 l 1,72,-1
 1250 0 l 1,73,-1
 633 0 l 1,74,-1
 633 78 l 1,75,-1
 655 78 l 2,76,77
 691 78 691 78 709.5 89.5 c 128,-1,78
 728 101 728 101 728 121 c 0,79,80
 728 134 728 134 720.5 148 c 128,-1,81
 713 162 713 162 699 179 c 2,82,-1
 556 359 l 1,0,-1
EndSplineSet
Substitution2: "<17016,16016> Urdu Swash lookup 115 subtable" x
EndChar

StartChar: y
Encoding: 121 121 92
Width: 1245
GlyphClass: 2
Flags: W
LayerCount: 2
Fore
SplineSet
551 23 m 1,0,1
 548 30 548 30 533 60.5 c 128,-1,2
 518 91 518 91 495.5 137 c 128,-1,3
 473 183 473 183 445.5 240 c 128,-1,4
 418 297 418 297 389 355.5 c 128,-1,5
 360 414 360 414 332.5 470.5 c 128,-1,6
 305 527 305 527 282.5 572.5 c 128,-1,7
 260 618 260 618 245.5 647.5 c 128,-1,8
 231 677 231 677 229 682 c 0,9,10
 203 735 203 735 183 772.5 c 128,-1,11
 163 810 163 810 149 827 c 0,12,13
 121 860 121 860 82.5 877.5 c 128,-1,14
 44 895 44 895 2 898 c 1,15,-1
 2 977 l 1,16,-1
 613 977 l 1,17,-1
 613 898 l 1,18,19
 547 897 547 897 520 881 c 128,-1,20
 493 865 493 865 493 831 c 0,21,22
 493 812 493 812 504.5 780.5 c 128,-1,23
 516 749 516 749 533.5 712.5 c 128,-1,24
 551 676 551 676 570.5 637.5 c 128,-1,25
 590 599 590 599 606 565 c 0,26,27
 633 509 633 509 659.5 455 c 128,-1,28
 686 401 686 401 712 348 c 1,29,30
 718 360 718 360 732.5 388.5 c 128,-1,31
 747 417 747 417 765.5 454 c 128,-1,32
 784 491 784 491 804 532 c 128,-1,33
 824 573 824 573 842.5 609.5 c 128,-1,34
 861 646 861 646 874.5 674 c 128,-1,35
 888 702 888 702 893 712 c 0,36,37
 905 736 905 736 910 757 c 128,-1,38
 915 778 915 778 915 798 c 0,39,40
 915 846 915 846 876 871 c 128,-1,41
 837 896 837 896 768 898 c 1,42,-1
 768 977 l 1,43,-1
 1214 977 l 1,44,-1
 1214 898 l 1,45,46
 1173 889 1173 889 1145 876.5 c 128,-1,47
 1117 864 1117 864 1095 843 c 128,-1,48
 1073 822 1073 822 1053.5 790 c 128,-1,49
 1034 758 1034 758 1009 710 c 0,50,51
 1006 703 1006 703 989.5 669.5 c 128,-1,52
 973 636 973 636 947 583.5 c 128,-1,53
 921 531 921 531 888 463 c 128,-1,54
 855 395 855 395 818 319.5 c 128,-1,55
 781 244 781 244 742 165 c 128,-1,56
 703 86 703 86 666 10.5 c 128,-1,57
 629 -65 629 -65 595.5 -133 c 128,-1,58
 562 -201 562 -201 536.5 -254 c 128,-1,59
 511 -307 511 -307 494 -340.5 c 128,-1,60
 477 -374 477 -374 474 -381 c 0,61,62
 433 -464 433 -464 376 -510.5 c 128,-1,63
 319 -557 319 -557 255 -557 c 0,64,65
 223 -557 223 -557 195.5 -546 c 128,-1,66
 168 -535 168 -535 148 -516 c 128,-1,67
 128 -497 128 -497 117 -471.5 c 128,-1,68
 106 -446 106 -446 106 -417 c 0,69,70
 106 -357 106 -357 138 -321.5 c 128,-1,71
 170 -286 170 -286 227 -276 c 0,72,73
 232 -276 232 -276 238 -275 c 128,-1,74
 244 -274 244 -274 249 -272 c 1,75,76
 289 -265 289 -265 323 -257 c 128,-1,77
 357 -249 357 -249 387 -229.5 c 128,-1,78
 417 -210 417 -210 445.5 -174.5 c 128,-1,79
 474 -139 474 -139 504 -79 c 1,80,-1
 551 23 l 1,0,1
EndSplineSet
Substitution2: "<17016,16016> Urdu Swash lookup 115 subtable" y
EndChar

StartChar: z
Encoding: 122 122 93
Width: 1219
GlyphClass: 2
Flags: W
LayerCount: 2
Fore
SplineSet
70 0 m 1,0,-1
 70 78 l 1,1,-1
 700 843 l 1,2,-1
 370 843 l 2,3,4
 334 843 334 843 307 833 c 128,-1,5
 280 823 280 823 257.5 799 c 128,-1,6
 235 775 235 775 213.5 736 c 128,-1,7
 192 697 192 697 167 639 c 1,8,-1
 87 639 l 1,9,10
 90 650 90 650 96 681.5 c 128,-1,11
 102 713 102 713 110 755.5 c 128,-1,12
 118 798 118 798 127 845.5 c 128,-1,13
 136 893 136 893 143.5 934.5 c 128,-1,14
 151 976 151 976 157 1006 c 128,-1,15
 163 1036 163 1036 165 1044 c 1,16,-1
 244 1044 l 1,17,-1
 243 1037 l 2,18,19
 242 1035 242 1035 242 1030.5 c 128,-1,20
 242 1026 242 1026 242 1024 c 0,21,22
 242 977 242 977 323 977 c 2,23,-1
 1122 977 l 1,24,-1
 1122 908 l 1,25,-1
 486 133 l 1,26,-1
 792 133 l 2,27,28
 864 133 864 133 916 149.5 c 128,-1,29
 968 166 968 166 997 200 c 0,30,31
 1014 220 1014 220 1039 255 c 128,-1,32
 1064 290 1064 290 1093 336 c 1,33,-1
 1168 336 l 1,34,35
 1142 255 1142 255 1113 168 c 128,-1,36
 1084 81 1084 81 1056 0 c 1,37,-1
 70 0 l 1,0,-1
EndSplineSet
Substitution2: "<17016,16016> Urdu Swash lookup 115 subtable" z
EndChar

StartChar: braceleft
Encoding: 123 123 94
Width: 1143
GlyphClass: 2
Flags: W
LayerCount: 2
Fore
SplineSet
478 620 m 1,0,1
 480 619 480 619 482 617 c 128,-1,2
 484 615 484 615 485 614 c 0,3,4
 558 559 558 559 602.5 481.5 c 128,-1,5
 647 404 647 404 661 301 c 2,6,-1
 692 85 l 2,7,8
 698 43 698 43 714.5 -6 c 128,-1,9
 731 -55 731 -55 753 -108 c 0,10,11
 775 -159 775 -159 802 -205 c 128,-1,12
 829 -251 829 -251 855 -286 c 1,13,14
 889 -329 889 -329 927.5 -364 c 128,-1,15
 966 -399 966 -399 1004 -425 c 0,16,17
 1022 -437 1022 -437 1032.5 -449.5 c 128,-1,18
 1043 -462 1043 -462 1043 -474 c 0,19,20
 1043 -514 1043 -514 999 -514 c 0,21,22
 982 -514 982 -514 955.5 -507.5 c 128,-1,23
 929 -501 929 -501 899 -488 c 0,24,25
 817 -454 817 -454 739 -397 c 128,-1,26
 661 -340 661 -340 593 -265 c 0,27,28
 561 -229 561 -229 532 -187.5 c 128,-1,29
 503 -146 503 -146 477.5 -101.5 c 128,-1,30
 452 -57 452 -57 431.5 -12.5 c 128,-1,31
 411 32 411 32 397 72 c 0,32,33
 393 84 393 84 380.5 123.5 c 128,-1,34
 368 163 368 163 353 209 c 128,-1,35
 338 255 338 255 325.5 294.5 c 128,-1,36
 313 334 313 334 309 346 c 0,37,38
 294 394 294 394 275.5 429 c 128,-1,39
 257 464 257 464 235.5 491 c 128,-1,40
 214 518 214 518 189.5 538.5 c 128,-1,41
 165 559 165 559 136 578 c 0,42,43
 110 595 110 595 110 620 c 0,44,45
 110 631 110 631 113 638.5 c 128,-1,46
 116 646 116 646 123 653.5 c 128,-1,47
 130 661 130 661 142 669 c 128,-1,48
 154 677 154 677 173 689 c 0,49,50
 217 716 217 716 251 768 c 128,-1,51
 285 820 285 820 309 895 c 0,52,53
 313 907 313 907 325.5 946.5 c 128,-1,54
 338 986 338 986 353 1032 c 128,-1,55
 368 1078 368 1078 380.5 1117.5 c 128,-1,56
 393 1157 393 1157 397 1169 c 0,57,58
 411 1211 411 1211 431.5 1255 c 128,-1,59
 452 1299 452 1299 477 1342.5 c 128,-1,60
 502 1386 502 1386 531.5 1427.5 c 128,-1,61
 561 1469 561 1469 593 1505 c 0,62,63
 662 1583 662 1583 739.5 1638.5 c 128,-1,64
 817 1694 817 1694 899 1728 c 0,65,66
 929 1741 929 1741 955.5 1748 c 128,-1,67
 982 1755 982 1755 999 1755 c 0,68,69
 1043 1755 1043 1755 1043 1711 c 0,70,71
 1043 1689 1043 1689 1004 1665 c 0,72,73
 923 1615 923 1615 855 1527 c 0,74,75
 829 1494 829 1494 803 1447.5 c 128,-1,76
 777 1401 777 1401 754.5 1350.5 c 128,-1,77
 732 1300 732 1300 715.5 1249.5 c 128,-1,78
 699 1199 699 1199 692 1156 c 0,79,80
 684 1104 684 1104 676.5 1047.5 c 128,-1,81
 669 991 669 991 661 939 c 0,82,83
 653 885 653 885 638.5 838.5 c 128,-1,84
 624 792 624 792 602 751 c 0,85,86
 584 717 584 717 555.5 685.5 c 128,-1,87
 527 654 527 654 485 625 c 2,88,-1
 478 620 l 1,0,1
EndSplineSet
Substitution2: "<17016,16016> Urdu Swash lookup 115 subtable" braceleft
EndChar

StartChar: bar
Encoding: 124 124 95
Width: 1353
GlyphClass: 2
Flags: W
LayerCount: 2
Fore
SplineSet
582 1532 m 1,0,-1
 770 1532 l 1,1,-1
 770 -323 l 1,2,-1
 582 -323 l 1,3,-1
 582 1532 l 1,0,-1
EndSplineSet
Substitution2: "<17016,16016> Urdu Swash lookup 115 subtable" bar
EndChar

StartChar: braceright
Encoding: 125 125 96
Width: 1142
GlyphClass: 2
Flags: W
LayerCount: 2
Fore
SplineSet
673 620 m 1,0,1
 662 631 662 631 648.5 639.5 c 128,-1,2
 635 648 635 648 627 653 c 1,3,4
 521 741 521 741 491 939 c 1,5,-1
 461 1156 l 1,6,7
 445 1253 445 1253 403.5 1349.5 c 128,-1,8
 362 1446 362 1446 298 1527 c 0,9,10
 264 1570 264 1570 225.5 1605.5 c 128,-1,11
 187 1641 187 1641 146 1665 c 1,12,13
 110 1688 110 1688 110 1714 c 0,14,15
 110 1755 110 1755 151 1755 c 0,16,17
 169 1755 169 1755 195 1748 c 128,-1,18
 221 1741 221 1741 251 1728 c 0,19,20
 333 1694 333 1694 411 1637.5 c 128,-1,21
 489 1581 489 1581 558 1505 c 0,22,23
 591 1469 591 1469 620.5 1427.5 c 128,-1,24
 650 1386 650 1386 675 1342.5 c 128,-1,25
 700 1299 700 1299 720.5 1255 c 128,-1,26
 741 1211 741 1211 755 1169 c 0,27,28
 758 1161 758 1161 764.5 1140 c 128,-1,29
 771 1119 771 1119 780 1091 c 128,-1,30
 789 1063 789 1063 799 1032 c 128,-1,31
 809 1001 809 1001 818 973 c 128,-1,32
 827 945 827 945 834 924 c 128,-1,33
 841 903 841 903 843 895 c 0,34,35
 893 744 893 744 977 689 c 1,36,-1
 976 689 l 1,37,38
 986 683 986 683 997.5 676.5 c 128,-1,39
 1009 670 1009 670 1019 661.5 c 128,-1,40
 1029 653 1029 653 1035.5 642.5 c 128,-1,41
 1042 632 1042 632 1042 620 c 0,42,43
 1042 610 1042 610 1040.5 603.5 c 128,-1,44
 1039 597 1039 597 1032 590 c 128,-1,45
 1025 583 1025 583 1012.5 574.5 c 128,-1,46
 1000 566 1000 566 977 552 c 1,47,48
 938 525 938 525 902.5 471.5 c 128,-1,49
 867 418 867 418 843 346 c 0,50,51
 839 334 839 334 826.5 294.5 c 128,-1,52
 814 255 814 255 799 209 c 128,-1,53
 784 163 784 163 771.5 123.5 c 128,-1,54
 759 84 759 84 755 72 c 0,55,56
 741 30 741 30 721 -14.5 c 128,-1,57
 701 -59 701 -59 676 -102.5 c 128,-1,58
 651 -146 651 -146 621.5 -187.5 c 128,-1,59
 592 -229 592 -229 559 -265 c 0,60,61
 490 -342 490 -342 412.5 -398 c 128,-1,62
 335 -454 335 -454 251 -488 c 0,63,64
 221 -501 221 -501 195 -507.5 c 128,-1,65
 169 -514 169 -514 151 -514 c 0,66,67
 110 -514 110 -514 110 -471 c 0,68,69
 110 -460 110 -460 120 -448 c 128,-1,70
 130 -436 130 -436 146 -425 c 0,71,72
 188 -398 188 -398 226.5 -363 c 128,-1,73
 265 -328 265 -328 298 -286 c 0,74,75
 364 -204 364 -204 404.5 -109 c 128,-1,76
 445 -14 445 -14 461 85 c 0,77,78
 462 92 462 92 464.5 109 c 128,-1,79
 467 126 467 126 470 147.5 c 128,-1,80
 473 169 473 169 476 193 c 128,-1,81
 479 217 479 217 482 238.5 c 128,-1,82
 485 260 485 260 487.5 277 c 128,-1,83
 490 294 490 294 491 301 c 0,84,85
 508 406 508 406 554.5 487.5 c 128,-1,86
 601 569 601 569 667 614 c 1,87,-1
 673 620 l 1,0,1
EndSplineSet
Substitution2: "<17016,16016> Urdu Swash lookup 115 subtable" braceright
EndChar

StartChar: asciitilde
Encoding: 126 126 97
Width: 1245
GlyphClass: 2
Flags: W
LayerCount: 2
Fore
SplineSet
1284 957 m 1,0,1
 1276 749 1276 749 1184.5 640.5 c 128,-1,2
 1093 532 1093 532 915 532 c 0,3,4
 855 532 855 532 762 558 c 128,-1,5
 669 584 669 584 550 633 c 0,6,7
 547 635 547 635 532 641 c 128,-1,8
 517 647 517 647 497 655 c 128,-1,9
 477 663 477 663 454.5 672.5 c 128,-1,10
 432 682 432 682 412 690 c 128,-1,11
 392 698 392 698 377.5 704.5 c 128,-1,12
 363 711 363 711 359 712 c 0,13,14
 331 723 331 723 303 728.5 c 128,-1,15
 275 734 275 734 245 734 c 0,16,17
 203 734 203 734 172.5 723.5 c 128,-1,18
 142 713 142 713 120.5 689 c 128,-1,19
 99 665 99 665 84 626.5 c 128,-1,20
 69 588 69 588 59 532 c 1,21,-1
 -37 532 l 1,22,23
 -28 741 -28 741 62 849 c 128,-1,24
 152 957 152 957 323 957 c 0,25,26
 383 957 383 957 476 934 c 128,-1,27
 569 911 569 911 697 866 c 0,28,29
 743 849 743 849 789.5 833 c 128,-1,30
 836 817 836 817 877 804.5 c 128,-1,31
 918 792 918 792 950 784.5 c 128,-1,32
 982 777 982 777 999 777 c 0,33,34
 1049 777 1049 777 1083 786.5 c 128,-1,35
 1117 796 1117 796 1139 817.5 c 128,-1,36
 1161 839 1161 839 1172.5 873.5 c 128,-1,37
 1184 908 1184 908 1188 957 c 1,38,-1
 1284 957 l 1,0,1
EndSplineSet
Substitution2: "<17016,16016> Urdu Swash lookup 115 subtable" asciitilde
EndChar

StartChar: Adieresis
Encoding: 196 196 98
Width: 1770
GlyphClass: 2
Flags: W
LayerCount: 2
Fore
SplineSet
1118 1994 m 0,0,1
 1147 1994 1147 1994 1173 1982.5 c 128,-1,2
 1199 1971 1199 1971 1219 1951 c 128,-1,3
 1239 1931 1239 1931 1251 1905.5 c 128,-1,4
 1263 1880 1263 1880 1263 1851 c 256,5,6
 1263 1822 1263 1822 1251.5 1795.5 c 128,-1,7
 1240 1769 1240 1769 1220 1749 c 128,-1,8
 1200 1729 1200 1729 1173.5 1717.5 c 128,-1,9
 1147 1706 1147 1706 1118 1706 c 0,10,11
 1087 1706 1087 1706 1061 1717.5 c 128,-1,12
 1035 1729 1035 1729 1015.5 1749 c 128,-1,13
 996 1769 996 1769 985 1795 c 128,-1,14
 974 1821 974 1821 974 1851 c 256,15,16
 974 1881 974 1881 986 1907.5 c 128,-1,17
 998 1934 998 1934 1017.5 1953 c 128,-1,18
 1037 1972 1037 1972 1063.5 1983 c 128,-1,19
 1090 1994 1090 1994 1118 1994 c 0,0,1
653 1994 m 0,20,21
 682 1994 682 1994 708 1982.5 c 128,-1,22
 734 1971 734 1971 754 1951.5 c 128,-1,23
 774 1932 774 1932 786 1906 c 128,-1,24
 798 1880 798 1880 798 1851 c 0,25,26
 798 1821 798 1821 787 1795 c 128,-1,27
 776 1769 776 1769 756.5 1749 c 128,-1,28
 737 1729 737 1729 710.5 1717.5 c 128,-1,29
 684 1706 684 1706 653 1706 c 0,30,31
 624 1706 624 1706 597.5 1717.5 c 128,-1,32
 571 1729 571 1729 551 1749 c 128,-1,33
 531 1769 531 1769 519 1795 c 128,-1,34
 507 1821 507 1821 507 1851 c 0,35,36
 507 1880 507 1880 519.5 1906 c 128,-1,37
 532 1932 532 1932 552 1951.5 c 128,-1,38
 572 1971 572 1971 598.5 1982.5 c 128,-1,39
 625 1994 625 1994 653 1994 c 0,20,21
1003 685 m 1,40,41
 996 704 996 704 979 748 c 128,-1,42
 962 792 962 792 940 848 c 128,-1,43
 918 904 918 904 893.5 966 c 128,-1,44
 869 1028 869 1028 847 1083.5 c 128,-1,45
 825 1139 825 1139 808 1181 c 128,-1,46
 791 1223 791 1223 784 1239 c 1,47,48
 733 1100 733 1100 684 962.5 c 128,-1,49
 635 825 635 825 584 685 c 1,50,-1
 1003 685 l 1,40,41
1059 551 m 1,51,-1
 537 551 l 1,52,53
 514 485 514 485 488 412.5 c 128,-1,54
 462 340 462 340 438 274 c 0,55,56
 419 222 419 222 419 185 c 0,57,58
 419 161 419 161 429 144.5 c 128,-1,59
 439 128 439 128 463 117.5 c 128,-1,60
 487 107 487 107 526.5 102 c 128,-1,61
 566 97 566 97 625 97 c 2,62,-1
 656 97 l 1,63,-1
 656 0 l 1,64,-1
 20 0 l 1,65,-1
 20 97 l 1,66,-1
 58 97 l 2,67,68
 102 97 102 97 136 108.5 c 128,-1,69
 170 120 170 120 197.5 145.5 c 128,-1,70
 225 171 225 171 247.5 212.5 c 128,-1,71
 270 254 270 254 292 314 c 2,72,-1
 699 1452 l 1,73,74
 694 1468 694 1468 687.5 1488 c 128,-1,75
 681 1508 681 1508 674 1524 c 1,76,-1
 1030 1524 l 1,77,-1
 1506 308 l 1,78,79
 1530 251 1530 251 1554 212.5 c 128,-1,80
 1578 174 1578 174 1606 149 c 128,-1,81
 1634 124 1634 124 1667.5 112 c 128,-1,82
 1701 100 1701 100 1746 97 c 1,83,-1
 1746 0 l 1,84,-1
 967 0 l 1,85,-1
 967 97 l 1,86,-1
 1052 97 l 2,87,88
 1155 97 1155 97 1183 140 c 1,89,-1
 1183 139 l 1,90,91
 1188 148 1188 148 1191 158.5 c 128,-1,92
 1194 169 1194 169 1194 183 c 1,93,94
 1192 200 1192 200 1186.5 226 c 128,-1,95
 1181 252 1181 252 1170 277 c 2,96,-1
 1059 551 l 1,51,-1
EndSplineSet
Substitution2: "<17016,16016> Urdu Swash lookup 115 subtable" Adieresis
EndChar

StartChar: Aring
Encoding: 197 197 99
AltUni2: 00212b.ffffffff.0
Width: 1770
GlyphClass: 2
Flags: W
LayerCount: 2
Fore
SplineSet
838 1723 m 0,0,1
 862 1723 862 1723 884 1732.5 c 128,-1,2
 906 1742 906 1742 922.5 1758.5 c 128,-1,3
 939 1775 939 1775 949 1797 c 128,-1,4
 959 1819 959 1819 959 1843 c 256,5,6
 959 1867 959 1867 949 1888.5 c 128,-1,7
 939 1910 939 1910 922.5 1927 c 128,-1,8
 906 1944 906 1944 884 1954 c 128,-1,9
 862 1964 862 1964 838 1964 c 0,10,11
 815 1964 815 1964 793.5 1954 c 128,-1,12
 772 1944 772 1944 755.5 1927 c 128,-1,13
 739 1910 739 1910 729 1888.5 c 128,-1,14
 719 1867 719 1867 719 1843 c 256,15,16
 719 1819 719 1819 729 1797 c 128,-1,17
 739 1775 739 1775 755.5 1758.5 c 128,-1,18
 772 1742 772 1742 793.5 1732.5 c 128,-1,19
 815 1723 815 1723 838 1723 c 0,0,1
1003 685 m 1,20,21
 996 704 996 704 979 748 c 128,-1,22
 962 792 962 792 940 848 c 128,-1,23
 918 904 918 904 893.5 966 c 128,-1,24
 869 1028 869 1028 847 1083.5 c 128,-1,25
 825 1139 825 1139 808 1181 c 128,-1,26
 791 1223 791 1223 784 1239 c 1,27,28
 733 1100 733 1100 684 962.5 c 128,-1,29
 635 825 635 825 584 685 c 1,30,-1
 1003 685 l 1,20,21
838 2089 m 256,31,32
 889 2089 889 2089 934.5 2069.5 c 128,-1,33
 980 2050 980 2050 1014 2016.5 c 128,-1,34
 1048 1983 1048 1983 1067.5 1938 c 128,-1,35
 1087 1893 1087 1893 1087 1843 c 0,36,37
 1087 1792 1087 1792 1067.5 1746.5 c 128,-1,38
 1048 1701 1048 1701 1014.5 1667 c 128,-1,39
 981 1633 981 1633 935.5 1613.5 c 128,-1,40
 890 1594 890 1594 838 1594 c 0,41,42
 787 1594 787 1594 742 1613.5 c 128,-1,43
 697 1633 697 1633 663.5 1667 c 128,-1,44
 630 1701 630 1701 611 1746.5 c 128,-1,45
 592 1792 592 1792 592 1843 c 256,46,47
 592 1894 592 1894 611.5 1938.5 c 128,-1,48
 631 1983 631 1983 664 2016.5 c 128,-1,49
 697 2050 697 2050 742 2069.5 c 128,-1,50
 787 2089 787 2089 838 2089 c 256,31,32
1059 551 m 1,51,-1
 537 551 l 1,52,53
 514 485 514 485 488 412.5 c 128,-1,54
 462 340 462 340 438 274 c 0,55,56
 419 222 419 222 419 185 c 0,57,58
 419 161 419 161 429 144.5 c 128,-1,59
 439 128 439 128 463 117.5 c 128,-1,60
 487 107 487 107 526.5 102 c 128,-1,61
 566 97 566 97 625 97 c 2,62,-1
 656 97 l 1,63,-1
 656 0 l 1,64,-1
 20 0 l 1,65,-1
 20 97 l 1,66,-1
 58 97 l 2,67,68
 102 97 102 97 136 108.5 c 128,-1,69
 170 120 170 120 197.5 145.5 c 128,-1,70
 225 171 225 171 247.5 212.5 c 128,-1,71
 270 254 270 254 292 314 c 2,72,-1
 699 1452 l 1,73,74
 694 1468 694 1468 687.5 1488 c 128,-1,75
 681 1508 681 1508 674 1524 c 1,76,-1
 1030 1524 l 1,77,-1
 1506 308 l 1,78,79
 1530 251 1530 251 1554 212.5 c 128,-1,80
 1578 174 1578 174 1606 149 c 128,-1,81
 1634 124 1634 124 1667.5 112 c 128,-1,82
 1701 100 1701 100 1746 97 c 1,83,-1
 1746 0 l 1,84,-1
 967 0 l 1,85,-1
 967 97 l 1,86,-1
 1052 97 l 2,87,88
 1155 97 1155 97 1183 140 c 1,89,-1
 1183 139 l 1,90,91
 1188 148 1188 148 1191 158.5 c 128,-1,92
 1194 169 1194 169 1194 183 c 1,93,94
 1192 200 1192 200 1186.5 226 c 128,-1,95
 1181 252 1181 252 1170 277 c 2,96,-1
 1059 551 l 1,51,-1
EndSplineSet
Substitution2: "<17016,16016> Urdu Swash lookup 115 subtable" Aring
EndChar

StartChar: Ccedilla
Encoding: 199 199 100
Width: 1770
GlyphClass: 2
Flags: W
LayerCount: 2
Fore
SplineSet
1679 429 m 1,0,1
 1662 327 1662 327 1627 213.5 c 128,-1,2
 1592 100 1592 100 1543 -7 c 1,3,4
 1517 1 1517 1 1481.5 5 c 128,-1,5
 1446 9 1446 9 1403 9 c 0,6,7
 1390 9 1390 9 1361.5 5.5 c 128,-1,8
 1333 2 1333 2 1296 -2.5 c 128,-1,9
 1259 -7 1259 -7 1216.5 -13 c 128,-1,10
 1174 -19 1174 -19 1133 -23.5 c 128,-1,11
 1092 -28 1092 -28 1055 -31.5 c 128,-1,12
 1018 -35 1018 -35 992 -35 c 1,13,-1
 968 -77 l 1,14,15
 1111 -116 1111 -116 1111 -267 c 0,16,17
 1111 -315 1111 -315 1093 -355.5 c 128,-1,18
 1075 -396 1075 -396 1043 -426 c 128,-1,19
 1011 -456 1011 -456 966.5 -473 c 128,-1,20
 922 -490 922 -490 869 -490 c 0,21,22
 751 -490 751 -490 659 -432 c 1,23,24
 662 -423 662 -423 668 -402 c 128,-1,25
 674 -381 674 -381 681 -358 c 1,26,27
 710 -371 710 -371 744.5 -378.5 c 128,-1,28
 779 -386 779 -386 816 -386 c 0,29,30
 837 -386 837 -386 856 -378.5 c 128,-1,31
 875 -371 875 -371 889.5 -358.5 c 128,-1,32
 904 -346 904 -346 912.5 -328.5 c 128,-1,33
 921 -311 921 -311 921 -290 c 0,34,35
 921 -213 921 -213 784 -198 c 1,36,-1
 902 -31 l 1,37,38
 722 -14 722 -14 565 62 c 1,39,40
 465 112 465 112 380.5 186 c 128,-1,41
 296 260 296 260 237 348 c 1,42,43
 183 433 183 433 152 534 c 128,-1,44
 121 635 121 635 121 739 c 0,45,46
 121 1069 121 1069 386 1295 c 0,47,48
 520 1410 520 1410 681.5 1467.5 c 128,-1,49
 843 1525 843 1525 1038 1524 c 0,50,51
 1097 1524 1097 1524 1153.5 1516 c 128,-1,52
 1210 1508 1210 1508 1261.5 1496 c 128,-1,53
 1313 1484 1313 1484 1357 1470 c 128,-1,54
 1401 1456 1401 1456 1434 1444 c 0,55,56
 1456 1436 1456 1436 1473 1430.5 c 128,-1,57
 1490 1425 1490 1425 1495 1425 c 0,58,59
 1507 1425 1507 1425 1519.5 1431 c 128,-1,60
 1532 1437 1532 1437 1542 1449 c 1,61,-1
 1604 1449 l 1,62,63
 1605 1438 1605 1438 1606.5 1406 c 128,-1,64
 1608 1374 1608 1374 1610 1331.5 c 128,-1,65
 1612 1289 1612 1289 1615 1241.5 c 128,-1,66
 1618 1194 1618 1194 1620 1151 c 128,-1,67
 1622 1108 1622 1108 1623.5 1075 c 128,-1,68
 1625 1042 1625 1042 1626 1030 c 1,69,-1
 1530 1030 l 1,70,71
 1491 1145 1491 1145 1422 1229 c 128,-1,72
 1353 1313 1353 1313 1265 1355 c 1,73,74
 1167 1398 1167 1398 1056 1398 c 0,75,76
 801 1398 801 1398 641 1222 c 1,77,78
 481 1044 481 1044 481 765 c 0,79,80
 481 585 481 585 554 430 c 0,81,82
 592 351 592 351 650 287.5 c 128,-1,83
 708 224 708 224 779 176 c 1,84,85
 848 131 848 131 925 108.5 c 128,-1,86
 1002 86 1002 86 1084 85 c 0,87,88
 1165 85 1165 85 1241.5 110 c 128,-1,89
 1318 135 1318 135 1384 182 c 0,90,91
 1445 226 1445 226 1495 290 c 128,-1,92
 1545 354 1545 354 1581 429 c 1,93,-1
 1679 429 l 1,0,1
EndSplineSet
Substitution2: "<17016,16016> Urdu Swash lookup 115 subtable" Ccedilla
EndChar

StartChar: Eacute
Encoding: 201 201 101
Width: 1544
GlyphClass: 2
Flags: W
LayerCount: 2
Fore
SplineSet
491 1654 m 1,0,1
 497 1671 497 1671 511 1707 c 128,-1,2
 525 1743 525 1743 543 1788.5 c 128,-1,3
 561 1834 561 1834 580.5 1883.5 c 128,-1,4
 600 1933 600 1933 618 1978 c 128,-1,5
 636 2023 636 2023 649.5 2057.5 c 128,-1,6
 663 2092 663 2092 668 2107 c 1,7,-1
 1055 2107 l 1,8,9
 1042 2094 1042 2094 1008.5 2057.5 c 128,-1,10
 975 2021 975 2021 931 1974 c 128,-1,11
 887 1927 887 1927 838 1874.5 c 128,-1,12
 789 1822 789 1822 746 1776.5 c 128,-1,13
 703 1731 703 1731 671.5 1697 c 128,-1,14
 640 1663 640 1663 630 1654 c 1,15,-1
 491 1654 l 1,0,1
1296 1140 m 1,16,17
 1288 1194 1288 1194 1278.5 1232.5 c 128,-1,18
 1269 1271 1269 1271 1258 1289 c 1,19,-1
 1258 1288 l 1,20,21
 1220 1353 1220 1353 1132 1353 c 2,22,-1
 611 1353 l 1,23,-1
 611 818 l 1,24,-1
 997 818 l 2,25,26
 1092 818 1092 818 1132.5 859 c 128,-1,27
 1173 900 1173 900 1175 991 c 1,28,-1
 1273 991 l 1,29,-1
 1273 513 l 1,30,-1
 1175 513 l 1,31,32
 1173 567 1173 567 1161.5 600.5 c 128,-1,33
 1150 634 1150 634 1124.5 653 c 128,-1,34
 1099 672 1099 672 1059 678.5 c 128,-1,35
 1019 685 1019 685 960 685 c 2,36,-1
 611 685 l 1,37,-1
 611 256 l 2,38,39
 611 217 611 217 616 193 c 128,-1,40
 621 169 621 169 631.5 155.5 c 128,-1,41
 642 142 642 142 658.5 137.5 c 128,-1,42
 675 133 675 133 697 133 c 2,43,-1
 1098 133 l 2,44,45
 1160 133 1160 133 1204 144.5 c 128,-1,46
 1248 156 1248 156 1279.5 183.5 c 128,-1,47
 1311 211 1311 211 1332.5 258.5 c 128,-1,48
 1354 306 1354 306 1371 378 c 1,49,-1
 1463 378 l 1,50,51
 1463 371 1463 371 1461 342.5 c 128,-1,52
 1459 314 1459 314 1456 274.5 c 128,-1,53
 1453 235 1453 235 1450 190 c 128,-1,54
 1447 145 1447 145 1444 105.5 c 128,-1,55
 1441 66 1441 66 1439 37 c 128,-1,56
 1437 8 1437 8 1436 0 c 1,57,-1
 -4 0 l 1,58,-1
 -4 97 l 1,59,-1
 96 97 l 2,60,61
 281 97 281 97 281 267 c 2,62,-1
 281 1218 l 2,63,64
 281 1263 281 1263 264.5 1301 c 128,-1,65
 248 1339 248 1339 228 1360 c 1,66,67
 205 1373 205 1373 164 1382.5 c 128,-1,68
 123 1392 123 1392 72 1392 c 2,69,-1
 48 1392 l 1,70,-1
 48 1487 l 1,71,-1
 1364 1487 l 1,72,73
 1369 1402 1369 1402 1375 1312.5 c 128,-1,74
 1381 1223 1381 1223 1389 1140 c 1,75,-1
 1296 1140 l 1,16,17
EndSplineSet
Substitution2: "<17016,16016> Urdu Swash lookup 115 subtable" Eacute
EndChar

StartChar: Ntilde
Encoding: 209 209 102
Width: 1944
GlyphClass: 2
Flags: W
LayerCount: 2
Fore
SplineSet
1088 1823 m 1,0,1
 1129 1823 1129 1823 1151.5 1845.5 c 128,-1,2
 1174 1868 1174 1868 1180 1922 c 1,3,-1
 1332 1922 l 1,4,5
 1300 1753 1300 1753 1235 1698 c 0,6,7
 1204 1672 1204 1672 1162 1656.5 c 128,-1,8
 1120 1641 1120 1641 1079 1641 c 0,9,10
 1059 1641 1059 1641 1033 1646 c 128,-1,11
 1007 1651 1007 1651 981 1658.5 c 128,-1,12
 955 1666 955 1666 931.5 1675 c 128,-1,13
 908 1684 908 1684 892 1692 c 1,14,-1
 890 1692 l 1,15,16
 840 1710 840 1710 808.5 1719 c 128,-1,17
 777 1728 777 1728 747 1728 c 0,18,19
 685 1728 685 1728 666 1627 c 1,20,-1
 521 1627 l 1,21,22
 547 1768 547 1768 609.5 1836.5 c 128,-1,23
 672 1905 672 1905 776 1905 c 0,24,25
 795 1905 795 1905 815.5 1902.5 c 128,-1,26
 836 1900 836 1900 860.5 1893.5 c 128,-1,27
 885 1887 885 1887 916 1876 c 128,-1,28
 947 1865 947 1865 986 1848 c 1,29,-1
 985 1847 l 1,30,-1
 1088 1823 l 1,0,1
402 1186 m 1,31,-1
 402 288 l 2,32,33
 402 227 402 227 416 190 c 128,-1,34
 430 153 430 153 459 132.5 c 128,-1,35
 488 112 488 112 532.5 105 c 128,-1,36
 577 98 577 98 637 97 c 1,37,-1
 637 0 l 1,38,-1
 57 0 l 1,39,-1
 57 97 l 1,40,-1
 72 97 l 2,41,42
 122 97 122 97 156.5 105 c 128,-1,43
 191 113 191 113 212.5 130.5 c 128,-1,44
 234 148 234 148 243.5 176 c 128,-1,45
 253 204 253 204 253 244 c 2,46,-1
 253 1339 l 1,47,48
 217 1361 217 1361 165.5 1375.5 c 128,-1,49
 114 1390 114 1390 62 1392 c 1,50,-1
 62 1487 l 1,51,-1
 558 1487 l 1,52,-1
 1528 471 l 1,53,-1
 1528 1189 l 2,54,55
 1528 1259 1528 1259 1515.5 1299.5 c 128,-1,56
 1503 1340 1503 1340 1476 1360.5 c 128,-1,57
 1449 1381 1449 1381 1406 1386.5 c 128,-1,58
 1363 1392 1363 1392 1302 1392 c 2,59,-1
 1278 1392 l 1,60,-1
 1278 1487 l 1,61,-1
 1895 1487 l 1,62,-1
 1895 1392 l 1,63,-1
 1871 1392 l 2,64,65
 1826 1392 1826 1392 1791.5 1388 c 128,-1,66
 1757 1384 1757 1384 1738 1376 c 0,67,68
 1708 1363 1708 1363 1692 1335.5 c 128,-1,69
 1676 1308 1676 1308 1676 1272 c 2,70,-1
 1676 -7 l 1,71,-1
 1542 -7 l 1,72,-1
 402 1186 l 1,31,-1
EndSplineSet
Substitution2: "<17016,16016> Urdu Swash lookup 115 subtable" Ntilde
EndChar

StartChar: Odieresis
Encoding: 214 214 103
Width: 2019
GlyphClass: 2
Flags: W
LayerCount: 2
Fore
SplineSet
1242 1994 m 0,0,1
 1271 1994 1271 1994 1297 1982.5 c 128,-1,2
 1323 1971 1323 1971 1343 1951 c 128,-1,3
 1363 1931 1363 1931 1375 1905.5 c 128,-1,4
 1387 1880 1387 1880 1387 1851 c 256,5,6
 1387 1822 1387 1822 1375.5 1795.5 c 128,-1,7
 1364 1769 1364 1769 1344 1749 c 128,-1,8
 1324 1729 1324 1729 1297.5 1717.5 c 128,-1,9
 1271 1706 1271 1706 1242 1706 c 0,10,11
 1212 1706 1212 1706 1185.5 1717.5 c 128,-1,12
 1159 1729 1159 1729 1139.5 1749 c 128,-1,13
 1120 1769 1120 1769 1109 1795 c 128,-1,14
 1098 1821 1098 1821 1098 1851 c 256,15,16
 1098 1881 1098 1881 1110 1907.5 c 128,-1,17
 1122 1934 1122 1934 1141.5 1953 c 128,-1,18
 1161 1972 1161 1972 1187.5 1983 c 128,-1,19
 1214 1994 1214 1994 1242 1994 c 0,0,1
778 1994 m 0,20,21
 807 1994 807 1994 833 1982.5 c 128,-1,22
 859 1971 859 1971 879 1951.5 c 128,-1,23
 899 1932 899 1932 910.5 1906 c 128,-1,24
 922 1880 922 1880 922 1851 c 0,25,26
 922 1821 922 1821 911 1795 c 128,-1,27
 900 1769 900 1769 880.5 1749 c 128,-1,28
 861 1729 861 1729 834.5 1717.5 c 128,-1,29
 808 1706 808 1706 778 1706 c 0,30,31
 749 1706 749 1706 722.5 1717.5 c 128,-1,32
 696 1729 696 1729 675.5 1749 c 128,-1,33
 655 1769 655 1769 643 1795 c 128,-1,34
 631 1821 631 1821 631 1851 c 0,35,36
 631 1880 631 1880 643.5 1906 c 128,-1,37
 656 1932 656 1932 676 1951.5 c 128,-1,38
 696 1971 696 1971 723 1982.5 c 128,-1,39
 750 1994 750 1994 778 1994 c 0,20,21
483 835 m 0,40,41
 483 500 483 500 640 284 c 1,42,43
 798 70 798 70 1049 70 c 0,44,45
 1122 70 1122 70 1187.5 93 c 128,-1,46
 1253 116 1253 116 1308 157 c 128,-1,47
 1363 198 1363 198 1407 254 c 128,-1,48
 1451 310 1451 310 1481 377 c 1,49,50
 1492 410 1492 410 1502 448 c 128,-1,51
 1512 486 1512 486 1519.5 526 c 128,-1,52
 1527 566 1527 566 1531 607 c 128,-1,53
 1535 648 1535 648 1535 686 c 0,54,55
 1535 835 1535 835 1497 968 c 128,-1,56
 1459 1101 1459 1101 1393 1205 c 1,57,58
 1318 1311 1318 1311 1214 1370 c 128,-1,59
 1110 1429 1110 1429 983 1429 c 0,60,61
 872 1429 872 1429 780 1386.5 c 128,-1,62
 688 1344 688 1344 622 1266 c 128,-1,63
 556 1188 556 1188 519.5 1078.5 c 128,-1,64
 483 969 483 969 483 835 c 0,40,41
123 719 m 1,65,66
 123 1076 123 1076 381 1302 c 1,67,68
 638 1532 638 1532 1041 1532 c 0,69,70
 1226 1532 1226 1532 1382.5 1476.5 c 128,-1,71
 1539 1421 1539 1421 1652.5 1320.5 c 128,-1,72
 1766 1220 1766 1220 1829.5 1080.5 c 128,-1,73
 1893 941 1893 941 1893 773 c 0,74,75
 1893 647 1893 647 1856 531 c 128,-1,76
 1819 415 1819 415 1750 317 c 0,77,78
 1717 271 1717 271 1674 229 c 128,-1,79
 1631 187 1631 187 1581 150.5 c 128,-1,80
 1531 114 1531 114 1477 84 c 128,-1,81
 1423 54 1423 54 1368 32 c 0,82,83
 1288 0 1288 0 1191 -17 c 128,-1,84
 1094 -34 1094 -34 994 -35 c 1,85,86
 880 -35 880 -35 767 -11 c 128,-1,87
 654 13 654 13 561 55 c 0,88,89
 454 103 454 103 369.5 177 c 128,-1,90
 285 251 285 251 228 343 c 1,91,92
 177 428 177 428 150.5 523 c 128,-1,93
 124 618 124 618 123 719 c 1,65,66
EndSplineSet
Substitution2: "<17016,16016> Urdu Swash lookup 115 subtable" Odieresis
EndChar

StartChar: Udieresis
Encoding: 220 220 104
Width: 1844
GlyphClass: 2
Flags: W
LayerCount: 2
Fore
SplineSet
1154 1994 m 0,0,1
 1183 1994 1183 1994 1209 1982.5 c 128,-1,2
 1235 1971 1235 1971 1255 1951 c 128,-1,3
 1275 1931 1275 1931 1287 1905.5 c 128,-1,4
 1299 1880 1299 1880 1299 1851 c 256,5,6
 1299 1822 1299 1822 1287.5 1795.5 c 128,-1,7
 1276 1769 1276 1769 1256 1749 c 128,-1,8
 1236 1729 1236 1729 1209.5 1717.5 c 128,-1,9
 1183 1706 1183 1706 1154 1706 c 0,10,11
 1124 1706 1124 1706 1097.5 1717.5 c 128,-1,12
 1071 1729 1071 1729 1051.5 1749 c 128,-1,13
 1032 1769 1032 1769 1021 1795 c 128,-1,14
 1010 1821 1010 1821 1010 1851 c 256,15,16
 1010 1881 1010 1881 1022 1907.5 c 128,-1,17
 1034 1934 1034 1934 1053.5 1953 c 128,-1,18
 1073 1972 1073 1972 1099.5 1983 c 128,-1,19
 1126 1994 1126 1994 1154 1994 c 0,0,1
690 1994 m 0,20,21
 719 1994 719 1994 745 1982.5 c 128,-1,22
 771 1971 771 1971 791 1951.5 c 128,-1,23
 811 1932 811 1932 822.5 1906 c 128,-1,24
 834 1880 834 1880 834 1851 c 0,25,26
 834 1821 834 1821 823 1795 c 128,-1,27
 812 1769 812 1769 792.5 1749 c 128,-1,28
 773 1729 773 1729 746.5 1717.5 c 128,-1,29
 720 1706 720 1706 690 1706 c 0,30,31
 661 1706 661 1706 634.5 1717.5 c 128,-1,32
 608 1729 608 1729 587.5 1749 c 128,-1,33
 567 1769 567 1769 555 1795 c 128,-1,34
 543 1821 543 1821 543 1851 c 0,35,36
 543 1880 543 1880 555.5 1906 c 128,-1,37
 568 1932 568 1932 588 1951.5 c 128,-1,38
 608 1971 608 1971 635 1982.5 c 128,-1,39
 662 1994 662 1994 690 1994 c 0,20,21
1211 1392 m 1,40,-1
 1211 1487 l 1,41,-1
 1832 1487 l 1,42,-1
 1832 1392 l 1,43,-1
 1813 1392 l 2,44,45
 1753 1392 1753 1392 1711.5 1381.5 c 128,-1,46
 1670 1371 1670 1371 1644 1347 c 128,-1,47
 1618 1323 1618 1323 1606 1285.5 c 128,-1,48
 1594 1248 1594 1248 1594 1194 c 2,49,-1
 1594 600 l 2,50,51
 1594 444 1594 444 1550.5 325.5 c 128,-1,52
 1507 207 1507 207 1422 127 c 128,-1,53
 1337 47 1337 47 1212 6 c 128,-1,54
 1087 -35 1087 -35 923 -35 c 0,55,56
 761 -35 761 -35 631 1.5 c 128,-1,57
 501 38 501 38 409.5 108.5 c 128,-1,58
 318 179 318 179 269 282 c 128,-1,59
 220 385 220 385 220 518 c 2,60,-1
 220 1231 l 2,61,62
 220 1278 220 1278 212 1309 c 128,-1,63
 204 1340 204 1340 184.5 1358.5 c 128,-1,64
 165 1377 165 1377 133 1384.5 c 128,-1,65
 101 1392 101 1392 54 1392 c 2,66,-1
 11 1392 l 1,67,-1
 11 1487 l 1,68,-1
 761 1487 l 1,69,-1
 761 1392 l 1,70,-1
 719 1392 l 2,71,72
 551 1392 551 1392 551 1231 c 2,73,-1
 551 518 l 2,74,75
 551 424 551 424 582 351.5 c 128,-1,76
 613 279 613 279 669.5 229.5 c 128,-1,77
 726 180 726 180 805.5 154.5 c 128,-1,78
 885 129 885 129 983 129 c 0,79,80
 1093 129 1093 129 1179.5 158 c 128,-1,81
 1266 187 1266 187 1326 243 c 128,-1,82
 1386 299 1386 299 1417.5 380.5 c 128,-1,83
 1449 462 1449 462 1449 567 c 2,84,-1
 1449 1147 l 2,85,86
 1449 1231 1449 1231 1429 1285.5 c 128,-1,87
 1409 1340 1409 1340 1371 1365 c 1,88,-1
 1372 1365 l 1,89,90
 1350 1377 1350 1377 1321 1384.5 c 128,-1,91
 1292 1392 1292 1392 1255 1392 c 2,92,-1
 1211 1392 l 1,40,-1
EndSplineSet
Substitution2: "<17016,16016> Urdu Swash lookup 115 subtable" Udieresis
EndChar

StartChar: aacute
Encoding: 225 225 105
Width: 1145
GlyphClass: 2
Flags: W
LayerCount: 2
Fore
SplineSet
656 547 m 1,0,1
 638 531 638 531 607 512.5 c 128,-1,2
 576 494 576 494 545 478 c 128,-1,3
 514 462 514 462 490 451 c 128,-1,4
 466 440 466 440 463 439 c 0,5,6
 380 388 380 388 380 274 c 0,7,8
 380 240 380 240 388 210 c 128,-1,9
 396 180 396 180 411 157.5 c 128,-1,10
 426 135 426 135 448 122.5 c 128,-1,11
 470 110 470 110 498 110 c 0,12,13
 523 110 523 110 565 138 c 128,-1,14
 607 166 607 166 656 211 c 1,15,-1
 656 547 l 1,0,1
292 1140 m 1,16,17
 298 1157 298 1157 312 1192.5 c 128,-1,18
 326 1228 326 1228 344 1273 c 128,-1,19
 362 1318 362 1318 381.5 1368 c 128,-1,20
 401 1418 401 1418 419 1463 c 128,-1,21
 437 1508 437 1508 450.5 1542.5 c 128,-1,22
 464 1577 464 1577 469 1592 c 1,23,-1
 856 1592 l 1,24,25
 843 1579 843 1579 809.5 1542.5 c 128,-1,26
 776 1506 776 1506 732 1459 c 128,-1,27
 688 1412 688 1412 639 1359.5 c 128,-1,28
 590 1307 590 1307 547 1261.5 c 128,-1,29
 504 1216 504 1216 472 1182.5 c 128,-1,30
 440 1149 440 1149 431 1140 c 1,31,-1
 292 1140 l 1,16,17
1103 120 m 1,32,33
 1074 91 1074 91 1039.5 65 c 128,-1,34
 1005 39 1005 39 969 19.5 c 128,-1,35
 933 0 933 0 897.5 -11 c 128,-1,36
 862 -22 862 -22 831 -22 c 0,37,38
 762 -22 762 -22 718.5 12 c 128,-1,39
 675 46 675 46 661 120 c 1,40,41
 578 43 578 43 531 14 c 0,42,43
 498 -6 498 -6 456.5 -15 c 128,-1,44
 415 -24 415 -24 367 -25 c 1,45,46
 305 -25 305 -25 254 -7.5 c 128,-1,47
 203 10 203 10 167 43 c 128,-1,48
 131 76 131 76 111.5 122.5 c 128,-1,49
 92 169 92 169 92 227 c 0,50,51
 92 346 92 346 165 416 c 0,52,53
 194 444 194 444 249.5 471.5 c 128,-1,54
 305 499 305 499 389 525 c 0,55,56
 470 551 470 551 539 587 c 128,-1,57
 608 623 608 623 656 658 c 1,58,-1
 656 746 l 2,59,60
 656 779 656 779 645 808 c 128,-1,61
 634 837 634 837 614 858.5 c 128,-1,62
 594 880 594 880 567 892.5 c 128,-1,63
 540 905 540 905 507 905 c 0,64,65
 382 905 382 905 382 769 c 0,66,67
 382 744 382 744 385 721 c 1,68,69
 324 699 324 699 252 674.5 c 128,-1,70
 180 650 180 650 114 628 c 1,71,72
 105 673 105 673 105 712 c 0,73,74
 105 794 105 794 169.5 856.5 c 128,-1,75
 234 919 234 919 349 961 c 0,76,77
 407 983 407 983 460 992.5 c 128,-1,78
 513 1002 513 1002 560 1003 c 1,79,80
 629 1003 629 1003 698.5 984.5 c 128,-1,81
 768 966 768 966 824 929 c 128,-1,82
 880 892 880 892 915 837 c 128,-1,83
 950 782 950 782 950 710 c 2,84,-1
 950 260 l 2,85,86
 950 152 950 152 1001 152 c 0,87,88
 1024 152 1024 152 1065 180 c 1,89,-1
 1103 120 l 1,32,33
EndSplineSet
Substitution2: "<17016,16016> Urdu Swash lookup 115 subtable" aacute
EndChar

StartChar: agrave
Encoding: 224 224 106
Width: 1145
GlyphClass: 2
Flags: W
LayerCount: 2
Fore
SplineSet
656 549 m 1,0,1
 638 533 638 533 607 515 c 128,-1,2
 576 497 576 497 545 481.5 c 128,-1,3
 514 466 514 466 490 455 c 128,-1,4
 466 444 466 444 463 442 c 0,5,6
 380 391 380 391 380 276 c 0,7,8
 380 242 380 242 388 212 c 128,-1,9
 396 182 396 182 411 159.5 c 128,-1,10
 426 137 426 137 448 124.5 c 128,-1,11
 470 112 470 112 498 112 c 0,12,13
 523 112 523 112 565 140 c 128,-1,14
 607 168 607 168 656 213 c 1,15,-1
 656 549 l 1,0,1
755 1142 m 1,16,-1
 615 1142 l 1,17,18
 608 1149 608 1149 588 1170 c 128,-1,19
 568 1191 568 1191 539.5 1221 c 128,-1,20
 511 1251 511 1251 476.5 1287.5 c 128,-1,21
 442 1324 442 1324 406 1362 c 128,-1,22
 370 1400 370 1400 335 1437 c 128,-1,23
 300 1474 300 1474 270.5 1505.5 c 128,-1,24
 241 1537 241 1537 219 1560.5 c 128,-1,25
 197 1584 197 1584 188 1594 c 1,26,-1
 578 1594 l 1,27,-1
 755 1142 l 1,16,-1
1103 122 m 1,28,29
 1074 93 1074 93 1039.5 67 c 128,-1,30
 1005 41 1005 41 969 21.5 c 128,-1,31
 933 2 933 2 897.5 -9 c 128,-1,32
 862 -20 862 -20 831 -20 c 0,33,34
 762 -20 762 -20 718.5 14 c 128,-1,35
 675 48 675 48 661 122 c 1,36,37
 576 43 576 43 531 17 c 0,38,39
 498 -3 498 -3 456.5 -12.5 c 128,-1,40
 415 -22 415 -22 367 -23 c 1,41,42
 305 -23 305 -23 254 -5.5 c 128,-1,43
 203 12 203 12 167 45 c 128,-1,44
 131 78 131 78 111.5 124.5 c 128,-1,45
 92 171 92 171 92 229 c 0,46,47
 92 348 92 348 165 419 c 0,48,49
 223 476 223 476 389 528 c 0,50,51
 470 554 470 554 539 588.5 c 128,-1,52
 608 623 608 623 656 660 c 1,53,-1
 656 748 l 2,54,55
 656 781 656 781 645 810.5 c 128,-1,56
 634 840 634 840 614 861.5 c 128,-1,57
 594 883 594 883 567 895.5 c 128,-1,58
 540 908 540 908 507 908 c 0,59,60
 382 908 382 908 382 771 c 0,61,62
 382 746 382 746 385 723 c 1,63,64
 324 701 324 701 252 676.5 c 128,-1,65
 180 652 180 652 114 630 c 1,66,67
 105 675 105 675 105 714 c 0,68,69
 105 796 105 796 169.5 859 c 128,-1,70
 234 922 234 922 349 964 c 0,71,72
 407 985 407 985 460 994.5 c 128,-1,73
 513 1004 513 1004 560 1005 c 1,74,75
 629 1005 629 1005 698.5 986.5 c 128,-1,76
 768 968 768 968 824 931 c 128,-1,77
 880 894 880 894 915 839 c 128,-1,78
 950 784 950 784 950 712 c 2,79,-1
 950 262 l 2,80,81
 950 154 950 154 1001 154 c 0,82,83
 1024 154 1024 154 1065 183 c 1,84,-1
 1103 122 l 1,28,29
EndSplineSet
Substitution2: "<17016,16016> Urdu Swash lookup 115 subtable" agrave
EndChar

StartChar: acircumflex
Encoding: 226 226 107
Width: 1145
GlyphClass: 2
Flags: W
LayerCount: 2
Fore
SplineSet
656 549 m 1,0,1
 638 533 638 533 607 515 c 128,-1,2
 576 497 576 497 545 481.5 c 128,-1,3
 514 466 514 466 490 455 c 128,-1,4
 466 444 466 444 463 442 c 0,5,6
 380 391 380 391 380 276 c 0,7,8
 380 242 380 242 388 212 c 128,-1,9
 396 182 396 182 411 159.5 c 128,-1,10
 426 137 426 137 448 124.5 c 128,-1,11
 470 112 470 112 498 112 c 0,12,13
 523 112 523 112 565 140 c 128,-1,14
 607 168 607 168 656 213 c 1,15,-1
 656 549 l 1,0,1
536 1393 m 1,16,17
 491 1331 491 1331 446 1265.5 c 128,-1,18
 401 1200 401 1200 358 1142 c 1,19,-1
 164 1142 l 1,20,21
 169 1154 169 1154 184 1189 c 128,-1,22
 199 1224 199 1224 219 1270.5 c 128,-1,23
 239 1317 239 1317 261 1369.5 c 128,-1,24
 283 1422 283 1422 302.5 1468.5 c 128,-1,25
 322 1515 322 1515 336.5 1549.5 c 128,-1,26
 351 1584 351 1584 355 1594 c 1,27,-1
 711 1594 l 1,28,29
 719 1577 719 1577 735 1541 c 128,-1,30
 751 1505 751 1505 771 1460 c 128,-1,31
 791 1415 791 1415 813 1365 c 128,-1,32
 835 1315 835 1315 855 1270.5 c 128,-1,33
 875 1226 875 1226 890.5 1191.5 c 128,-1,34
 906 1157 906 1157 913 1142 c 1,35,-1
 723 1142 l 1,36,-1
 536 1393 l 1,16,17
1103 122 m 1,37,38
 1074 93 1074 93 1039.5 67 c 128,-1,39
 1005 41 1005 41 969 21.5 c 128,-1,40
 933 2 933 2 897.5 -9 c 128,-1,41
 862 -20 862 -20 831 -20 c 0,42,43
 762 -20 762 -20 718.5 14 c 128,-1,44
 675 48 675 48 661 122 c 1,45,46
 576 43 576 43 531 17 c 0,47,48
 498 -3 498 -3 456.5 -12.5 c 128,-1,49
 415 -22 415 -22 367 -23 c 1,50,51
 305 -23 305 -23 254 -5.5 c 128,-1,52
 203 12 203 12 167 45 c 128,-1,53
 131 78 131 78 111.5 124.5 c 128,-1,54
 92 171 92 171 92 229 c 0,55,56
 92 348 92 348 165 419 c 0,57,58
 223 476 223 476 389 528 c 0,59,60
 470 554 470 554 539 588.5 c 128,-1,61
 608 623 608 623 656 660 c 1,62,-1
 656 748 l 2,63,64
 656 781 656 781 645 810.5 c 128,-1,65
 634 840 634 840 614 861.5 c 128,-1,66
 594 883 594 883 567 895.5 c 128,-1,67
 540 908 540 908 507 908 c 0,68,69
 382 908 382 908 382 771 c 0,70,71
 382 746 382 746 385 723 c 1,72,73
 324 701 324 701 252 676.5 c 128,-1,74
 180 652 180 652 114 630 c 1,75,76
 105 675 105 675 105 714 c 0,77,78
 105 796 105 796 169.5 859 c 128,-1,79
 234 922 234 922 349 964 c 0,80,81
 407 985 407 985 460 994.5 c 128,-1,82
 513 1004 513 1004 560 1005 c 1,83,84
 629 1005 629 1005 698.5 986.5 c 128,-1,85
 768 968 768 968 824 931 c 128,-1,86
 880 894 880 894 915 839 c 128,-1,87
 950 784 950 784 950 712 c 2,88,-1
 950 262 l 2,89,90
 950 154 950 154 1001 154 c 0,91,92
 1024 154 1024 154 1065 183 c 1,93,-1
 1103 122 l 1,37,38
EndSplineSet
Substitution2: "<17016,16016> Urdu Swash lookup 115 subtable" acircumflex
EndChar

StartChar: adieresis
Encoding: 228 228 108
Width: 1145
GlyphClass: 2
Flags: W
LayerCount: 2
Fore
SplineSet
805 1480 m 0,0,1
 834 1480 834 1480 860 1468 c 128,-1,2
 886 1456 886 1456 906 1436 c 128,-1,3
 926 1416 926 1416 938 1390 c 128,-1,4
 950 1364 950 1364 950 1335 c 256,5,6
 950 1306 950 1306 938.5 1279.5 c 128,-1,7
 927 1253 927 1253 907 1233 c 128,-1,8
 887 1213 887 1213 860.5 1201.5 c 128,-1,9
 834 1190 834 1190 805 1190 c 0,10,11
 775 1190 775 1190 748.5 1201.5 c 128,-1,12
 722 1213 722 1213 702.5 1233 c 128,-1,13
 683 1253 683 1253 672 1279 c 128,-1,14
 661 1305 661 1305 661 1335 c 256,15,16
 661 1365 661 1365 673 1391.5 c 128,-1,17
 685 1418 685 1418 704.5 1437.5 c 128,-1,18
 724 1457 724 1457 750.5 1468.5 c 128,-1,19
 777 1480 777 1480 805 1480 c 0,0,1
341 1480 m 0,20,21
 370 1480 370 1480 396 1468.5 c 128,-1,22
 422 1457 422 1457 442 1437 c 128,-1,23
 462 1417 462 1417 473.5 1391 c 128,-1,24
 485 1365 485 1365 485 1335 c 256,25,26
 485 1305 485 1305 474 1279 c 128,-1,27
 463 1253 463 1253 443.5 1233 c 128,-1,28
 424 1213 424 1213 397.5 1201.5 c 128,-1,29
 371 1190 371 1190 341 1190 c 0,30,31
 312 1190 312 1190 286 1201.5 c 128,-1,32
 260 1213 260 1213 240 1233 c 128,-1,33
 220 1253 220 1253 208 1279 c 128,-1,34
 196 1305 196 1305 196 1335 c 0,35,36
 196 1364 196 1364 208 1390 c 128,-1,37
 220 1416 220 1416 240 1436 c 128,-1,38
 260 1456 260 1456 286.5 1468 c 128,-1,39
 313 1480 313 1480 341 1480 c 0,20,21
656 547 m 1,40,41
 638 531 638 531 607 512.5 c 128,-1,42
 576 494 576 494 545 478 c 128,-1,43
 514 462 514 462 490 451 c 128,-1,44
 466 440 466 440 463 439 c 0,45,46
 380 388 380 388 380 274 c 0,47,48
 380 240 380 240 388 210 c 128,-1,49
 396 180 396 180 411 157.5 c 128,-1,50
 426 135 426 135 448 122.5 c 128,-1,51
 470 110 470 110 498 110 c 0,52,53
 523 110 523 110 565 138 c 128,-1,54
 607 166 607 166 656 211 c 1,55,-1
 656 547 l 1,40,41
1103 120 m 1,56,57
 1074 91 1074 91 1039.5 65 c 128,-1,58
 1005 39 1005 39 969 19.5 c 128,-1,59
 933 0 933 0 897.5 -11 c 128,-1,60
 862 -22 862 -22 831 -22 c 0,61,62
 762 -22 762 -22 718.5 12 c 128,-1,63
 675 46 675 46 661 120 c 1,64,65
 578 43 578 43 531 14 c 0,66,67
 498 -6 498 -6 456.5 -15 c 128,-1,68
 415 -24 415 -24 367 -25 c 1,69,70
 305 -25 305 -25 254 -7.5 c 128,-1,71
 203 10 203 10 167 43 c 128,-1,72
 131 76 131 76 111.5 122.5 c 128,-1,73
 92 169 92 169 92 227 c 0,74,75
 92 346 92 346 165 416 c 0,76,77
 194 444 194 444 249.5 471.5 c 128,-1,78
 305 499 305 499 389 525 c 0,79,80
 470 551 470 551 539 586 c 128,-1,81
 608 621 608 621 656 658 c 1,82,-1
 656 746 l 2,83,84
 656 779 656 779 645 808 c 128,-1,85
 634 837 634 837 614 858.5 c 128,-1,86
 594 880 594 880 567 892.5 c 128,-1,87
 540 905 540 905 507 905 c 0,88,89
 382 905 382 905 382 769 c 0,90,91
 382 744 382 744 385 721 c 1,92,93
 324 699 324 699 252 674.5 c 128,-1,94
 180 650 180 650 114 628 c 1,95,96
 105 673 105 673 105 712 c 0,97,98
 105 794 105 794 169.5 856.5 c 128,-1,99
 234 919 234 919 349 961 c 0,100,101
 407 983 407 983 460 992.5 c 128,-1,102
 513 1002 513 1002 560 1003 c 1,103,104
 629 1003 629 1003 698.5 984.5 c 128,-1,105
 768 966 768 966 824 929 c 128,-1,106
 880 892 880 892 915 837 c 128,-1,107
 950 782 950 782 950 710 c 2,108,-1
 950 260 l 2,109,110
 950 152 950 152 1001 152 c 0,111,112
 1024 152 1024 152 1065 180 c 1,113,-1
 1103 120 l 1,56,57
EndSplineSet
Substitution2: "<17016,16016> Urdu Swash lookup 115 subtable" adieresis
EndChar

StartChar: atilde
Encoding: 227 227 109
Width: 1145
GlyphClass: 2
Flags: W
LayerCount: 2
Fore
SplineSet
656 547 m 1,0,1
 638 531 638 531 607 512.5 c 128,-1,2
 576 494 576 494 545 478 c 128,-1,3
 514 462 514 462 490 451 c 128,-1,4
 466 440 466 440 463 439 c 0,5,6
 380 388 380 388 380 274 c 0,7,8
 380 240 380 240 388 210 c 128,-1,9
 396 180 396 180 411 157.5 c 128,-1,10
 426 135 426 135 448 122.5 c 128,-1,11
 470 110 470 110 498 110 c 0,12,13
 523 110 523 110 565 138 c 128,-1,14
 607 166 607 166 656 211 c 1,15,-1
 656 547 l 1,0,1
692 1352 m 1,16,17
 733 1352 733 1352 755.5 1375 c 128,-1,18
 778 1398 778 1398 784 1451 c 1,19,-1
 936 1451 l 1,20,21
 904 1281 904 1281 839 1228 c 0,22,23
 808 1202 808 1202 766 1187 c 128,-1,24
 724 1172 724 1172 683 1172 c 0,25,26
 663 1172 663 1172 637 1176.5 c 128,-1,27
 611 1181 611 1181 585 1188.5 c 128,-1,28
 559 1196 559 1196 535.5 1204.5 c 128,-1,29
 512 1213 512 1213 496 1221 c 1,30,-1
 494 1221 l 1,31,32
 444 1239 444 1239 412.5 1248 c 128,-1,33
 381 1257 381 1257 351 1257 c 0,34,35
 289 1257 289 1257 270 1157 c 1,36,-1
 125 1157 l 1,37,38
 151 1297 151 1297 213.5 1365.5 c 128,-1,39
 276 1434 276 1434 380 1434 c 0,40,41
 399 1434 399 1434 419.5 1431.5 c 128,-1,42
 440 1429 440 1429 464.5 1422.5 c 128,-1,43
 489 1416 489 1416 520 1405 c 128,-1,44
 551 1394 551 1394 590 1377 c 1,45,-1
 589 1376 l 1,46,-1
 692 1352 l 1,16,17
1103 120 m 1,47,48
 1074 91 1074 91 1039.5 65 c 128,-1,49
 1005 39 1005 39 969 19.5 c 128,-1,50
 933 0 933 0 897.5 -11 c 128,-1,51
 862 -22 862 -22 831 -22 c 0,52,53
 762 -22 762 -22 718.5 12 c 128,-1,54
 675 46 675 46 661 120 c 1,55,56
 578 43 578 43 531 14 c 0,57,58
 498 -6 498 -6 456.5 -15 c 128,-1,59
 415 -24 415 -24 367 -25 c 1,60,61
 305 -25 305 -25 254 -7.5 c 128,-1,62
 203 10 203 10 167 43 c 128,-1,63
 131 76 131 76 111.5 122.5 c 128,-1,64
 92 169 92 169 92 227 c 0,65,66
 92 346 92 346 165 416 c 0,67,68
 194 444 194 444 249.5 471.5 c 128,-1,69
 305 499 305 499 389 525 c 0,70,71
 470 551 470 551 539 586 c 128,-1,72
 608 621 608 621 656 658 c 1,73,-1
 656 746 l 2,74,75
 656 779 656 779 645 808 c 128,-1,76
 634 837 634 837 614 858.5 c 128,-1,77
 594 880 594 880 567 892.5 c 128,-1,78
 540 905 540 905 507 905 c 0,79,80
 382 905 382 905 382 769 c 0,81,82
 382 744 382 744 385 721 c 1,83,84
 324 699 324 699 252 674.5 c 128,-1,85
 180 650 180 650 114 628 c 1,86,87
 105 673 105 673 105 712 c 0,88,89
 105 794 105 794 169.5 856.5 c 128,-1,90
 234 919 234 919 349 961 c 0,91,92
 407 983 407 983 460 992.5 c 128,-1,93
 513 1002 513 1002 560 1003 c 1,94,95
 629 1003 629 1003 698.5 984.5 c 128,-1,96
 768 966 768 966 824 929 c 128,-1,97
 880 892 880 892 915 837 c 128,-1,98
 950 782 950 782 950 710 c 2,99,-1
 950 260 l 2,100,101
 950 152 950 152 1001 152 c 0,102,103
 1024 152 1024 152 1065 180 c 1,104,-1
 1103 120 l 1,47,48
EndSplineSet
Substitution2: "<17016,16016> Urdu Swash lookup 115 subtable" atilde
EndChar

StartChar: aring
Encoding: 229 229 110
Width: 1145
GlyphClass: 2
Flags: W
LayerCount: 2
Fore
SplineSet
525 1243 m 0,0,1
 549 1243 549 1243 571 1252.5 c 128,-1,2
 593 1262 593 1262 609.5 1278.5 c 128,-1,3
 626 1295 626 1295 636 1317 c 128,-1,4
 646 1339 646 1339 646 1363 c 256,5,6
 646 1387 646 1387 636 1409 c 128,-1,7
 626 1431 626 1431 609.5 1447.5 c 128,-1,8
 593 1464 593 1464 571 1474 c 128,-1,9
 549 1484 549 1484 525 1484 c 0,10,11
 502 1484 502 1484 480.5 1474 c 128,-1,12
 459 1464 459 1464 442.5 1447.5 c 128,-1,13
 426 1431 426 1431 416 1409 c 128,-1,14
 406 1387 406 1387 406 1363 c 256,15,16
 406 1339 406 1339 416 1317 c 128,-1,17
 426 1295 426 1295 442.5 1278.5 c 128,-1,18
 459 1262 459 1262 480.5 1252.5 c 128,-1,19
 502 1243 502 1243 525 1243 c 0,0,1
656 547 m 1,20,21
 638 531 638 531 607 512.5 c 128,-1,22
 576 494 576 494 545 478 c 128,-1,23
 514 462 514 462 490 451 c 128,-1,24
 466 440 466 440 463 439 c 0,25,26
 380 388 380 388 380 274 c 0,27,28
 380 240 380 240 388 210 c 128,-1,29
 396 180 396 180 411 157.5 c 128,-1,30
 426 135 426 135 448 122.5 c 128,-1,31
 470 110 470 110 498 110 c 0,32,33
 523 110 523 110 565 138 c 128,-1,34
 607 166 607 166 656 211 c 1,35,-1
 656 547 l 1,20,21
525 1610 m 256,36,37
 576 1610 576 1610 621 1590.5 c 128,-1,38
 666 1571 666 1571 700 1537 c 128,-1,39
 734 1503 734 1503 753.5 1458.5 c 128,-1,40
 773 1414 773 1414 773 1363 c 256,41,42
 773 1312 773 1312 753.5 1267 c 128,-1,43
 734 1222 734 1222 700.5 1188 c 128,-1,44
 667 1154 667 1154 621.5 1134.5 c 128,-1,45
 576 1115 576 1115 525 1115 c 0,46,47
 473 1115 473 1115 428 1134.5 c 128,-1,48
 383 1154 383 1154 349.5 1188 c 128,-1,49
 316 1222 316 1222 297 1267 c 128,-1,50
 278 1312 278 1312 278 1363 c 256,51,52
 278 1414 278 1414 297.5 1459 c 128,-1,53
 317 1504 317 1504 350.5 1537.5 c 128,-1,54
 384 1571 384 1571 429 1590.5 c 128,-1,55
 474 1610 474 1610 525 1610 c 256,36,37
1103 120 m 1,56,57
 1074 91 1074 91 1039.5 65 c 128,-1,58
 1005 39 1005 39 969 19.5 c 128,-1,59
 933 0 933 0 897.5 -11 c 128,-1,60
 862 -22 862 -22 831 -22 c 0,61,62
 762 -22 762 -22 718.5 12 c 128,-1,63
 675 46 675 46 661 120 c 1,64,65
 578 43 578 43 531 14 c 0,66,67
 498 -6 498 -6 456.5 -15 c 128,-1,68
 415 -24 415 -24 367 -25 c 1,69,70
 305 -25 305 -25 254 -7.5 c 128,-1,71
 203 10 203 10 167 43 c 128,-1,72
 131 76 131 76 111.5 122.5 c 128,-1,73
 92 169 92 169 92 227 c 0,74,75
 92 346 92 346 165 416 c 0,76,77
 194 444 194 444 249.5 471.5 c 128,-1,78
 305 499 305 499 389 525 c 0,79,80
 470 551 470 551 539 586 c 128,-1,81
 608 621 608 621 656 658 c 1,82,-1
 656 746 l 2,83,84
 656 779 656 779 645 808 c 128,-1,85
 634 837 634 837 614 858.5 c 128,-1,86
 594 880 594 880 567 892.5 c 128,-1,87
 540 905 540 905 507 905 c 0,88,89
 382 905 382 905 382 769 c 0,90,91
 382 744 382 744 385 721 c 1,92,93
 324 699 324 699 252 674.5 c 128,-1,94
 180 650 180 650 114 628 c 1,95,96
 105 673 105 673 105 712 c 0,97,98
 105 794 105 794 169.5 856.5 c 128,-1,99
 234 919 234 919 349 961 c 0,100,101
 407 983 407 983 460 992.5 c 128,-1,102
 513 1002 513 1002 560 1003 c 1,103,104
 629 1003 629 1003 698.5 984.5 c 128,-1,105
 768 966 768 966 824 929 c 128,-1,106
 880 892 880 892 915 837 c 128,-1,107
 950 782 950 782 950 710 c 2,108,-1
 950 260 l 2,109,110
 950 152 950 152 1001 152 c 0,111,112
 1024 152 1024 152 1065 180 c 1,113,-1
 1103 120 l 1,56,57
EndSplineSet
Substitution2: "<17016,16016> Urdu Swash lookup 115 subtable" aring
EndChar

